<svg width="12" height="16" viewBox="0 0 12 16" fill="none" xmlns="http://www.w3.org/2000/svg">
<path d="M0.0380859 4.04163H0.600586V5.77806H0.0380859V4.04163Z" fill="#1B1C1E"/>
<path d="M0.600588 2.38509C0.600733 2.28236 0.619801 2.18054 0.656838 2.08472L0.756963 1.82203L0.231026 1.62122L0.130339 1.88334C0.0689959 2.04349 0.0377227 2.21359 0.0380891 2.38509V3.43022H0.600588V2.38509Z" fill="#1B1C1E"/>
<path d="M8.96179 2.03299L9.07935 2.28837L9.5901 2.05324L9.47254 1.79787C9.36955 1.57467 9.20999 1.38229 9.00968 1.2398C8.80938 1.09732 8.57529 1.00969 8.33066 0.985618L8.04941 0.958618L7.99316 1.52112L8.27441 1.54812C8.42139 1.56175 8.56222 1.6137 8.68283 1.69879C8.80345 1.78387 8.89964 1.89911 8.96179 2.03299Z" fill="#1B1C1E"/>
<path d="M3.32715 0.978882H5.06358V1.54138H3.32715V0.978882Z" fill="#1B1C1E"/>
<path d="M5.67383 0.978882H7.41027V1.54138H5.67383V0.978882Z" fill="#1B1C1E"/>
<path d="M0.0380859 6.38953H0.600586V8.12597H0.0380859V6.38953Z" fill="#1B1C1E"/>
<path d="M0.0380859 8.73743H0.600586V10.4739H0.0380859V8.73743Z" fill="#1B1C1E"/>
<path d="M2.715 0.978882H1.44375C1.36838 0.979582 1.29316 0.985976 1.21875 0.998007L0.9375 1.04357L1.02919 1.59932L1.3065 1.55319C1.35187 1.54569 1.39776 1.54174 1.44375 1.54138H2.715V0.978882Z" fill="#1B1C1E"/>
<path d="M0.60486 11.3379L0.576172 11.0566L0.0136719 11.1129L0.0429219 11.3941C0.0682084 11.6387 0.157194 11.8724 0.301001 12.0719C0.444807 12.2714 0.638407 12.4297 0.862485 12.531L1.11898 12.6463L1.35017 12.1338L1.09423 12.018C0.960505 11.957 0.845006 11.8622 0.759172 11.743C0.673338 11.6237 0.620145 11.484 0.60486 11.3379Z" fill="#1B1C1E"/>
<path d="M10.5781 3.36111H9.60048V2.79861H9.03798V3.36111H3.8281C3.45514 3.36111 3.09746 3.50927 2.83373 3.77299C2.57001 4.03671 2.42185 4.3944 2.42185 4.76736V12.0939H1.85935V12.6564H2.42185V13.6352C2.42185 14.0081 2.57001 14.3658 2.83373 14.6295C3.09746 14.8933 3.45514 15.0414 3.8281 15.0414H10.5781C10.9511 15.0414 11.3088 14.8933 11.5725 14.6295C11.8362 14.3658 11.9844 14.0081 11.9844 13.6352V4.76736C11.9844 4.3944 11.8362 4.03671 11.5725 3.77299C11.3088 3.50927 10.9511 3.36111 10.5781 3.36111ZM11.4219 13.6352C11.4219 13.8589 11.333 14.0736 11.1747 14.2318C11.0165 14.39 10.8019 14.4789 10.5781 14.4789H3.8281C3.60433 14.4789 3.38972 14.39 3.23148 14.2318C3.07325 14.0736 2.98435 13.8589 2.98435 13.6352V12.6564V12.0939V4.76736C2.98435 4.54358 3.07325 4.32897 3.23148 4.17074C3.38972 4.0125 3.60433 3.92361 3.8281 3.92361H9.03798H9.60048H10.5781C10.8019 3.92361 11.0165 4.0125 11.1747 4.17074C11.333 4.32897 11.4219 4.54358 11.4219 4.76736V13.6352ZM0.600477 5.77817H0.0379766V4.04173H0.600477V5.77817ZM5.06279 1.54142H3.32692V0.978921H5.06279V1.54142ZM7.41067 1.54142H5.67423V0.978921H7.41067V1.54142ZM8.27635 1.54592L7.9951 1.51892L8.05135 0.956421L8.3326 0.983421C8.57723 1.0075 8.81132 1.09512 9.01162 1.23761C9.21193 1.38009 9.37149 1.57247 9.47448 1.79567L9.59204 2.05105L9.08129 2.28617L8.96373 2.0308C8.90158 1.89691 8.80539 1.78167 8.68478 1.69659C8.56416 1.61151 8.42333 1.55955 8.27635 1.54592ZM0.600477 3.43029H0.0379766V2.38517C0.0376102 2.21367 0.0688835 2.04357 0.130227 1.88342L0.230914 1.6213L0.755727 1.82211L0.656727 2.0848C0.61969 2.18062 0.600622 2.28244 0.600477 2.38517V3.43029ZM0.600477 8.12604H0.0379766V6.38961H0.600477V8.12604ZM2.71548 1.54142H1.44423C1.39805 1.54175 1.35197 1.5457 1.30641 1.55323L1.0291 1.59936L0.937977 1.04361L1.21585 0.998046C1.29026 0.986015 1.36548 0.979621 1.44085 0.978921H2.71548V1.54142ZM1.09716 12.0191L1.3531 12.135L1.12191 12.6474L0.865414 12.5321C0.641337 12.4308 0.447737 12.2725 0.30393 12.0731C0.160124 11.8736 0.0711381 11.6399 0.0458516 11.3953L0.0166016 11.114L0.579102 11.0578L0.607789 11.339C0.623075 11.4852 0.676267 11.6248 0.762102 11.7441C0.847936 11.8634 0.963435 11.9582 1.09716 12.0191ZM0.600477 10.475H0.0379766V8.73748H0.600477V10.475Z" fill="#15F9FF"/>
</svg>
