<svg width="39" height="40" viewBox="0 0 39 40" fill="none" xmlns="http://www.w3.org/2000/svg">
<g clip-path="url(#clip0_233_14461)">
<path d="M33.9347 5.43961C28.4013 5.43961 22.6669 0.310549 22.6102 0.259166C22.229 -0.0863886 21.6481 -0.0863886 21.267 0.259166C21.2099 0.310949 15.4905 5.43961 9.94248 5.43961C9.3904 5.43961 8.94281 5.8872 8.94281 6.43929V18.4113C8.94281 28.1097 16.1562 31.9851 21.582 34.0565C21.6969 34.1004 21.8177 34.1222 21.9386 34.1222C22.0595 34.1222 22.1803 34.1003 22.2951 34.0565C29.9029 31.1521 34.9344 26.6217 34.9344 18.4113V6.43929C34.9344 5.8872 34.4868 5.43961 33.9347 5.43961Z" fill="url(#paint0_linear_233_14461)"/>
</g>
<g clip-path="url(#clip1_233_14461)">
<path d="M24.2007 11.0122C20.69 11.7006 17.2118 13.8035 14.8821 16.4685L5.37189 27.2665L8.48589 30.3194L19.4999 20.9957C22.2182 18.7117 24.3631 15.3017 25.0652 11.8598C25.1616 11.3873 24.6827 10.9177 24.2007 11.0122Z" fill="url(#paint1_linear_233_14461)"/>
<path d="M10.6055 31.3003L4.37142 25.1884C4.08425 24.9069 3.61953 24.9069 3.33241 25.1884C3.04524 25.47 3.04524 25.9256 3.33241 26.2071L4.89095 27.7351L0.215316 32.319C-0.0718535 32.6005 -0.0718535 33.0561 0.215316 33.3376L2.29334 35.3749C2.58051 35.6564 3.04524 35.6564 3.33236 35.3749L8.00794 30.791L9.56649 32.319C9.85366 32.6005 10.3184 32.6005 10.6055 32.319C10.8927 32.0375 10.8927 31.5819 10.6055 31.3003Z" fill="url(#paint2_linear_233_14461)"/>
</g>
<g clip-path="url(#clip2_233_14461)">
<path d="M26.5822 29.3144L26.4449 30.1176C26.3827 30.4871 26.5407 30.8714 26.847 31.0947C27.1762 31.3369 27.6111 31.3432 27.9042 31.1772L28.6333 30.8008L29.3417 31.1658C29.6817 31.3625 30.1192 31.3289 30.4186 31.0957C30.7259 30.8714 30.884 30.4871 30.8217 30.1161L30.6844 29.3139L31.2545 28.7507C31.54 28.484 31.6447 28.0729 31.5212 27.7059C31.4046 27.3512 31.0894 27.083 30.712 27.0203L29.9009 26.8978L29.5413 26.1711C29.3753 25.8396 29.0275 25.6336 28.6333 25.6336C28.2391 25.6336 27.8913 25.8396 27.7244 26.173L27.3657 26.8977L26.5467 27.0217C26.1772 27.083 25.862 27.3512 25.7464 27.7034C25.622 28.0729 25.7267 28.484 26.0013 28.7408L26.5822 29.3144ZM35.1076 36.4333L32.4776 32.9328C32.358 32.7728 32.1584 32.6977 31.9598 32.7437C31.7652 32.7886 31.615 32.9437 31.5765 33.1398C31.5439 33.3073 31.4856 33.4258 31.4214 33.4634C31.2979 33.5331 30.9017 33.5054 30.2071 32.968C30.0827 32.8716 29.9167 32.837 29.7675 32.8795C29.6144 32.9205 29.4899 33.0302 29.4296 33.1764C29.1401 33.8853 28.8131 34.2079 28.6333 34.2079C28.4535 34.2079 28.1265 33.8853 27.837 33.1764C27.7767 33.0302 27.6522 32.9205 27.4991 32.8795C27.3479 32.837 27.1829 32.8716 27.0594 32.9679C26.3659 33.5049 25.9716 33.5335 25.8491 33.4654C25.781 33.4258 25.7227 33.3073 25.69 33.1398C25.6515 32.9437 25.5013 32.7886 25.3067 32.7437C25.1051 32.6977 24.9085 32.7728 24.789 32.9328L22.159 36.4333C22.0434 36.5864 22.0247 36.7914 22.1106 36.9634C22.1965 37.1348 22.3714 37.243 22.5631 37.243H24.2743L25.1457 38.9867C25.2237 39.1434 25.3779 39.2486 25.5527 39.2644C25.7159 39.2807 25.8925 39.2108 26.0032 39.0638L28.6332 35.5571L31.2633 39.0638C31.3742 39.2109 31.5509 39.2806 31.7138 39.2644C31.8887 39.2485 32.0428 39.1433 32.1208 38.9867L32.9923 37.243H34.7035C34.8952 37.243 35.07 37.1348 35.156 36.9634C35.2419 36.7914 35.2231 36.5864 35.1076 36.4333Z" fill="url(#paint3_linear_233_14461)"/>
<path d="M35.2095 28.6435C35.2095 28.2388 35.0072 27.6824 34.1066 27.1765C34.6327 26.2963 34.5317 25.7096 34.3293 25.3555C34.1269 25.0013 33.6413 24.6473 32.6296 24.6473C32.6498 23.6052 32.2755 23.15 31.9113 22.9375C31.5673 22.7453 30.9806 22.6441 30.1004 23.1702C29.5946 22.2698 29.0381 22 28.6334 22C28.2287 22 27.6723 22.2698 27.1665 23.1702C26.2863 22.6441 25.6995 22.7453 25.3454 22.9476C24.9913 23.15 24.617 23.6052 24.6372 24.6473C23.6255 24.6473 23.1399 25.0014 22.9274 25.3656C22.7352 25.7197 22.6341 26.3065 23.1602 27.1765C22.2597 27.6824 22.0574 28.2388 22.0574 28.6435C22.0574 29.0481 22.2597 29.6046 23.1602 30.1105C22.634 30.9906 22.7352 31.5774 22.9376 31.9315C23.1399 32.2856 23.6154 32.6599 24.6372 32.6397C24.6118 33.2981 24.7815 34.0146 25.3555 34.3495C25.7096 34.5416 26.2863 34.6429 27.1665 34.1168C27.6723 35.0172 28.2287 35.2195 28.6334 35.2195C29.0381 35.2195 29.5945 35.0172 30.1004 34.1168C30.9806 34.6429 31.5673 34.5416 31.9214 34.3394C32.4896 34.0182 32.6545 33.2868 32.6296 32.6397C33.6919 32.6599 34.1269 32.2856 34.3394 31.9214C34.5317 31.5673 34.6328 30.9805 34.1066 30.1105C35.0072 29.6046 35.2095 29.0481 35.2095 28.6435ZM30.9097 28.3804L30.1408 29.1392L30.323 30.2015C30.3533 30.3836 30.2724 30.5758 30.1206 30.6871C29.9584 30.8133 29.7479 30.8152 29.5946 30.7276L28.6335 30.2319L27.6723 30.7276C27.5105 30.8186 27.298 30.7984 27.1463 30.6871C26.9945 30.5758 26.9136 30.3836 26.9439 30.2015L27.1261 29.1392L26.3572 28.3804C26.2155 28.2489 26.1649 28.0466 26.2256 27.8645C26.2863 27.6824 26.4482 27.5509 26.6304 27.5205L27.7028 27.3586L28.1782 26.3975C28.3502 26.0536 28.9168 26.0536 29.0888 26.3975L29.5642 27.3586L30.6366 27.5205C30.8188 27.5509 30.9807 27.6824 31.0414 27.8645C31.1021 28.0466 31.0514 28.2489 30.9097 28.3804Z" fill="url(#paint4_linear_233_14461)"/>
</g>
<defs>
<linearGradient id="paint0_linear_233_14461" x1="21.9386" y1="34.1222" x2="21.9386" y2="-1.62707e-05" gradientUnits="userSpaceOnUse">
<stop stop-color="#72F8F4"/>
<stop offset="1" stop-color="#23CAC5"/>
</linearGradient>
<linearGradient id="paint1_linear_233_14461" x1="6.92967" y1="28.7895" x2="24.4932" y2="10.8747" gradientUnits="userSpaceOnUse">
<stop stop-color="white"/>
<stop offset="0.5028" stop-color="white"/>
<stop offset="1" stop-color="#EAF6FF"/>
</linearGradient>
<linearGradient id="paint2_linear_233_14461" x1="1.25597" y1="34.352" x2="7.36575" y2="28.12" gradientUnits="userSpaceOnUse">
<stop stop-color="#6467FB"/>
<stop offset="1" stop-color="#B5EDFF"/>
</linearGradient>
<linearGradient id="paint3_linear_233_14461" x1="28.6333" y1="39.2667" x2="28.6333" y2="25.6336" gradientUnits="userSpaceOnUse">
<stop stop-color="#A93AFF"/>
<stop offset="1" stop-color="#FF81FF"/>
</linearGradient>
<linearGradient id="paint4_linear_233_14461" x1="28.6334" y1="35.2195" x2="28.6334" y2="22" gradientUnits="userSpaceOnUse">
<stop stop-color="white"/>
<stop offset="1" stop-color="#FFF1FF"/>
</linearGradient>
<clipPath id="clip0_233_14461">
<rect width="34.1222" height="34.1222" fill="white" transform="translate(4.87744)"/>
</clipPath>
<clipPath id="clip1_233_14461">
<rect width="25.0778" height="24.5861" fill="white" transform="translate(0 11)"/>
</clipPath>
<clipPath id="clip2_233_14461">
<rect width="17.2667" height="17.2667" fill="white" transform="translate(19.9999 22)"/>
</clipPath>
</defs>
</svg>
