<svg width="191" height="59" viewBox="0 0 191 59" fill="none" xmlns="http://www.w3.org/2000/svg">
<g clip-path="url(#clip0_678_5879)">
<path d="M69.249 24.4764H76.7245V44.2337H79.1184V24.4764H86.5939V22.0842H69.249V24.4764Z" fill="#15F9FF"/>
<path d="M119.662 24.4764H127.138V44.2337H129.531V24.4764H137.007V22.0842H119.662V24.4764Z" fill="#15F9FF"/>
<path d="M159.248 34.1865C160.042 33.5885 160.684 32.8273 161.152 31.9248C161.62 31.0115 161.86 30.0111 161.86 28.9346C161.86 27.5428 161.522 26.3141 160.869 25.292C160.217 24.2698 159.292 23.4869 158.138 22.965C157.017 22.4539 155.733 22.2039 154.308 22.2039H146.952V44.3533H149.346V35.5675H155.2L160.663 44.3533H162.741V43.1029L157.703 35.0455C158.236 34.8281 158.758 34.5454 159.248 34.1865ZM159.455 28.9237C159.455 29.674 159.281 30.3808 158.943 31.0223C158.617 31.653 158.106 32.1749 157.442 32.5664C156.778 32.9578 155.951 33.1644 154.983 33.1644H149.324V24.5743H154.286C155.374 24.5743 156.321 24.7591 157.115 25.118C157.866 25.4659 158.443 25.9552 158.845 26.5968C159.248 27.2492 159.455 28.0321 159.455 28.9237Z" fill="#15F9FF"/>
<path d="M182.698 22.0625H182.012L181.762 21.2144L181.447 22.0625H180.641L172.339 44.212H174.918L177.399 37.5465L177.682 36.7853L181.642 26.2053C183.394 31.0767 187.442 41.6458 188.237 43.69L188.443 44.212H191.011L182.698 22.0625Z" fill="#15F9FF"/>
<path d="M109.978 42.0154H95.8535V44.2336H109.978V42.0154Z" fill="#15F9FF"/>
<path d="M109.978 22.0842H95.8535V24.4764H109.978V22.0842Z" fill="#15F9FF"/>
<path d="M109.978 31.6531H95.8535V34.0453H109.978V31.6531Z" fill="#15F9FF"/>
<g opacity="0.12">
<path opacity="0.12" d="M0.739258 33.186V57.9016C0.739258 58.1735 0.989528 58.3801 1.26156 58.3148L55.5376 45.4405L0.739258 33.186Z" fill="#15F9FF"/>
</g>
<path d="M55.3418 45.1905C55.3309 45.1905 55.32 45.1905 55.3091 45.1905L53.6661 44.8317C53.5681 44.8099 53.5137 44.723 53.5355 44.6251C53.5572 44.5272 53.6443 44.4729 53.7422 44.4946L55.3853 44.8534C55.4832 44.8752 55.5377 44.9622 55.5159 45.06C55.4941 45.1361 55.4288 45.1905 55.3418 45.1905ZM51.6639 44.3859C51.653 44.3859 51.6421 44.3859 51.6313 44.3859L49.5964 43.9401C49.4985 43.9183 49.4441 43.8313 49.4659 43.7335C49.4876 43.6356 49.5747 43.5812 49.6726 43.603L51.7074 44.0488C51.8054 44.0705 51.8598 44.1575 51.838 44.2554C51.8162 44.3315 51.7509 44.3859 51.6639 44.3859ZM47.5943 43.4834C47.5834 43.4834 47.5725 43.4834 47.5616 43.4834L45.5268 43.0375C45.4289 43.0158 45.3745 42.9288 45.3963 42.831C45.418 42.7331 45.5051 42.6787 45.603 42.7005L47.6378 43.1463C47.7357 43.168 47.7901 43.255 47.7684 43.3529C47.7466 43.429 47.6704 43.4834 47.5943 43.4834ZM43.5247 42.5917C43.5138 42.5917 43.5029 42.5917 43.492 42.5917L41.4572 42.1459C41.3593 42.1242 41.3049 42.0372 41.3266 41.9393C41.3484 41.8415 41.4354 41.7871 41.5334 41.8088L43.5682 42.2547C43.6661 42.2764 43.7205 42.3634 43.6988 42.4613C43.677 42.5374 43.6008 42.5917 43.5247 42.5917ZM39.4442 41.6892C39.4333 41.6892 39.4224 41.6892 39.4115 41.6892L37.3767 41.2434C37.2788 41.2217 37.2244 41.1347 37.2461 41.0368C37.2679 40.939 37.3549 40.8846 37.4529 40.9063L39.4877 41.3521C39.5856 41.3739 39.64 41.4609 39.6183 41.5587C39.5965 41.6349 39.5312 41.6892 39.4442 41.6892ZM35.3745 40.7976C35.3637 40.7976 35.3528 40.7976 35.3419 40.7976L33.2962 40.3409C33.1983 40.3192 33.1439 40.2322 33.1656 40.1343C33.1874 40.0364 33.2745 39.9821 33.3724 40.0038L35.4072 40.4496C35.5051 40.4714 35.5595 40.5584 35.5378 40.6562C35.5269 40.7432 35.4507 40.7976 35.3745 40.7976ZM31.294 39.8951C31.2832 39.8951 31.2723 39.8951 31.2614 39.8951L29.2266 39.4493C29.1287 39.4275 29.0743 39.3405 29.096 39.2427C29.1178 39.1448 29.2048 39.0904 29.3028 39.1122L31.3376 39.558C31.4355 39.5798 31.4899 39.6667 31.4681 39.7646C31.4464 39.8407 31.3811 39.8951 31.294 39.8951ZM27.2244 39.0035C27.2135 39.0035 27.2027 39.0035 27.1918 39.0035L25.157 38.5576C25.059 38.5359 25.0046 38.4489 25.0264 38.351C25.0482 38.2532 25.1352 38.1988 25.2331 38.2206L27.268 38.6664C27.3659 38.6881 27.4203 38.7751 27.3985 38.873C27.3768 38.9491 27.3006 39.0035 27.2244 39.0035ZM23.1439 38.1009C23.133 38.1009 23.1222 38.1009 23.1113 38.1009L21.0765 37.6551C20.9785 37.6334 20.9241 37.5464 20.9459 37.4485C20.9677 37.3507 21.0547 37.2963 21.1526 37.3181L23.1875 37.7639C23.2854 37.7856 23.3398 37.8726 23.318 37.9705C23.2963 38.0466 23.231 38.1009 23.1439 38.1009ZM19.0743 37.2093C19.0634 37.2093 19.0526 37.2093 19.0417 37.2093L17.0069 36.7635C16.9089 36.7418 16.8545 36.6548 16.8763 36.5569C16.898 36.459 16.9851 36.4047 17.083 36.4264L19.1178 36.8722C19.2158 36.894 19.2702 36.981 19.2484 37.0788C19.2267 37.155 19.1505 37.2093 19.0743 37.2093ZM15.0047 36.3068C14.9938 36.3068 14.9829 36.3068 14.9721 36.3068L12.9372 35.861C12.8393 35.8392 12.7849 35.7523 12.8067 35.6544C12.8284 35.5565 12.9155 35.5022 13.0134 35.5239L15.0482 35.9697C15.1462 35.9915 15.2006 36.0785 15.1788 36.1763C15.157 36.2524 15.0809 36.3068 15.0047 36.3068ZM10.9242 35.4152C10.9133 35.4152 10.9024 35.4152 10.8916 35.4152L8.85674 34.9694C8.75881 34.9476 8.70441 34.8606 8.72617 34.7628C8.74793 34.6649 8.83498 34.6105 8.93291 34.6323L10.9677 35.0781C11.0657 35.0998 11.1201 35.1868 11.0983 35.2847C11.0765 35.3608 11.0112 35.4152 10.9242 35.4152ZM6.85458 34.5235C6.8437 34.5235 6.83282 34.5235 6.82194 34.5235L4.78713 34.0777C4.6892 34.056 4.63479 33.969 4.65655 33.8711C4.67831 33.7733 4.76536 33.7189 4.8633 33.7406L6.89811 34.1865C6.99604 34.2082 7.05044 34.2952 7.02868 34.3931C7.00692 34.4583 6.93075 34.5235 6.85458 34.5235ZM2.77408 33.621C2.7632 33.621 2.75232 33.621 2.74144 33.621L0.706628 33.1644C0.608696 33.1426 0.55429 33.0556 0.576052 32.9578C0.597815 32.8599 0.684866 32.8055 0.782798 32.8273L2.81761 33.2731C2.91554 33.2948 2.96994 33.3818 2.94818 33.4797C2.92642 33.5667 2.86113 33.621 2.77408 33.621Z" fill="#15F9FF"/>
<path d="M55.3422 45.5167C55.3096 45.5167 55.266 45.5167 55.2334 45.5058L53.5903 45.147C53.4597 45.1144 53.3509 45.0383 53.2748 44.9295C53.1986 44.8208 53.1768 44.6794 53.2095 44.549C53.2748 44.2771 53.525 44.114 53.7971 44.1684L55.4401 44.5272C55.5707 44.5598 55.6795 44.6359 55.7557 44.7447C55.8319 44.8534 55.8536 44.9948 55.821 45.1253C55.7883 45.3536 55.5816 45.5167 55.3422 45.5167ZM51.6643 44.7121C51.6317 44.7121 51.5882 44.7121 51.5555 44.7012L49.5207 44.2554C49.3901 44.2227 49.2813 44.1466 49.2051 44.0379C49.129 43.9292 49.1072 43.7878 49.1399 43.6573C49.2051 43.3855 49.4663 43.2224 49.7274 43.2767L51.7731 43.7226C51.9037 43.7552 52.0125 43.8313 52.0887 43.94C52.1649 44.0488 52.1866 44.1901 52.154 44.3206C52.1105 44.549 51.9037 44.7121 51.6643 44.7121ZM47.5947 43.8096C47.5621 43.8096 47.5185 43.8096 47.4859 43.7987L45.4511 43.3529C45.3205 43.3202 45.2117 43.2441 45.1355 43.1354C45.0594 43.0267 45.0376 42.8853 45.0702 42.7548C45.1246 42.483 45.3967 42.3199 45.6687 42.3742L47.7035 42.8201C47.8341 42.8527 47.9429 42.9288 48.0191 43.0375C48.0952 43.1463 48.117 43.2876 48.0844 43.4181C48.03 43.6464 47.8341 43.8096 47.5947 43.8096ZM43.5251 42.9179C43.4924 42.9179 43.4489 42.9179 43.4163 42.907L41.3815 42.4612C41.2509 42.4286 41.1421 42.3525 41.0659 42.2438C40.9897 42.135 40.968 41.9937 41.0006 41.8632C41.0333 41.7327 41.1094 41.624 41.2182 41.5479C41.3271 41.4717 41.4685 41.45 41.5991 41.4826L43.6339 41.9284C43.7645 41.961 43.8733 42.0372 43.9495 42.1459C44.0256 42.2546 44.0474 42.396 44.0148 42.5265C43.9603 42.7548 43.7536 42.9179 43.5251 42.9179ZM39.4446 42.0154C39.4119 42.0154 39.3684 42.0154 39.3358 42.0045L37.301 41.5587C37.1704 41.5261 37.0616 41.45 36.9854 41.3413C36.9092 41.2325 36.8875 41.0912 36.9201 40.9607C36.9528 40.8302 37.0289 40.7215 37.1377 40.6453C37.2466 40.5692 37.388 40.5475 37.5186 40.5801L39.5534 41.0259C39.684 41.0585 39.7928 41.1347 39.869 41.2434C39.9451 41.3521 39.9669 41.4935 39.9342 41.624C39.8798 41.8523 39.684 42.0154 39.4446 42.0154ZM35.375 41.1238C35.3423 41.1238 35.2988 41.1238 35.2662 41.1129L33.2313 40.6671C33.1008 40.6345 32.992 40.5584 32.9158 40.4496C32.8396 40.3409 32.8179 40.1995 32.8505 40.069C32.9158 39.7972 33.1661 39.6341 33.4381 39.6885L35.4838 40.1343C35.6144 40.1669 35.7232 40.243 35.7993 40.3518C35.8755 40.4605 35.8973 40.6019 35.8646 40.7323C35.8102 40.9607 35.6035 41.1238 35.375 41.1238ZM31.2945 40.2213C31.2618 40.2213 31.2183 40.2213 31.1857 40.2104L29.1509 39.7646C29.0203 39.732 28.9115 39.6559 28.8353 39.5471C28.7591 39.4384 28.7374 39.297 28.77 39.1665C28.8244 38.9056 29.0964 38.7316 29.3576 38.786L31.4033 39.2318C31.5339 39.2644 31.6427 39.3405 31.7188 39.4493C31.795 39.558 31.8168 39.6993 31.7841 39.8298C31.7406 40.069 31.5339 40.2213 31.2945 40.2213ZM27.2249 39.3296C27.1922 39.3296 27.1487 39.3296 27.116 39.3188L25.0812 38.873C24.9507 38.8403 24.8418 38.7642 24.7657 38.6555C24.6895 38.5467 24.6677 38.4054 24.7004 38.2749C24.7548 38.0031 25.0268 37.84 25.2989 37.8943L27.3337 38.3401C27.4642 38.3728 27.5731 38.4489 27.6492 38.5576C27.7254 38.6664 27.7472 38.8077 27.7145 38.9382C27.6601 39.1665 27.4642 39.3296 27.2249 39.3296ZM23.1444 38.4271C23.1117 38.4271 23.0682 38.4271 23.0355 38.4163L21.0007 37.9704C20.8702 37.9378 20.7614 37.8617 20.6852 37.753C20.609 37.6442 20.5872 37.5029 20.6199 37.3724C20.6852 37.1006 20.9354 36.9375 21.2075 36.9918L23.2532 37.4376C23.3837 37.4703 23.4926 37.5464 23.5687 37.6551C23.6449 37.7638 23.6667 37.9052 23.634 38.0357C23.5905 38.2749 23.3837 38.4271 23.1444 38.4271ZM19.0747 37.5355C19.0421 37.5355 18.9986 37.5355 18.9659 37.5246L16.9311 37.0788C16.8005 37.0462 16.6917 36.9701 16.6156 36.8613C16.5394 36.7526 16.5176 36.6112 16.5503 36.4808C16.6047 36.2089 16.8767 36.0458 17.1487 36.1002L19.1836 36.546C19.3141 36.5786 19.4229 36.6547 19.4991 36.7635C19.5753 36.8722 19.597 37.0136 19.5644 37.1441C19.51 37.3724 19.3141 37.5355 19.0747 37.5355ZM15.0051 36.633C14.9725 36.633 14.929 36.633 14.8963 36.6221L12.8615 36.1763C12.7309 36.1437 12.6221 36.0676 12.5459 35.9588C12.4698 35.8501 12.448 35.7087 12.4807 35.5783C12.5133 35.4478 12.5895 35.339 12.6983 35.2629C12.8071 35.1868 12.9486 35.1651 13.0791 35.1977L15.1139 35.6435C15.2445 35.6761 15.3533 35.7522 15.4295 35.861C15.5057 35.9697 15.5274 36.1111 15.4948 36.2415C15.4404 36.4808 15.2336 36.633 15.0051 36.633ZM10.9246 35.7414C10.892 35.7414 10.8485 35.7414 10.8158 35.7305L8.781 35.2847C8.65043 35.2521 8.54162 35.1759 8.46545 35.0672C8.38928 34.9585 8.36751 34.8171 8.40016 34.6866C8.45456 34.4148 8.7266 34.2517 8.99863 34.3061L11.0334 34.7519C11.164 34.7845 11.2728 34.8606 11.349 34.9693C11.4252 35.0781 11.4469 35.2194 11.4143 35.3499C11.3599 35.5783 11.164 35.7414 10.9246 35.7414ZM6.85501 34.8497C6.82236 34.8497 6.77884 34.8497 6.7462 34.8389L4.71139 34.393C4.58081 34.3604 4.472 34.2843 4.39583 34.1756C4.31966 34.0668 4.2979 33.9255 4.33054 33.795C4.38495 33.5232 4.6461 33.3601 4.91813 33.4144L6.96382 33.8602C7.0944 33.8929 7.20321 33.969 7.27938 34.0777C7.35555 34.1864 7.37731 34.3278 7.34467 34.4583C7.29026 34.6866 7.0944 34.8497 6.85501 34.8497ZM2.77451 33.9472C2.74187 33.9472 2.69834 33.9472 2.6657 33.9364L0.630888 33.4905C0.500312 33.4579 0.391499 33.3818 0.315329 33.2731C0.23916 33.1643 0.217397 33.023 0.250041 32.8925C0.304448 32.6315 0.576481 32.4575 0.837633 32.5119L2.88332 32.9577C3.0139 32.9904 3.12271 33.0665 3.19888 33.1752C3.27505 33.2839 3.29681 33.4253 3.26417 33.5558C3.22064 33.7841 3.0139 33.9472 2.77451 33.9472Z" fill="#15F9FF"/>
<path d="M0.739804 58.5975C0.718041 58.5975 0.70716 58.5975 0.685397 58.5975C0.511296 58.5758 0.391602 58.4235 0.391602 58.2496V33.0011C0.391602 32.9468 0.402483 32.8815 0.435127 32.838L17.9541 0.576133C18.0411 0.423903 18.2261 0.347788 18.3893 0.423903C18.5525 0.489145 18.6396 0.673995 18.5852 0.847973L1.07713 58.3583C1.0336 58.4997 0.892143 58.5975 0.739804 58.5975ZM1.08801 33.0881V55.9226L16.9312 3.92519L1.08801 33.0881Z" fill="#15F9FF"/>
<path d="M0.739657 58.8151C0.707013 58.8151 0.685251 58.8151 0.652607 58.8042C0.369692 58.7607 0.173828 58.5324 0.173828 58.2496V33.0012C0.173828 32.9034 0.195591 32.8164 0.239116 32.7294L17.7581 0.467492C17.8995 0.206527 18.2042 0.0977911 18.4762 0.2174C18.7483 0.326136 18.8788 0.619722 18.8027 0.902435L1.28372 58.4128C1.20755 58.652 0.989928 58.8151 0.739657 58.8151ZM18.2586 0.608849C18.2151 0.608849 18.1715 0.630596 18.1389 0.67409L0.630844 32.936C0.619963 32.9577 0.619963 32.9795 0.619963 33.0012V58.2605C0.619963 58.3258 0.663488 58.3801 0.728776 58.391C0.739657 58.391 0.739657 58.391 0.750539 58.391C0.804945 58.391 0.859352 58.3584 0.870233 58.304L18.3892 0.782826C18.4109 0.717585 18.3783 0.652343 18.313 0.630596C18.3021 0.619722 18.2804 0.608849 18.2586 0.608849ZM0.870233 57.3798V33.0338L17.7581 1.93542L0.870233 57.3798ZM1.30549 33.1426V54.4548L16.0932 5.91515L1.30549 33.1426Z" fill="#15F9FF"/>
<path d="M0.740077 58.7825C0.718315 58.7825 0.685671 58.7826 0.663908 58.7717C0.402756 58.7391 0.217773 58.5107 0.217773 58.2497V33.0013C0.217773 32.9143 0.239536 32.8273 0.283061 32.7512L17.802 0.489334C17.9326 0.250115 18.2155 0.152253 18.4658 0.260989C18.716 0.369724 18.8466 0.641564 18.7596 0.891656L1.24062 58.402C1.17533 58.6303 0.979467 58.7825 0.740077 58.7825ZM18.259 0.576322C18.1937 0.576322 18.1393 0.608943 18.1067 0.663311L0.587739 32.9143C0.576857 32.9361 0.565976 32.9687 0.565976 32.9904V58.2497C0.565976 58.3367 0.631264 58.402 0.707433 58.4237C0.718315 58.4237 0.729196 58.4237 0.729196 58.4237C0.805365 58.4237 0.870653 58.3694 0.892416 58.3041L18.4114 0.793794C18.4331 0.706805 18.4005 0.619817 18.3134 0.587196C18.3134 0.576322 18.2808 0.576322 18.259 0.576322ZM0.914179 57.108V33.0448L0.935941 33.0013L17.6061 2.30522L0.914179 57.108ZM1.26238 33.1318V54.7267L16.2569 5.54554L1.26238 33.1318Z" fill="#15F9FF"/>
<path d="M0.73993 58.9999C0.707286 58.9999 0.663761 58.9999 0.631117 58.9891C0.261152 58.9347 0 58.6194 0 58.2497V33.0012C0 32.8816 0.032644 32.7511 0.0870506 32.6533L17.606 0.391385C17.791 0.0543039 18.1936 -0.0870525 18.5418 0.0651775C18.89 0.206534 19.075 0.597982 18.9662 0.967684L1.44722 58.478C1.36017 58.7825 1.06637 58.9999 0.73993 58.9999ZM1.47986 33.1861V53.2696L15.4188 7.53532L1.47986 33.1861Z" fill="#15F9FF"/>
<path d="M0.73919 58.5976C0.641258 58.5976 0.554207 58.5541 0.488919 58.4888C0.401869 58.4018 0.369225 58.2714 0.41275 58.1517L17.9317 0.641435C17.9643 0.521826 18.0731 0.423964 18.1928 0.402217C18.3234 0.38047 18.4431 0.423964 18.5302 0.521826L55.8096 45.0273C55.8858 45.1143 55.9075 45.2448 55.8749 45.3644C55.8422 45.484 55.7443 45.5602 55.6246 45.5928L0.82624 58.5867C0.793596 58.5976 0.771834 58.5976 0.73919 58.5976ZM18.4105 1.45695L1.25061 57.7712L54.9173 45.0382L18.4105 1.45695Z" fill="#15F9FF"/>
<path d="M0.739588 58.815C0.587249 58.815 0.43491 58.7497 0.326097 58.641C0.18464 58.4888 0.141114 58.2822 0.195521 58.0864L17.7145 0.576122C17.7798 0.380398 17.943 0.228168 18.1388 0.184673C18.3456 0.141179 18.5523 0.217294 18.6829 0.380397L55.9623 44.8859C56.082 45.0381 56.1256 45.2447 56.0603 45.4296C55.995 45.6144 55.8426 45.7558 55.6577 45.7993L0.870164 58.8041C0.826638 58.815 0.783113 58.815 0.739588 58.815ZM18.2585 0.608742C18.2477 0.608742 18.2368 0.608742 18.2368 0.608742C18.1932 0.619616 18.1497 0.652237 18.1388 0.695731L0.619893 58.2169C0.609012 58.2604 0.619893 58.3148 0.652537 58.3474C0.685181 58.38 0.717825 58.4018 0.783113 58.38L55.5815 45.3752C55.625 45.3644 55.6577 45.3317 55.6794 45.2882C55.6903 45.2447 55.6794 45.2012 55.6577 45.1686L18.3673 0.66311C18.3347 0.63049 18.3021 0.608742 18.2585 0.608742ZM0.935452 58.0756L18.3129 1.01106L55.2986 45.1686L0.935452 58.0756ZM18.4979 1.9027L1.56657 57.4775L54.5151 44.9077L18.4979 1.9027Z" fill="#15F9FF"/>
<path d="M0.73927 58.7823C0.597812 58.7823 0.456355 58.7171 0.358423 58.6192C0.227847 58.4779 0.184322 58.2821 0.238729 58.1082L17.7577 0.597845C17.8121 0.412995 17.9644 0.271638 18.1494 0.239018C18.3344 0.195523 18.5302 0.271638 18.6608 0.412995L55.9402 44.9185C56.0599 45.0599 56.0926 45.2447 56.0382 45.4187C55.9838 45.5927 55.8423 45.7232 55.6573 45.7667L0.858964 58.7606C0.815439 58.7715 0.782795 58.7823 0.73927 58.7823ZM18.2582 0.576098C18.2473 0.576098 18.2364 0.576098 18.2256 0.576098C18.1603 0.586972 18.1167 0.630466 18.095 0.695708L0.57605 58.206C0.554287 58.2604 0.57605 58.3256 0.619575 58.3691C0.652219 58.4017 0.695744 58.4235 0.73927 58.4235C0.750151 58.4235 0.761032 58.4235 0.782795 58.4235L55.5812 45.4187C55.6356 45.4078 55.69 45.3643 55.7008 45.31C55.7226 45.2556 55.7117 45.1904 55.6682 45.1469L18.3888 0.630466C18.3561 0.597845 18.3126 0.576098 18.2582 0.576098ZM0.98954 58.0212L18.3344 1.09803L55.233 45.1577L0.98954 58.0212ZM18.4867 1.81569L1.51184 57.5319L54.591 44.9403L18.4867 1.81569Z" fill="#15F9FF"/>
<path d="M0.739601 58.9999C0.532856 58.9999 0.336992 58.9129 0.195535 58.7716C0.0105522 58.5759 -0.0547358 58.304 0.0214335 58.0431L17.5404 0.532714C17.6165 0.271749 17.8342 0.0760243 18.1062 0.0216564C18.3782 -0.0327115 18.6503 0.0651507 18.8244 0.271749L56.1038 44.7773C56.267 44.973 56.3214 45.2449 56.2344 45.4841C56.1582 45.7342 55.9515 45.9081 55.7012 45.9734L0.913703 58.9782C0.859296 58.9891 0.794008 58.9999 0.739601 58.9999ZM18.5741 2.27249L1.82773 57.2384L54.1996 44.8099L18.5741 2.27249Z" fill="#15F9FF"/>
</g>
<defs>
<clipPath id="clip0_678_5879">
<rect width="191" height="59" fill="white"/>
</clipPath>
</defs>
</svg>
