<svg width="35" height="40" viewBox="0 0 35 40" fill="none" xmlns="http://www.w3.org/2000/svg">
<g clip-path="url(#clip0_233_14500)">
<path d="M29.9347 5.43964C24.4013 5.43964 18.6669 0.310579 18.6102 0.259196C18.229 -0.086358 17.6481 -0.086358 17.267 0.259196C17.2099 0.310979 11.4905 5.43964 5.94248 5.43964C5.3904 5.43964 4.94281 5.88723 4.94281 6.43932V18.4113C4.94281 28.1097 12.1562 31.9851 17.582 34.0565C17.6969 34.1004 17.8177 34.1222 17.9386 34.1222C18.0595 34.1222 18.1803 34.1003 18.2951 34.0565C25.9029 31.1521 30.9344 26.6217 30.9344 18.4113V6.43932C30.9344 5.88723 30.4868 5.43964 29.9347 5.43964Z" fill="url(#paint0_linear_233_14500)"/>
</g>
<g clip-path="url(#clip1_233_14500)">
<path d="M22.5822 29.3143L22.4449 30.1176C22.3827 30.4871 22.5407 30.8714 22.847 31.0947C23.1762 31.3369 23.6111 31.3432 23.9042 31.1772L24.6333 30.8008L25.3417 31.1658C25.6817 31.3624 26.1192 31.3289 26.4186 31.0957C26.7259 30.8714 26.884 30.4871 26.8217 30.1161L26.6844 29.3138L27.2545 28.7507C27.54 28.4839 27.6447 28.0729 27.5212 27.7059C27.4046 27.3512 27.0894 27.083 26.712 27.0202L25.9009 26.8977L25.5413 26.1711C25.3753 25.8396 25.0275 25.6336 24.6333 25.6336C24.2391 25.6336 23.8913 25.8396 23.7244 26.173L23.3657 26.8977L22.5467 27.0217C22.1772 27.0829 21.862 27.3512 21.7464 27.7034C21.622 28.0729 21.7267 28.4839 22.0013 28.7408L22.5822 29.3143ZM31.1076 36.4333L28.4776 32.9328C28.358 32.7728 28.1584 32.6977 27.9598 32.7436C27.7652 32.7886 27.615 32.9437 27.5765 33.1398C27.5439 33.3073 27.4856 33.4258 27.4214 33.4634C27.2979 33.533 26.9017 33.5054 26.2071 32.9679C26.0827 32.8716 25.9167 32.837 25.7675 32.8795C25.6144 32.9205 25.4899 33.0302 25.4296 33.1764C25.1401 33.8853 24.8131 34.2078 24.6333 34.2078C24.4535 34.2078 24.1265 33.8853 23.837 33.1764C23.7767 33.0301 23.6522 32.9205 23.4991 32.8795C23.3479 32.837 23.1829 32.8716 23.0594 32.9679C22.3659 33.5049 21.9716 33.5335 21.8491 33.4653C21.781 33.4258 21.7227 33.3072 21.69 33.1398C21.6515 32.9437 21.5013 32.7886 21.3067 32.7436C21.1051 32.6977 20.9085 32.7728 20.789 32.9328L18.159 36.4333C18.0434 36.5864 18.0247 36.7914 18.1106 36.9633C18.1965 37.1347 18.3714 37.2429 18.5631 37.2429H20.2743L21.1457 38.9867C21.2237 39.1433 21.3779 39.2485 21.5527 39.2643C21.7159 39.2807 21.8925 39.2107 22.0032 39.0638L24.6332 35.5571L27.2633 39.0638C27.3742 39.2109 27.5509 39.2806 27.7138 39.2643C27.8887 39.2485 28.0428 39.1433 28.1208 38.9867L28.9923 37.2429H30.7035C30.8952 37.2429 31.07 37.1347 31.156 36.9633C31.2419 36.7914 31.2231 36.5864 31.1076 36.4333Z" fill="url(#paint1_linear_233_14500)"/>
<path d="M31.2095 28.6435C31.2095 28.2388 31.0072 27.6824 30.1066 27.1765C30.6327 26.2963 30.5317 25.7096 30.3293 25.3555C30.1269 25.0013 29.6413 24.6473 28.6296 24.6473C28.6498 23.6052 28.2755 23.15 27.9113 22.9375C27.5673 22.7453 26.9806 22.6441 26.1004 23.1702C25.5946 22.2698 25.0381 22 24.6334 22C24.2287 22 23.6723 22.2698 23.1665 23.1702C22.2863 22.6441 21.6995 22.7453 21.3454 22.9476C20.9913 23.15 20.617 23.6052 20.6372 24.6473C19.6255 24.6473 19.1399 25.0014 18.9274 25.3656C18.7352 25.7197 18.6341 26.3065 19.1602 27.1765C18.2597 27.6824 18.0574 28.2388 18.0574 28.6435C18.0574 29.0481 18.2597 29.6046 19.1602 30.1105C18.634 30.9906 18.7352 31.5774 18.9376 31.9315C19.1399 32.2856 19.6154 32.6599 20.6372 32.6397C20.6118 33.2981 20.7815 34.0146 21.3555 34.3495C21.7096 34.5416 22.2863 34.6429 23.1665 34.1168C23.6723 35.0172 24.2287 35.2195 24.6334 35.2195C25.0381 35.2195 25.5945 35.0172 26.1004 34.1168C26.9806 34.6429 27.5673 34.5416 27.9214 34.3394C28.4896 34.0182 28.6545 33.2868 28.6296 32.6397C29.6919 32.6599 30.1269 32.2856 30.3394 31.9214C30.5317 31.5673 30.6328 30.9805 30.1066 30.1105C31.0072 29.6046 31.2095 29.0481 31.2095 28.6435ZM26.9097 28.3804L26.1408 29.1392L26.323 30.2015C26.3533 30.3836 26.2724 30.5758 26.1206 30.6871C25.9584 30.8133 25.7479 30.8152 25.5946 30.7276L24.6335 30.2319L23.6723 30.7276C23.5105 30.8186 23.298 30.7984 23.1463 30.6871C22.9945 30.5758 22.9136 30.3836 22.9439 30.2015L23.1261 29.1392L22.3572 28.3804C22.2155 28.2489 22.1649 28.0466 22.2256 27.8645C22.2863 27.6824 22.4482 27.5509 22.6304 27.5205L23.7028 27.3586L24.1782 26.3975C24.3502 26.0536 24.9168 26.0536 25.0888 26.3975L25.5642 27.3586L26.6366 27.5205C26.8188 27.5509 26.9807 27.6824 27.0414 27.8645C27.1021 28.0466 27.0514 28.2489 26.9097 28.3804Z" fill="url(#paint2_linear_233_14500)"/>
</g>
<defs>
<linearGradient id="paint0_linear_233_14500" x1="17.9386" y1="34.1222" x2="17.9386" y2="1.42468e-05" gradientUnits="userSpaceOnUse">
<stop stop-color="#72F8F4"/>
<stop offset="1" stop-color="#23CAC5"/>
</linearGradient>
<linearGradient id="paint1_linear_233_14500" x1="24.6333" y1="39.2667" x2="24.6333" y2="25.6336" gradientUnits="userSpaceOnUse">
<stop stop-color="#A93AFF"/>
<stop offset="1" stop-color="#FF81FF"/>
</linearGradient>
<linearGradient id="paint2_linear_233_14500" x1="24.6334" y1="35.2195" x2="24.6334" y2="22" gradientUnits="userSpaceOnUse">
<stop stop-color="white"/>
<stop offset="1" stop-color="#FFF1FF"/>
</linearGradient>
<clipPath id="clip0_233_14500">
<rect width="34.1222" height="34.1222" fill="white" transform="translate(0.877441)"/>
</clipPath>
<clipPath id="clip1_233_14500">
<rect width="17.2667" height="17.2667" fill="white" transform="translate(15.9999 22)"/>
</clipPath>
</defs>
</svg>
