<svg width="35" height="35" viewBox="0 0 35 35" fill="none" xmlns="http://www.w3.org/2000/svg">
<g clip-path="url(#clip0_233_14515)">
<path d="M29.9347 5.43964C24.4013 5.43964 18.6669 0.310579 18.6102 0.259196C18.229 -0.086358 17.6481 -0.086358 17.267 0.259196C17.2099 0.310979 11.4905 5.43964 5.94248 5.43964C5.3904 5.43964 4.94281 5.88723 4.94281 6.43932V18.4113C4.94281 28.1097 12.1562 31.9851 17.582 34.0565C17.6969 34.1004 17.8177 34.1222 17.9386 34.1222C18.0595 34.1222 18.1803 34.1003 18.2951 34.0565C25.9029 31.1521 30.9344 26.6217 30.9344 18.4113V6.43932C30.9344 5.88723 30.4868 5.43964 29.9347 5.43964Z" fill="url(#paint0_linear_233_14515)"/>
</g>
<defs>
<linearGradient id="paint0_linear_233_14515" x1="17.9386" y1="34.1222" x2="17.9386" y2="1.42468e-05" gradientUnits="userSpaceOnUse">
<stop stop-color="#72F8F4"/>
<stop offset="1" stop-color="#23CAC5"/>
</linearGradient>
<clipPath id="clip0_233_14515">
<rect width="34.1222" height="34.1222" fill="white" transform="translate(0.877441)"/>
</clipPath>
</defs>
</svg>
