<svg xmlns="http://www.w3.org/2000/svg" viewBox="0 0 16 16.41"><defs><style>.cls-1{isolation:isolate;}.fcls-2{opacity:0.2;mix-blend-mode:multiply;}.cls-3{fill:#919aa3;}.cls-4{fill:#03fcf5;}</style></defs><g class="cls-1"><g id="Layer_2" data-name="Layer 2"><g id="Layer_1-2" data-name="Layer 1"><g class="cls-2"><path class="cls-3" d="M.15,9v6.82A.12.12,0,0,0,.3,16l15-3.55Z"/></g><path class="cls-4" d="M5.07.12A.09.09,0,0,0,5,0a.09.09,0,0,0-.12,0L.07,8.94h0l2.17.48Z"/><path class="cls-4" d="M16,12.4a.1.1,0,0,0,0-.09L5.71,0a.12.12,0,0,0-.1,0,.1.1,0,0,0-.07.07L2.66,9.52,16,12.42Z"/><path class="cls-4" d="M0,16.31a.08.08,0,0,0,.08.09h0a.1.1,0,0,0,.09-.07l2-6.56L0,9.31s0,0,0,0Z"/><path class="cls-4" d="M.68,16.38a.09.09,0,0,0,.07,0h0l15.1-3.58a.13.13,0,0,0,.06-.05L2.61,9.88l-2,6.4A.12.12,0,0,0,.68,16.38Z"/></g></g></g></svg>
