<svg width="18" height="15" viewBox="0 0 18 15" fill="none" xmlns="http://www.w3.org/2000/svg">
<g clip-path="url(#clip0_252_1087)">
<path d="M12.8834 4.58457C12.5724 4.40653 12.1726 4.40653 11.8172 4.58457L9.32933 6.05341L7.64117 6.98813L5.19777 8.45697C4.88679 8.63501 4.48696 8.63501 4.13156 8.45697L2.22127 7.2997C1.91029 7.12166 1.68816 6.76558 1.68816 6.36498V4.13947C1.68816 3.78338 1.86587 3.4273 2.22127 3.20475L4.13156 2.09199C4.44254 1.91395 4.84237 1.91395 5.19777 2.09199L7.10806 3.24926C7.41904 3.4273 7.64117 3.78338 7.64117 4.18398V5.65282L9.32933 4.67359V3.16024C9.32933 2.80415 9.15163 2.44807 8.79623 2.22552L5.2422 0.133531C4.93122 -0.0445104 4.53139 -0.0445104 4.17599 0.133531L0.533105 2.27003C0.177702 2.44807 0 2.80415 0 3.16024V7.34421C0 7.7003 0.177702 8.05638 0.533105 8.27893L4.13156 10.3709C4.44254 10.549 4.84237 10.549 5.19777 10.3709L7.64117 8.94659L9.32933 7.96736L11.7727 6.54303C12.0837 6.36498 12.4835 6.36498 12.8389 6.54303L14.7492 7.65579C15.0602 7.83383 15.2823 8.18991 15.2823 8.5905V10.816C15.2823 11.1721 15.1046 11.5282 14.7492 11.7507L12.8834 12.8635C12.5724 13.0415 12.1726 13.0415 11.8172 12.8635L9.90686 11.7507C9.59588 11.5727 9.37376 11.2166 9.37376 10.816V9.39169L7.68559 10.3709V11.8398C7.68559 12.1958 7.86329 12.5519 8.2187 12.7745L11.8172 14.8665C12.1281 15.0445 12.528 15.0445 12.8834 14.8665L16.4818 12.7745C16.7928 12.5964 17.0149 12.2404 17.0149 11.8398V7.61128C17.0149 7.25519 16.8372 6.89911 16.4818 6.67656L12.8834 4.58457Z" fill="#8247E5"/>
</g>
<defs>
<clipPath id="clip0_252_1087">
<rect width="17.0149" height="15" fill="white"/>
</clipPath>
</defs>
</svg>
