<?xml version="1.0" encoding="UTF-8"?>
<svg width="30px" height="30px" viewBox="0 0 30 30" version="1.1" xmlns="http://www.w3.org/2000/svg" xmlns:xlink="http://www.w3.org/1999/xlink">
    <!-- Generator: Sketch 63.1 (92452) - https://sketch.com -->
    <title>Group 72</title>
    <desc>Created with Sketch.</desc>
    <g id="wallet-new" stroke="none" stroke-width="1" fill="none" fill-rule="evenodd">
        <g id="1-copy" transform="translate(-161.000000, -378.000000)">
            <g id="Group-72" transform="translate(161.000000, 378.000000)">
                <g id="Group-71">
                    <path d="M20.0000585,28.7574556 C15.1632164,28.7574556 11.2281287,24.7757988 11.2281287,19.881716 C11.2281287,14.9876331 15.1632164,11.0059763 20.0000585,11.0059763 C24.8369006,11.0059763 28.7719883,14.9876331 28.7719883,19.881716 C28.7719883,24.7757988 24.8369006,28.7574556 20.0000585,28.7574556 L20.0000585,28.7574556 Z M5.84795322,25.5621302 C5.00953216,25.5621302 4.32748538,24.8720118 4.32748538,24.0236686 C4.32748538,23.1753254 5.00953216,22.4852071 5.84795322,22.4852071 L10.3968421,22.4852071 C10.6919298,23.5984024 11.1712865,24.635858 11.7999415,25.5621302 L5.84795322,25.5621302 Z M5.84795322,18.2248521 L10.194152,18.2248521 C10.1054386,18.7640828 10.058538,19.3173964 10.058538,19.881716 C10.058538,20.3637278 10.0929825,20.8376923 10.1580702,21.3017751 L5.84795322,21.3017751 C5.00953216,21.3017751 4.32748538,20.6116568 4.32748538,19.7633136 C4.32748538,18.9149704 5.00953216,18.2248521 5.84795322,18.2248521 L5.84795322,18.2248521 Z M5.84795322,13.964497 L11.9657895,13.964497 C11.3019298,14.8847929 10.788655,15.9227811 10.4626901,17.0414201 L5.84795322,17.0414201 C5.00953216,17.0414201 4.32748538,16.3513018 4.32748538,15.5029586 C4.32748538,14.6546746 5.00953216,13.964497 5.84795322,13.964497 L5.84795322,13.964497 Z M5.84795322,9.70414201 L20.1754386,9.70414201 C20.4109942,9.70414201 20.6365497,9.75952663 20.8388889,9.85869822 C20.5622807,9.8352071 20.2826316,9.82254438 20.0000585,9.82254438 C17.2547368,9.82254438 14.765848,10.9544379 12.9650292,12.7810651 L5.84795322,12.7810651 C5.00959064,12.7810651 4.32748538,12.0908876 4.32748538,11.2426036 C4.32748538,10.3943195 5.00959064,9.70414201 5.84795322,9.70414201 L5.84795322,9.70414201 Z M2.69005848,4.26035503 C1.85163743,4.26035503 1.16959064,3.57017751 1.16959064,2.72189349 C1.16959064,1.87360947 1.85163743,1.18343195 2.69005848,1.18343195 L17.0175439,1.18343195 C17.8559649,1.18343195 18.5380117,1.87360947 18.5380117,2.72189349 C18.5380117,3.57017751 17.8559649,4.26035503 17.0175439,4.26035503 L2.69005848,4.26035503 Z M23.9181287,5.44378698 C24.7565497,5.44378698 25.4385965,6.1339645 25.4385965,6.98224852 C25.4385965,7.83053254 24.7565497,8.52071006 23.9181287,8.52071006 L20.1754386,8.52071006 L9.59064327,8.52071006 C8.75222222,8.52071006 8.07017544,7.83053254 8.07017544,6.98224852 C8.07017544,6.1339645 8.75222222,5.44378698 9.59064327,5.44378698 L23.9181287,5.44378698 Z M22.6554971,10.1874556 C22.5843275,10.015858 22.4971345,9.85414201 22.3956725,9.70414201 L23.9181287,9.70414201 C25.4014035,9.70414201 26.6081871,8.48307692 26.6081871,6.98224852 C26.6081871,5.48142012 25.4014035,4.26035503 23.9181287,4.26035503 L19.2350877,4.26035503 C19.532807,3.82236686 19.7076023,3.29248521 19.7076023,2.72189349 C19.7076023,1.22106509 18.5008187,-5.68434189e-14 17.0175439,-5.68434189e-14 L2.69005848,-5.68434189e-14 C1.20678363,-5.68434189e-14 0,1.22106509 0,2.72189349 C0,4.22272189 1.20678363,5.44378698 2.69005848,5.44378698 L7.37309942,5.44378698 C7.07538012,5.88177515 6.9005848,6.4116568 6.9005848,6.98224852 C6.9005848,7.55284024 7.07532164,8.08272189 7.37309942,8.52071006 L5.84795322,8.52071006 C4.36467836,8.52071006 3.15789474,9.74177515 3.15789474,11.2426036 C3.15789474,12.1045562 3.55637427,12.8737278 4.17631579,13.3727811 C3.55637427,13.8718343 3.15789474,14.6410059 3.15789474,15.5029586 C3.15789474,16.3649112 3.55637427,17.1340828 4.17631579,17.6331361 C3.55637427,18.1321893 3.15789474,18.9013609 3.15789474,19.7633136 C3.15789474,20.6252663 3.55637427,21.3944379 4.17631579,21.8934911 C3.55637427,22.3925444 3.15789474,23.161716 3.15789474,24.0236686 C3.15789474,25.524497 4.36467836,26.7455621 5.84795322,26.7455621 L12.7397661,26.7455621 C14.5553216,28.7104734 17.1381871,29.9408876 20.0000585,29.9408876 C25.4818129,29.9408876 29.9415789,25.4283432 29.9415789,19.881716 C29.9415789,15.2653254 26.8521053,11.365858 22.6554971,10.1874556 L22.6554971,10.1874556 Z" id="Fill-1" fill="#FFFFFF"></path>
                    <path d="M17.0014971,21.529213 C16.9644795,21.6748343 16.8453567,21.7101006 16.7368772,21.6074379 L14.6248304,19.6132959 C14.516117,19.5108107 14.540152,19.3811657 14.6781637,19.325426 L17.6407368,18.1272012 C17.7786901,18.0714024 17.8612632,18.1448935 17.8242456,18.2904556 L17.0014971,21.529213 Z" id="Fill-3" fill="#FFFFFF"></path>
                    <path d="M15.2563626,23.4243254 C15.1437895,23.522432 15.0300468,23.4817811 15.0035556,23.3338521 L14.4247251,20.093142 C14.3983509,19.9452722 14.4656023,19.9081124 14.5741988,20.0106568 L16.5841988,21.9085266 C16.6928538,22.011071 16.6895789,22.1752722 16.5770058,22.2733787 L15.2563626,23.4243254 Z" id="Fill-5" fill="#FFFFFF"></path>
                    <path d="M17.6810351,17.4820296 C17.7779942,17.5959349 17.7444269,17.7348107 17.6065906,17.7906095 L14.6603918,18.9822663 C14.5224386,19.0380059 14.4519123,18.9683018 14.5037251,18.827355 L15.7134912,15.5375325 C15.7653041,15.396645 15.887,15.3745148 15.9839591,15.4884201 L17.6810351,17.4820296 Z" id="Fill-7" fill="#FFFFFF"></path>
                    <path d="M14.5945848,22.8733491 C14.6210175,23.0212189 14.5765146,23.0390296 14.4958129,22.9128166 L13.3532982,21.1274911 C13.272538,21.0013373 13.2792632,20.799503 13.3680351,20.6790888 L13.8783275,19.9873728 C13.9671579,19.8668402 14.0614269,19.8892663 14.0879181,20.0371953 L14.5945848,22.8733491 Z" id="Fill-9" fill="#FFFFFF"></path>
                    <path d="M14.234883,18.6255325 C14.1830702,18.7663609 14.1022515,18.7648817 14.0552924,18.6223373 L13.665117,17.4375444 C13.6180994,17.2949408 13.6697953,17.0956509 13.7798538,16.994645 L15.1710234,15.718787 C15.2811404,15.6178402 15.3288012,15.6505621 15.2769883,15.7914497 L14.234883,18.6255325 Z" id="Fill-11" fill="#FFFFFF"></path>
                    <path d="M13.8677895,19.0824379 C13.914807,19.2251006 13.880538,19.4403077 13.7916491,19.5608402 L13.392,20.1026154 C13.3031696,20.2230888 13.2428772,20.1992426 13.2581404,20.0497751 L13.4497193,18.1688876 C13.464924,18.0193018 13.5159181,18.0136213 13.5628187,18.156284 L13.8677895,19.0824379 Z" id="Fill-13" fill="#FFFFFF"></path>
                    <path d="M15.4378538,14.8468107 C15.4873275,14.904858 15.4376784,15.0350355 15.3275614,15.1360414 L14.701655,15.7101834 C14.5914795,15.8111302 14.5738772,15.7949172 14.6625322,15.6743254 L15.1867427,14.9605385 C15.2753392,14.8398284 15.3883216,14.7887041 15.4378538,14.8468107" id="Fill-15" fill="#FFFFFF"></path>
                    <path d="M19.3869942,24.8571006 C19.3119649,24.9868639 19.181731,24.9917751 19.0976959,24.8678698 L17.4615556,22.4588166 C17.377345,22.3349704 17.4293918,22.2209467 17.5772281,22.205503 L20.8647135,21.8621893 C21.0124912,21.8468047 21.0720819,21.9402959 20.9970526,22.0700592 L19.3869942,24.8571006 Z" id="Fill-17" fill="#FFFFFF"></path>
                    <path d="M18.7018012,24.8595266 C18.7858947,24.9834911 18.7396374,25.0452071 18.5989942,24.9968639 L15.5172982,23.9373373 C15.376655,23.8889941 15.3536725,23.7690533 15.4663041,23.6709467 L16.7869474,22.52 C16.8995205,22.4218935 17.0605146,22.4429586 17.1446082,22.5668639 L18.7018012,24.8595266 Z" id="Fill-19" fill="#FFFFFF"></path>
                    <path d="M20.9331053,21.3024083 C21.0300643,21.4163136 20.9884269,21.5221716 20.8407076,21.5376154 L17.5045673,21.8859586 C17.356731,21.9014024 17.2660877,21.7948935 17.3031053,21.6492722 L18.1379591,18.3625858 C18.1749766,18.2169645 18.2846257,18.1910473 18.3815263,18.3049527 L20.9331053,21.3024083 Z" id="Fill-21" fill="#FFFFFF"></path>
                    <path d="M23.3307076,24.1189527 C23.4276667,24.2329172 23.3880175,24.3514379 23.2426374,24.3823846 L19.8478421,25.1054024 C19.702462,25.1363491 19.6448596,25.0555207 19.7197719,24.9257574 L21.3210585,22.1541598 C21.3959123,22.0244556 21.536614,22.0114379 21.6335731,22.1253432 L23.3307076,24.1189527 Z" id="Fill-23" fill="#FFFFFF"></path>
                    <path d="M17.8696667,25.967432 C17.738848,26.0384379 17.5405439,26.0152426 17.4291988,25.915716 L15.8535263,24.5078462 C15.7421813,24.4083195 15.7660994,24.3664852 15.9068012,24.4149467 L18.6037602,25.3422249 C18.7444035,25.3906272 18.7523567,25.4882604 18.6214795,25.5593846 L17.8696667,25.967432 Z" id="Fill-25" fill="#FFFFFF"></path>
                    <path d="M21.5318304,26.1013195 C21.4168012,26.1965266 21.214345,26.2186568 21.0820058,26.1504911 L19.9818304,25.5846331 C19.8494327,25.5164083 19.8600175,25.4353432 20.0053392,25.4044556 L22.9297251,24.7815562 C23.0751637,24.7506095 23.1000175,24.8031538 22.9851053,24.8983609 L21.5318304,26.1013195 Z" id="Fill-27" fill="#FFFFFF"></path>
                    <path d="M18.4685673,26.170716 C18.3201462,26.1637929 18.3058772,26.0999467 18.4367544,26.0288817 L19.0254678,25.7092959 C19.156462,25.6382308 19.3719006,25.6359231 19.5044152,25.7039704 L20.3642982,26.1463964 C20.4968129,26.214503 20.483655,26.2645621 20.3352339,26.2576982 L18.4685673,26.170716 Z" id="Fill-29" fill="#FFFFFF"></path>
                    <path d="M23.8768947,24.7605976 C23.9263684,24.818645 23.8595263,24.9242071 23.7284737,24.9949763 L22.953269,25.4136154 C22.8222164,25.4843846 22.809,25.464503 22.9239708,25.3692367 L23.5778889,24.8280533 C23.6929181,24.732787 23.8274211,24.7025503 23.8768947,24.7605976" id="Fill-31" fill="#FFFFFF"></path>
                    <path d="M21.9176608,21.2677988 C21.7797076,21.3235976 21.6971345,21.2501065 21.7340351,21.1044852 L22.5568421,17.865787 C22.5938012,17.7201657 22.7130409,17.6848402 22.8216374,17.787503 L24.9338012,19.781645 C25.0424561,19.8841893 25.0183626,20.013716 24.8804094,20.0695148 L21.9176608,21.2677988 Z" id="Fill-33" fill="#FFFFFF"></path>
                    <path d="M25.1337485,19.301787 C25.1601228,19.449716 25.0929298,19.4868166 24.9843333,19.3842722 L22.9741579,17.4863432 C22.8656199,17.3837988 22.8688363,17.2196568 22.9813509,17.1214911 L24.3019942,15.9705444 C24.4146257,15.8723787 24.5283684,15.9130888 24.5548596,16.0610769 L25.1337485,19.301787 Z" id="Fill-35" fill="#FFFFFF"></path>
                    <path d="M23.8448596,23.8575385 C23.7930468,23.9984852 23.6713509,24.020497 23.5743918,23.9065917 L21.8773158,21.9129822 C21.7802982,21.7990178 21.813924,21.660142 21.9518772,21.6044024 L24.8981345,20.4128047 C25.0360877,20.3570059 25.1065556,20.4266509 25.0546842,20.5675385 L23.8448596,23.8575385 Z" id="Fill-37" fill="#FFFFFF"></path>
                    <path d="M26.2052281,18.2672663 C26.2859298,18.3935385 26.2793801,18.5953136 26.1904327,18.715787 L25.6801988,19.4075621 C25.5913684,19.5280947 25.4970409,19.5056686 25.4705497,19.3576805 L24.963883,16.5215266 C24.9374503,16.3735385 24.9819532,16.3557278 25.0627135,16.4819408 L26.2052281,18.2672663 Z" id="Fill-39" fill="#FFFFFF"></path>
                    <path d="M25.8933567,21.9573432 C25.9403158,22.1000059 25.8886784,22.2992367 25.7786199,22.4001834 L24.3873333,23.6762781 C24.2772749,23.7771065 24.229614,23.7444438 24.2814269,23.6035562 L25.3237076,20.7694734 C25.375462,20.6285858 25.4562807,20.6299467 25.5031813,20.7726686 L25.8933567,21.9573432 Z" id="Fill-41" fill="#FFFFFF"></path>
                    <path d="M26.108883,21.2259586 C26.0935614,21.3754852 26.0427427,21.3811657 25.9957251,21.238503 L25.6907544,20.3125266 C25.6437953,20.1698639 25.6780643,19.9545976 25.7668947,19.8341834 L26.1664854,19.2922899 C26.2553743,19.1718757 26.3156667,19.1956036 26.3004035,19.3451302 L26.108883,21.2259586 Z" id="Fill-43" fill="#FFFFFF"></path>
                    <path d="M24.3716316,24.4344615 C24.2829766,24.5551124 24.1700526,24.6062959 24.1205789,24.5482485 C24.0711053,24.4900828 24.1206959,24.3599645 24.2308129,24.2590178 L24.8566608,23.6849349 C24.9668363,23.583929 24.9843801,23.6000828 24.8957251,23.7207929 L24.3716316,24.4344615 Z" id="Fill-45" fill="#FFFFFF"></path>
                    <path d="M22.096924,16.9360769 C22.181076,17.0599822 22.1289123,17.1740059 21.9811345,17.1894497 L18.6936491,17.5327633 C18.5458713,17.5482071 18.4863392,17.454716 18.5613099,17.3248935 L20.1716023,14.5378521 C20.2465731,14.4079704 20.376807,14.4031775 20.4609006,14.5270828 L22.096924,16.9360769 Z" id="Fill-47" fill="#FFFFFF"></path>
                    <path d="M22.7714386,16.8748817 C22.6588655,16.9729882 22.4979298,16.9519231 22.4137193,16.8279586 L20.8567602,14.535355 C20.7725497,14.4115089 20.8188655,14.3496746 20.9595673,14.3980178 L24.0410877,15.4575444 C24.1817895,15.5058876 24.2047135,15.6257692 24.0920819,15.7239349 L22.7714386,16.8748817 Z" id="Fill-49" fill="#FFFFFF"></path>
                    <path d="M21.4203567,21.0323846 C21.3832807,21.1780651 21.2737485,21.2039231 21.1767895,21.0900178 L18.625269,18.0925621 C18.5283099,17.978716 18.5698304,17.872858 18.7176667,17.8574142 L22.053807,17.5090118 C22.2015848,17.4935089 22.2922281,17.6000178 22.255269,17.7456982 L21.4203567,21.0323846 Z" id="Fill-51" fill="#6EC6D8"></path>
                    <path d="M18.2373918,17.2407751 C18.1624211,17.3705385 18.0217193,17.3835562 17.9247018,17.2695917 L16.2276842,15.2760414 C16.1307836,15.1621361 16.1703158,15.0436746 16.3157544,15.0127278 L19.7106082,14.2895917 C19.8561053,14.2585858 19.9136491,14.3394734 19.8387368,14.4692959 L18.2373918,17.2407751 Z" id="Fill-53" fill="#FFFFFF"></path>
                    <path d="M20.9548012,14.0527041 C20.8140994,14.0043018 20.8061462,13.9066686 20.9370819,13.8356036 L21.6888363,13.427497 C21.8197719,13.3563728 22.0179006,13.3796272 22.1293626,13.4790947 L23.7049181,14.8869645 C23.8163801,14.9864911 23.792345,15.0283254 23.6516433,14.9799822 L20.9548012,14.0527041 Z" id="Fill-55" fill="#FFFFFF"></path>
                    <path d="M16.6285731,14.6135089 C16.483193,14.6444556 16.4583392,14.5918521 16.5733099,14.4967041 L18.0266433,13.293568 C18.141614,13.1983609 18.3440702,13.1762308 18.4765263,13.2443964 L19.5766433,13.810432 C19.7091579,13.8784793 19.6985146,13.9596627 19.553193,13.9905503 L16.6285731,14.6135089 Z" id="Fill-57" fill="#FFFFFF"></path>
                    <path d="M20.5330526,13.6856272 C20.402117,13.7566923 20.1866784,13.7591183 20.0541637,13.6909527 L19.1941637,13.2484675 C19.0617076,13.1803018 19.074807,13.1302426 19.2232281,13.1371065 L21.0899532,13.2242071 C21.2384327,13.231071 21.2527602,13.2949172 21.1218246,13.3659822 L20.5330526,13.6856272 Z" id="Fill-59" fill="#FFFFFF"></path>
                    <path d="M15.9805614,14.5669586 C15.8654737,14.6621657 15.7309708,14.6925207 15.6815556,14.6344142 C15.6320234,14.5763077 15.698807,14.4708047 15.8299181,14.4000355 L16.6052982,13.9812189 C16.7363509,13.9103905 16.7494503,13.9303905 16.634538,14.0256568 L15.9805614,14.5669586 Z" id="Fill-61" fill="#FFFFFF"></path>
                    <path d="M14.9852632,24.0902367 C15.0426316,24.0401775 15.171345,24.090355 15.2711111,24.2017751 L15.838538,24.8352071 C15.9383041,24.946568 15.9223392,24.9643195 15.8030409,24.8747337 L15.0976608,24.3442012 C14.9784211,24.2546154 14.9278947,24.1402959 14.9852632,24.0902367" id="Fill-63" fill="#FFFFFF"></path>
                    <path d="M24.7831579,15.5512663 C24.8405263,15.5012663 24.9448538,15.5687811 25.0147368,15.7013846 L25.4284795,16.4858817 C25.4984795,16.6184852 25.4787719,16.6317988 25.3846784,16.5154083 L24.8497661,15.8538107 C24.7556725,15.7374793 24.7257895,15.6013254 24.7831579,15.5512663" id="Fill-65" fill="#FFFFFF"></path>
                    <path d="M24.4608363,15.0506746 C24.580076,15.1403195 24.6306023,15.2546391 24.5732339,15.3046982 C24.515807,15.3547574 24.387152,15.3045799 24.287386,15.1932189 L23.7200175,14.559787 C23.6202515,14.448426 23.6360994,14.4306154 23.7553977,14.5203787 L24.4608363,15.0506746 Z" id="Fill-67" fill="#FFFFFF"></path>
                    <path d="M14.7087427,23.5411065 C14.8027778,23.6574379 14.8327778,23.7936509 14.7753509,23.8435917 C14.717924,23.8936509 14.613655,23.8261361 14.5437719,23.6934734 L14.1297368,22.9089172 C14.0597953,22.7763136 14.0796199,22.763 14.173655,22.8793314 L14.7087427,23.5411065 Z" id="Fill-69" fill="#FFFFFF"></path>
                </g>
            </g>
        </g>
    </g>
</svg>