<?xml version="1.0" encoding="UTF-8"?>
<svg xmlns="http://www.w3.org/2000/svg" xmlns:xlink="http://www.w3.org/1999/xlink" width="24pt" height="24pt" viewBox="0 0 24 24" version="1.1">
<g id="surface1">
<path style=" stroke:none;fill-rule:evenodd;fill:rgb(100%,100%,100%);fill-opacity:1;" d="M 16 23.007812 C 12.128906 23.007812 8.984375 19.820312 8.984375 15.90625 C 8.984375 11.988281 12.128906 8.804688 16 8.804688 C 19.871094 8.804688 23.019531 11.988281 23.019531 15.90625 C 23.019531 19.820312 19.871094 23.007812 16 23.007812 Z M 4.679688 20.449219 C 4.007812 20.449219 3.460938 19.898438 3.460938 19.21875 C 3.460938 18.539062 4.007812 17.988281 4.679688 17.988281 L 8.316406 17.988281 C 8.554688 18.878906 8.9375 19.707031 9.441406 20.449219 Z M 4.679688 14.578125 L 8.15625 14.578125 C 8.085938 15.011719 8.046875 15.453125 8.046875 15.90625 C 8.046875 16.289062 8.074219 16.671875 8.125 17.042969 L 4.679688 17.042969 C 4.007812 17.042969 3.460938 16.488281 3.460938 15.8125 C 3.460938 15.132812 4.007812 14.578125 4.679688 14.578125 Z M 4.679688 11.171875 L 9.574219 11.171875 C 9.042969 11.90625 8.632812 12.738281 8.371094 13.632812 L 4.679688 13.632812 C 4.007812 13.632812 3.460938 13.082031 3.460938 12.402344 C 3.460938 11.722656 4.007812 11.171875 4.679688 11.171875 Z M 4.679688 7.761719 L 16.140625 7.761719 C 16.328125 7.761719 16.507812 7.808594 16.671875 7.886719 C 16.449219 7.867188 16.226562 7.859375 16 7.859375 C 13.804688 7.859375 11.8125 8.761719 10.371094 10.226562 L 4.679688 10.226562 C 4.007812 10.226562 3.460938 9.671875 3.460938 8.992188 C 3.460938 8.316406 4.007812 7.761719 4.679688 7.761719 Z M 2.152344 3.410156 C 1.480469 3.410156 0.9375 2.855469 0.9375 2.175781 C 0.9375 1.5 1.480469 0.945312 2.152344 0.945312 L 13.613281 0.945312 C 14.285156 0.945312 14.832031 1.5 14.832031 2.175781 C 14.832031 2.855469 14.285156 3.410156 13.613281 3.410156 Z M 19.132812 4.355469 C 19.804688 4.355469 20.351562 4.90625 20.351562 5.585938 C 20.351562 6.265625 19.804688 6.816406 19.132812 6.816406 L 7.671875 6.816406 C 7 6.816406 6.457031 6.265625 6.457031 5.585938 C 6.457031 4.90625 7 4.355469 7.671875 4.355469 Z M 18.125 8.148438 C 18.066406 8.011719 17.996094 7.882812 17.917969 7.761719 L 19.132812 7.761719 C 20.320312 7.761719 21.285156 6.785156 21.285156 5.585938 C 21.285156 4.386719 20.320312 3.410156 19.132812 3.410156 L 15.386719 3.410156 C 15.625 3.058594 15.765625 2.632812 15.765625 2.175781 C 15.765625 0.976562 14.800781 0 13.613281 0 L 2.152344 0 C 0.964844 0 0 0.976562 0 2.175781 C 0 3.378906 0.964844 4.355469 2.152344 4.355469 L 5.898438 4.355469 C 5.660156 4.707031 5.519531 5.128906 5.519531 5.585938 C 5.519531 6.042969 5.660156 6.464844 5.898438 6.816406 L 4.679688 6.816406 C 3.492188 6.816406 2.527344 7.792969 2.527344 8.992188 C 2.527344 9.683594 2.84375 10.300781 3.339844 10.699219 C 2.84375 11.097656 2.527344 11.710938 2.527344 12.402344 C 2.527344 13.09375 2.84375 13.707031 3.339844 14.105469 C 2.84375 14.503906 2.527344 15.121094 2.527344 15.8125 C 2.527344 16.5 2.84375 17.117188 3.339844 17.515625 C 2.84375 17.914062 2.527344 18.53125 2.527344 19.21875 C 2.527344 20.417969 3.492188 21.394531 4.679688 21.394531 L 10.191406 21.394531 C 11.644531 22.96875 13.710938 23.953125 16 23.953125 C 20.386719 23.953125 23.953125 20.34375 23.953125 15.90625 C 23.953125 12.210938 21.480469 9.09375 18.125 8.148438 Z M 18.125 8.148438 "/>
<path style=" stroke:none;fill-rule:evenodd;fill:rgb(100%,100%,100%);fill-opacity:1;" d="M 13.601562 17.222656 C 13.570312 17.339844 13.476562 17.367188 13.390625 17.285156 L 11.699219 15.691406 C 11.613281 15.609375 11.632812 15.503906 11.742188 15.460938 L 14.113281 14.5 C 14.222656 14.457031 14.289062 14.515625 14.257812 14.632812 Z M 13.601562 17.222656 "/>
<path style=" stroke:none;fill-rule:evenodd;fill:rgb(100%,100%,100%);fill-opacity:1;" d="M 12.207031 18.738281 C 12.113281 18.816406 12.023438 18.785156 12.003906 18.667969 L 11.539062 16.074219 C 11.519531 15.957031 11.574219 15.925781 11.660156 16.007812 L 13.265625 17.527344 C 13.355469 17.609375 13.351562 17.738281 13.261719 17.820312 Z M 12.207031 18.738281 "/>
<path style=" stroke:none;fill-rule:evenodd;fill:rgb(100%,100%,100%);fill-opacity:1;" d="M 14.144531 13.984375 C 14.222656 14.078125 14.195312 14.1875 14.085938 14.234375 L 11.726562 15.1875 C 11.617188 15.230469 11.5625 15.175781 11.601562 15.0625 L 12.570312 12.429688 C 12.613281 12.316406 12.710938 12.300781 12.789062 12.390625 Z M 14.144531 13.984375 "/>
<path style=" stroke:none;fill-rule:evenodd;fill:rgb(100%,100%,100%);fill-opacity:1;" d="M 11.675781 18.296875 C 11.695312 18.417969 11.660156 18.429688 11.597656 18.332031 L 10.683594 16.902344 C 10.617188 16.800781 10.625 16.640625 10.695312 16.542969 L 11.101562 15.988281 C 11.171875 15.894531 11.25 15.910156 11.269531 16.03125 Z M 11.675781 18.296875 "/>
<path style=" stroke:none;fill-rule:evenodd;fill:rgb(100%,100%,100%);fill-opacity:1;" d="M 11.386719 14.902344 C 11.347656 15.011719 11.28125 15.011719 11.246094 14.898438 L 10.933594 13.949219 C 10.894531 13.835938 10.9375 13.675781 11.023438 13.597656 L 12.136719 12.574219 C 12.226562 12.496094 12.261719 12.519531 12.222656 12.632812 Z M 11.386719 14.902344 "/>
<path style=" stroke:none;fill-rule:evenodd;fill:rgb(100%,100%,100%);fill-opacity:1;" d="M 11.09375 15.265625 C 11.132812 15.378906 11.105469 15.550781 11.035156 15.648438 L 10.714844 16.082031 C 10.640625 16.179688 10.59375 16.160156 10.605469 16.039062 L 10.761719 14.535156 C 10.773438 14.414062 10.8125 14.410156 10.851562 14.523438 Z M 11.09375 15.265625 "/>
<path style=" stroke:none;fill-rule:evenodd;fill:rgb(100%,100%,100%);fill-opacity:1;" d="M 12.351562 11.878906 C 12.390625 11.925781 12.351562 12.027344 12.261719 12.109375 L 11.761719 12.566406 C 11.671875 12.648438 11.660156 12.636719 11.730469 12.539062 L 12.148438 11.96875 C 12.21875 11.871094 12.3125 11.832031 12.351562 11.878906 "/>
<path style=" stroke:none;fill-rule:evenodd;fill:rgb(100%,100%,100%);fill-opacity:1;" d="M 15.507812 19.886719 C 15.449219 19.988281 15.34375 19.992188 15.277344 19.894531 L 13.96875 17.96875 C 13.902344 17.867188 13.945312 17.777344 14.0625 17.765625 L 16.691406 17.488281 C 16.808594 17.476562 16.859375 17.550781 16.796875 17.65625 Z M 15.507812 19.886719 "/>
<path style=" stroke:none;fill-rule:evenodd;fill:rgb(100%,100%,100%);fill-opacity:1;" d="M 14.960938 19.886719 C 15.027344 19.988281 14.992188 20.035156 14.878906 19.996094 L 12.414062 19.148438 C 12.300781 19.109375 12.28125 19.015625 12.371094 18.9375 L 13.429688 18.015625 C 13.519531 17.9375 13.648438 17.953125 13.714844 18.054688 Z M 14.960938 19.886719 "/>
<path style=" stroke:none;fill-rule:evenodd;fill:rgb(100%,100%,100%);fill-opacity:1;" d="M 16.746094 17.042969 C 16.824219 17.132812 16.789062 17.21875 16.671875 17.230469 L 14.003906 17.507812 C 13.886719 17.519531 13.8125 17.4375 13.84375 17.320312 L 14.511719 14.691406 C 14.539062 14.574219 14.628906 14.554688 14.707031 14.644531 Z M 16.746094 17.042969 "/>
<path style=" stroke:none;fill-rule:evenodd;fill:rgb(100%,100%,100%);fill-opacity:1;" d="M 18.664062 19.296875 C 18.742188 19.386719 18.710938 19.480469 18.59375 19.507812 L 15.878906 20.085938 C 15.761719 20.109375 15.714844 20.042969 15.777344 19.941406 L 17.058594 17.722656 C 17.117188 17.621094 17.230469 17.609375 17.308594 17.699219 Z M 18.664062 19.296875 "/>
<path style=" stroke:none;fill-rule:evenodd;fill:rgb(100%,100%,100%);fill-opacity:1;" d="M 14.296875 20.773438 C 14.191406 20.832031 14.03125 20.8125 13.941406 20.734375 L 12.683594 19.605469 C 12.59375 19.527344 12.613281 19.492188 12.726562 19.53125 L 14.882812 20.273438 C 14.996094 20.3125 15 20.390625 14.898438 20.449219 Z M 14.296875 20.773438 "/>
<path style=" stroke:none;fill-rule:evenodd;fill:rgb(100%,100%,100%);fill-opacity:1;" d="M 17.226562 20.882812 C 17.132812 20.957031 16.972656 20.976562 16.867188 20.921875 L 15.984375 20.46875 C 15.878906 20.414062 15.886719 20.347656 16.003906 20.324219 L 18.34375 19.824219 C 18.460938 19.800781 18.480469 19.84375 18.386719 19.917969 Z M 17.226562 20.882812 "/>
<path style=" stroke:none;fill-rule:evenodd;fill:rgb(100%,100%,100%);fill-opacity:1;" d="M 14.773438 20.9375 C 14.65625 20.929688 14.644531 20.878906 14.75 20.824219 L 15.21875 20.566406 C 15.324219 20.511719 15.496094 20.507812 15.605469 20.5625 L 16.292969 20.917969 C 16.398438 20.972656 16.386719 21.011719 16.269531 21.007812 Z M 14.773438 20.9375 "/>
<path style=" stroke:none;fill-rule:evenodd;fill:rgb(100%,100%,100%);fill-opacity:1;" d="M 19.101562 19.808594 C 19.140625 19.855469 19.085938 19.9375 18.984375 19.996094 L 18.363281 20.332031 C 18.257812 20.386719 18.246094 20.371094 18.339844 20.296875 L 18.863281 19.863281 C 18.953125 19.785156 19.0625 19.761719 19.101562 19.808594 "/>
<path style=" stroke:none;fill-rule:evenodd;fill:rgb(100%,100%,100%);fill-opacity:1;" d="M 17.535156 17.015625 C 17.421875 17.058594 17.359375 17 17.386719 16.882812 L 18.046875 14.292969 C 18.074219 14.175781 18.171875 14.148438 18.257812 14.230469 L 19.945312 15.824219 C 20.035156 15.90625 20.015625 16.011719 19.90625 16.054688 Z M 17.535156 17.015625 "/>
<path style=" stroke:none;fill-rule:evenodd;fill:rgb(100%,100%,100%);fill-opacity:1;" d="M 20.105469 15.441406 C 20.128906 15.558594 20.074219 15.589844 19.988281 15.507812 L 18.378906 13.988281 C 18.292969 13.90625 18.296875 13.777344 18.386719 13.695312 L 19.441406 12.777344 C 19.53125 12.699219 19.621094 12.730469 19.644531 12.847656 Z M 20.105469 15.441406 "/>
<path style=" stroke:none;fill-rule:evenodd;fill:rgb(100%,100%,100%);fill-opacity:1;" d="M 19.074219 19.085938 C 19.035156 19.199219 18.9375 19.214844 18.859375 19.125 L 17.5 17.53125 C 17.425781 17.4375 17.449219 17.328125 17.5625 17.285156 L 19.917969 16.332031 C 20.027344 16.285156 20.085938 16.339844 20.042969 16.453125 Z M 19.074219 19.085938 "/>
<path style=" stroke:none;fill-rule:evenodd;fill:rgb(100%,100%,100%);fill-opacity:1;" d="M 20.964844 14.613281 C 21.027344 14.714844 21.023438 14.875 20.953125 14.972656 L 20.542969 15.527344 C 20.472656 15.621094 20.398438 15.605469 20.375 15.484375 L 19.972656 13.21875 C 19.949219 13.097656 19.984375 13.085938 20.050781 13.1875 Z M 20.964844 14.613281 "/>
<path style=" stroke:none;fill-rule:evenodd;fill:rgb(100%,100%,100%);fill-opacity:1;" d="M 20.714844 17.566406 C 20.753906 17.679688 20.710938 17.839844 20.621094 17.921875 L 19.511719 18.941406 C 19.421875 19.023438 19.382812 18.996094 19.425781 18.882812 L 20.257812 16.617188 C 20.300781 16.503906 20.363281 16.503906 20.402344 16.617188 Z M 20.714844 17.566406 "/>
<path style=" stroke:none;fill-rule:evenodd;fill:rgb(100%,100%,100%);fill-opacity:1;" d="M 20.886719 16.980469 C 20.875 17.101562 20.835938 17.105469 20.796875 16.992188 L 20.550781 16.25 C 20.515625 16.136719 20.542969 15.964844 20.613281 15.867188 L 20.933594 15.433594 C 21.003906 15.335938 21.050781 15.355469 21.039062 15.476562 Z M 20.886719 16.980469 "/>
<path style=" stroke:none;fill-rule:evenodd;fill:rgb(100%,100%,100%);fill-opacity:1;" d="M 19.496094 19.546875 C 19.425781 19.644531 19.335938 19.683594 19.296875 19.636719 C 19.257812 19.59375 19.296875 19.488281 19.382812 19.40625 L 19.886719 18.949219 C 19.972656 18.867188 19.988281 18.878906 19.917969 18.976562 Z M 19.496094 19.546875 "/>
<path style=" stroke:none;fill-rule:evenodd;fill:rgb(100%,100%,100%);fill-opacity:1;" d="M 17.675781 13.550781 C 17.746094 13.648438 17.703125 13.738281 17.585938 13.75 L 14.953125 14.027344 C 14.835938 14.039062 14.789062 13.964844 14.847656 13.859375 L 16.136719 11.628906 C 16.195312 11.527344 16.300781 11.523438 16.367188 11.621094 Z M 17.675781 13.550781 "/>
<path style=" stroke:none;fill-rule:evenodd;fill:rgb(100%,100%,100%);fill-opacity:1;" d="M 18.21875 13.5 C 18.128906 13.578125 18 13.5625 17.929688 13.460938 L 16.683594 11.628906 C 16.617188 11.527344 16.65625 11.480469 16.769531 11.519531 L 19.234375 12.367188 C 19.34375 12.40625 19.363281 12.5 19.273438 12.578125 Z M 18.21875 13.5 "/>
<path style=" stroke:none;fill-rule:evenodd;fill:rgb(43.137255%,77.647059%,84.705882%);fill-opacity:1;" d="M 17.136719 16.824219 C 17.105469 16.941406 17.019531 16.964844 16.941406 16.871094 L 14.898438 14.472656 C 14.824219 14.382812 14.855469 14.296875 14.972656 14.285156 L 17.644531 14.007812 C 17.761719 13.996094 17.832031 14.078125 17.804688 14.195312 Z M 17.136719 16.824219 "/>
<path style=" stroke:none;fill-rule:evenodd;fill:rgb(100%,100%,100%);fill-opacity:1;" d="M 14.589844 13.792969 C 14.53125 13.894531 14.417969 13.90625 14.339844 13.816406 L 12.980469 12.222656 C 12.90625 12.128906 12.9375 12.035156 13.050781 12.011719 L 15.769531 11.433594 C 15.886719 11.40625 15.929688 11.472656 15.871094 11.574219 Z M 14.589844 13.792969 "/>
<path style=" stroke:none;fill-rule:evenodd;fill:rgb(100%,100%,100%);fill-opacity:1;" d="M 16.765625 11.242188 C 16.652344 11.203125 16.644531 11.125 16.75 11.070312 L 17.351562 10.742188 C 17.457031 10.683594 17.613281 10.703125 17.703125 10.785156 L 18.964844 11.910156 C 19.054688 11.988281 19.035156 12.023438 18.921875 11.984375 Z M 16.765625 11.242188 "/>
<path style=" stroke:none;fill-rule:evenodd;fill:rgb(100%,100%,100%);fill-opacity:1;" d="M 13.304688 11.691406 C 13.1875 11.714844 13.167969 11.671875 13.257812 11.597656 L 14.421875 10.636719 C 14.511719 10.558594 14.675781 10.539062 14.78125 10.59375 L 15.660156 11.046875 C 15.765625 11.101562 15.757812 11.167969 15.640625 11.191406 Z M 13.304688 11.691406 "/>
<path style=" stroke:none;fill-rule:evenodd;fill:rgb(100%,100%,100%);fill-opacity:1;" d="M 16.425781 10.949219 C 16.320312 11.003906 16.148438 11.007812 16.042969 10.953125 L 15.355469 10.597656 C 15.25 10.542969 15.261719 10.503906 15.378906 10.507812 L 16.871094 10.578125 C 16.992188 10.585938 17.003906 10.636719 16.898438 10.691406 Z M 16.425781 10.949219 "/>
<path style=" stroke:none;fill-rule:evenodd;fill:rgb(100%,100%,100%);fill-opacity:1;" d="M 12.785156 11.652344 C 12.691406 11.730469 12.585938 11.753906 12.546875 11.707031 C 12.503906 11.660156 12.558594 11.578125 12.664062 11.519531 L 13.285156 11.183594 C 13.390625 11.128906 13.398438 11.144531 13.308594 11.21875 Z M 12.785156 11.652344 "/>
<path style=" stroke:none;fill-rule:evenodd;fill:rgb(100%,100%,100%);fill-opacity:1;" d="M 11.988281 19.273438 C 12.035156 19.230469 12.136719 19.273438 12.21875 19.363281 L 12.671875 19.867188 C 12.75 19.957031 12.738281 19.972656 12.640625 19.898438 L 12.078125 19.476562 C 11.984375 19.402344 11.941406 19.3125 11.988281 19.273438 "/>
<path style=" stroke:none;fill-rule:evenodd;fill:rgb(100%,100%,100%);fill-opacity:1;" d="M 19.828125 12.441406 C 19.871094 12.402344 19.957031 12.453125 20.011719 12.5625 L 20.34375 13.1875 C 20.398438 13.292969 20.382812 13.304688 20.308594 13.210938 L 19.878906 12.683594 C 19.804688 12.589844 19.78125 12.480469 19.828125 12.441406 "/>
<path style=" stroke:none;fill-rule:evenodd;fill:rgb(100%,100%,100%);fill-opacity:1;" d="M 19.570312 12.039062 C 19.664062 12.113281 19.703125 12.203125 19.660156 12.242188 C 19.613281 12.285156 19.507812 12.242188 19.429688 12.15625 L 18.976562 11.648438 C 18.894531 11.558594 18.910156 11.542969 19.003906 11.617188 Z M 19.570312 12.039062 "/>
<path style=" stroke:none;fill-rule:evenodd;fill:rgb(100%,100%,100%);fill-opacity:1;" d="M 11.765625 18.832031 C 11.84375 18.925781 11.867188 19.035156 11.820312 19.074219 C 11.773438 19.113281 11.691406 19.0625 11.636719 18.953125 L 11.304688 18.328125 C 11.246094 18.222656 11.265625 18.210938 11.339844 18.304688 Z M 11.765625 18.832031 "/>
</g>
</svg>
