<?xml version="1.0" encoding="UTF-8"?>
<svg xmlns="http://www.w3.org/2000/svg" xmlns:xlink="http://www.w3.org/1999/xlink" width="24pt" height="24pt" viewBox="0 0 24 24" version="1.1">
<g id="surface1">
<path style=" stroke:none;fill-rule:nonzero;fill:rgb(100%,100%,100%);fill-opacity:1;" d="M 17.207031 0.386719 L 0.957031 0.386719 C 0.429688 0.386719 0 0.800781 0 1.3125 L 0 17.039062 C 0 17.550781 0.429688 17.964844 0.957031 17.964844 L 17.207031 17.964844 C 17.734375 17.964844 18.164062 17.550781 18.164062 17.039062 L 18.164062 1.3125 C 18.164062 0.800781 17.734375 0.386719 17.207031 0.386719 Z M 16.25 16.113281 L 1.910156 16.113281 L 1.910156 2.238281 L 16.25 2.238281 Z M 16.25 16.113281 "/>
<path style=" stroke:none;fill-rule:nonzero;fill:rgb(100%,100%,100%);fill-opacity:1;" d="M 22.269531 19.847656 L 22.269531 21.9375 L 20.109375 21.9375 L 20.109375 23.613281 L 23.136719 23.613281 C 23.613281 23.613281 24 23.238281 24 22.777344 L 24 19.847656 Z M 22.269531 19.847656 "/>
<path style=" stroke:none;fill-rule:nonzero;fill:rgb(100%,100%,100%);fill-opacity:1;" d="M 12.972656 20.472656 L 18.8125 20.472656 L 18.8125 23.613281 L 12.972656 23.613281 Z M 12.972656 20.472656 "/>
<path style=" stroke:none;fill-rule:nonzero;fill:rgb(100%,100%,100%);fill-opacity:1;" d="M 7.566406 21.9375 L 7.566406 19.847656 L 5.835938 19.847656 L 5.835938 22.777344 C 5.835938 23.238281 6.226562 23.613281 6.703125 23.613281 L 9.730469 23.613281 L 9.730469 21.9375 Z M 7.566406 21.9375 "/>
<path style=" stroke:none;fill-rule:nonzero;fill:rgb(100%,100%,100%);fill-opacity:1;" d="M 23.136719 6.035156 L 20.109375 6.035156 L 20.109375 7.710938 L 22.269531 7.710938 L 22.269531 9.804688 L 24 9.804688 L 24 6.875 C 24 6.410156 23.613281 6.035156 23.136719 6.035156 Z M 23.136719 6.035156 "/>
<path style=" stroke:none;fill-rule:nonzero;fill:rgb(100%,100%,100%);fill-opacity:1;" d="M 20.757812 12.941406 L 24 12.941406 L 24 18.589844 L 20.757812 18.589844 Z M 20.757812 12.941406 "/>
</g>
</svg>
