<svg xmlns="http://www.w3.org/2000/svg" viewBox="0 0 132.3 131.51"><defs><style>.cls-1{fill:#3e4e74;}.cls-2{fill:#546697;}.cls-3{fill:#5fc5d9;}</style></defs><g id="Layer_2" data-name="Layer 2"><g id="Layer_1-2" data-name="Layer 1"><path class="cls-1" d="M38,84.11a1.49,1.49,0,0,1-2.68.79l-21.42-20A1.6,1.6,0,0,1,14.42,62L44.47,50c1.4-.56,2.23.17,1.86,1.63Z"/><path class="cls-2" d="M20.29,103.11c-1.14,1-2.3.57-2.57-.91L11.85,69.72c-.26-1.48.42-1.85,1.52-.83l20.38,19a2.41,2.41,0,0,1-.07,3.66Z"/><path class="cls-2" d="M44.87,43.55a1.83,1.83,0,0,1-.75,3.09l-29.88,12c-1.4.55-2.11-.14-1.58-1.56l12.26-33a1.49,1.49,0,0,1,2.75-.49Z"/><path class="cls-2" d="M13.58,97.58c.26,1.49-.19,1.66-1,.4L1,80.09a4.25,4.25,0,0,1,.15-4.5l5.17-6.93c.9-1.21,1.86-1,2.13.5Z"/><path class="cls-2" d="M9.93,55c-.53,1.41-1.35,1.4-1.82,0l-4-11.87a4.58,4.58,0,0,1,1.16-4.44L19.42,25.88c1.12-1,1.6-.68,1.08.73Z"/><path class="cls-2" d="M6.21,59.59a5.87,5.87,0,0,1-.78,4.79l-4,5.43C.48,71-.13,70.78,0,69.28L2,50.43c.15-1.49.67-1.55,1.14-.12Z"/><path class="cls-2" d="M22.13,17.14c.5.58,0,1.89-1.12,2.9l-6.35,5.75c-1.12,1-1.29.85-.39-.36l5.31-7.15C20.48,17.07,21.63,16.56,22.13,17.14Z"/><path class="cls-2" d="M62.17,117.46a1.6,1.6,0,0,1-2.93.11L42.65,93.43a1.49,1.49,0,0,1,1.17-2.54l33.34-3.44c1.5-.16,2.1.78,1.34,2.08Z"/><path class="cls-2" d="M55.23,117.49c.85,1.24.38,1.86-1,1.38L22.93,108.25c-1.42-.49-1.66-1.69-.51-2.67L35.81,94a2.42,2.42,0,0,1,3.63.47Z"/><path class="cls-3" d="M77.85,81.84c1,1.14.56,2.2-.93,2.36L43.09,87.69A1.79,1.79,0,0,1,41,85.32l8.47-32.94c.37-1.46,1.49-1.72,2.47-.58Z"/><path class="cls-2" d="M102.17,110.07a1.49,1.49,0,0,1-.9,2.64L66.85,120c-1.48.31-2.06-.5-1.3-1.8L81.79,90.38A1.83,1.83,0,0,1,85,90.09Z"/><path class="cls-2" d="M46.79,128.59a4.24,4.24,0,0,1-4.47-.52L26.34,114c-1.13-1-.88-1.41.54-.93l27.35,9.3c1.43.48,1.51,1.46.18,2.17Z"/><path class="cls-2" d="M83.92,129.93a4.56,4.56,0,0,1-4.56.5l-11.15-5.67c-1.35-.69-1.24-1.5.24-1.81l29.65-6.24c1.47-.31,1.73.21.56,1.17Z"/><path class="cls-2" d="M52.86,130.63c-1.5-.07-1.65-.71-.32-1.42l6-3.2a5.89,5.89,0,0,1,4.86-.06l8.71,4.44c1.35.68,1.22,1.18-.29,1.11Z"/><path class="cls-2" d="M107.7,116.5c.51.58-.17,1.64-1.5,2.35L98.34,123c-1.33.71-1.46.51-.3-.44l6.63-5.43C105.84,116.22,107.2,115.91,107.7,116.5Z"/><path class="cls-1" d="M87.84,81.49c-1.4.56-2.24-.18-1.86-1.63L94.32,47.4A1.49,1.49,0,0,1,97,46.61l21.42,20a1.6,1.6,0,0,1-.54,2.88Z"/><path class="cls-2" d="M120.45,61.79c.27,1.48-.41,1.85-1.51.83l-20.39-19a2.4,2.4,0,0,1,.07-3.65L112,28.4c1.14-1,2.29-.57,2.56.91Z"/><path class="cls-2" d="M107.38,107.45a1.48,1.48,0,0,1-2.74.49L87.43,88a1.83,1.83,0,0,1,.75-3.09l29.88-12c1.4-.56,2.11.14,1.59,1.55Z"/><path class="cls-2" d="M131.32,51.42a4.27,4.27,0,0,1-.15,4.5L126,62.85c-.9,1.21-1.86,1-2.12-.5l-5.14-28.42c-.27-1.49.18-1.67,1-.4Z"/><path class="cls-2" d="M128.15,88.4A4.55,4.55,0,0,1,127,92.84l-14.11,12.79c-1.11,1-1.6.68-1.07-.73l10.57-28.4c.52-1.41,1.34-1.4,1.82,0Z"/><path class="cls-2" d="M130.34,81.07c-.16,1.5-.67,1.56-1.15.13l-3.09-9.28a5.9,5.9,0,0,1,.77-4.8l4-5.43c.9-1.2,1.52-1,1.36.53Z"/><path class="cls-2" d="M112.72,113.23c-.9,1.21-2,1.72-2.54,1.14s0-1.89,1.11-2.9l6.35-5.75c1.12-1,1.3-.85.4.36Z"/><path class="cls-1" d="M89.65,38.08a1.49,1.49,0,0,1-1.17,2.54L55.14,44.06c-1.49.15-2.1-.78-1.34-2.08L70.13,14a1.6,1.6,0,0,1,2.93-.1Z"/><path class="cls-2" d="M96.49,37.47A2.4,2.4,0,0,1,92.87,37L77.08,14c-.85-1.24-.39-1.86,1-1.38l31.25,10.62c1.43.49,1.66,1.69.52,2.67Z"/><path class="cls-2" d="M82.79,79.13c-.37,1.46-1.48,1.72-2.47.58l-25.87-30c-1-1.14-.56-2.2.94-2.36l33.83-3.49a1.78,1.78,0,0,1,2,2.37Z"/><path class="cls-2" d="M50.52,41.13a1.84,1.84,0,0,1-3.17.29l-17.21-20A1.48,1.48,0,0,1,31,18.8l34.43-7.24c1.47-.31,2.05.5,1.3,1.8Z"/><path class="cls-2" d="M78.07,9.18c-1.42-.48-1.5-1.46-.18-2.17l7.63-4.09A4.23,4.23,0,0,1,90,3.43l16,14.11c1.13,1,.89,1.42-.54.94Z"/><path class="cls-2" d="M34.2,14.8c-1.47.31-1.72-.21-.56-1.17L48.38,1.57a4.59,4.59,0,0,1,4.56-.49L64.1,6.75c1.34.69,1.23,1.5-.24,1.81Z"/><path class="cls-2" d="M73.8,5.5a5.89,5.89,0,0,1-4.86.06L60.22,1.12C58.88.44,59-.06,60.51,0L79.44.88c1.51.07,1.65.71.33,1.42Z"/><path class="cls-2" d="M27.63,14.34c-1.17.95-2.53,1.25-3,.67s.17-1.64,1.5-2.35L34,8.47c1.33-.71,1.46-.51.29.44Z"/><path class="cls-2" d="M17.54,109.78c.58-.5,1.88,0,2.9,1.12l5.75,6.34c1,1.12.85,1.3-.36.4l-7.15-5.32C17.47,111.43,17,110.28,17.54,109.78Z"/><path class="cls-2" d="M116.89,24.2c.59-.5,1.64.18,2.35,1.51l4.2,7.86c.71,1.33.51,1.46-.45.29l-5.42-6.63C116.62,26.07,116.31,24.7,116.89,24.2Z"/><path class="cls-2" d="M113.63,19.18c1.21.9,1.72,2.05,1.14,2.55s-1.89,0-2.9-1.12l-5.76-6.35c-1-1.11-.85-1.29.36-.39Z"/><path class="cls-2" d="M14.73,104.28c1,1.16,1.26,2.53.68,3s-1.64-.18-2.35-1.51l-4.2-7.86c-.71-1.33-.51-1.46.45-.3Z"/></g></g></svg>