<?xml version="1.0" encoding="UTF-8"?>
<svg xmlns="http://www.w3.org/2000/svg" xmlns:xlink="http://www.w3.org/1999/xlink" width="24pt" height="24pt" viewBox="0 0 24 24" version="1.1">
<g id="surface1">
<path style=" stroke:none;fill-rule:nonzero;fill:rgb(24.313725%,30.588235%,45.490196%);fill-opacity:1;" d="M 6.894531 15.328125 C 6.886719 15.441406 6.808594 15.539062 6.699219 15.570312 C 6.589844 15.601562 6.476562 15.5625 6.40625 15.472656 L 2.523438 11.84375 C 2.425781 11.78125 2.375 11.664062 2.394531 11.550781 C 2.414062 11.4375 2.503906 11.34375 2.617188 11.320312 L 8.066406 9.140625 C 8.320312 9.039062 8.472656 9.171875 8.40625 9.4375 Z M 6.894531 15.328125 "/>
<path style=" stroke:none;fill-rule:nonzero;fill:rgb(32.941176%,40%,59.215686%);fill-opacity:1;" d="M 3.679688 18.777344 C 3.472656 18.957031 3.261719 18.878906 3.214844 18.613281 L 2.148438 12.71875 C 2.101562 12.449219 2.226562 12.382812 2.425781 12.570312 L 6.121094 16.015625 C 6.21875 16.101562 6.269531 16.222656 6.269531 16.351562 C 6.265625 16.476562 6.207031 16.597656 6.109375 16.679688 Z M 3.679688 18.777344 "/>
<path style=" stroke:none;fill-rule:nonzero;fill:rgb(32.941176%,40%,59.215686%);fill-opacity:1;" d="M 8.140625 7.972656 C 8.226562 8.054688 8.261719 8.175781 8.234375 8.292969 C 8.207031 8.40625 8.117188 8.5 8.003906 8.53125 L 2.582031 10.710938 C 2.328125 10.808594 2.199219 10.683594 2.296875 10.425781 L 4.519531 4.441406 C 4.539062 4.328125 4.628906 4.242188 4.738281 4.222656 C 4.851562 4.203125 4.960938 4.253906 5.019531 4.351562 Z M 8.140625 7.972656 "/>
<path style=" stroke:none;fill-rule:nonzero;fill:rgb(32.941176%,40%,59.215686%);fill-opacity:1;" d="M 2.464844 17.773438 C 2.511719 18.042969 2.429688 18.074219 2.28125 17.847656 L 0.179688 14.601562 C 0.0351562 14.34375 0.0429688 14.027344 0.207031 13.785156 L 1.148438 12.527344 C 1.308594 12.308594 1.484375 12.34375 1.53125 12.617188 Z M 2.464844 17.773438 "/>
<path style=" stroke:none;fill-rule:nonzero;fill:rgb(32.941176%,40%,59.215686%);fill-opacity:1;" d="M 1.800781 10.050781 C 1.707031 10.304688 1.554688 10.304688 1.472656 10.050781 L 0.746094 7.894531 C 0.667969 7.609375 0.746094 7.300781 0.957031 7.089844 L 3.523438 4.765625 C 3.726562 4.585938 3.8125 4.644531 3.71875 4.898438 Z M 1.800781 10.050781 "/>
<path style=" stroke:none;fill-rule:nonzero;fill:rgb(32.941176%,40%,59.215686%);fill-opacity:1;" d="M 1.125 10.882812 C 1.207031 11.179688 1.15625 11.496094 0.984375 11.75 L 0.257812 12.734375 C 0.0859375 12.953125 -0.0234375 12.910156 0 12.640625 L 0.363281 9.21875 C 0.390625 8.949219 0.484375 8.9375 0.570312 9.199219 Z M 1.125 10.882812 "/>
<path style=" stroke:none;fill-rule:nonzero;fill:rgb(32.941176%,40%,59.215686%);fill-opacity:1;" d="M 4.015625 3.179688 C 4.105469 3.285156 4.015625 3.523438 3.8125 3.707031 L 2.660156 4.75 C 2.457031 4.929688 2.425781 4.90625 2.589844 4.683594 L 3.550781 3.386719 C 3.714844 3.167969 3.921875 3.074219 4.015625 3.179688 Z M 4.015625 3.179688 "/>
<path style=" stroke:none;fill-rule:nonzero;fill:rgb(32.941176%,40%,59.215686%);fill-opacity:1;" d="M 11.277344 21.378906 C 11.234375 21.488281 11.132812 21.558594 11.019531 21.5625 C 10.902344 21.566406 10.796875 21.503906 10.746094 21.398438 L 7.738281 17.019531 C 7.65625 16.941406 7.636719 16.820312 7.683594 16.714844 C 7.730469 16.613281 7.835938 16.550781 7.949219 16.558594 L 13.996094 15.9375 C 14.269531 15.90625 14.378906 16.078125 14.242188 16.3125 Z M 11.277344 21.378906 "/>
<path style=" stroke:none;fill-rule:nonzero;fill:rgb(32.941176%,40%,59.215686%);fill-opacity:1;" d="M 10.019531 21.386719 C 10.171875 21.609375 10.089844 21.722656 9.835938 21.636719 L 4.160156 19.707031 C 3.902344 19.621094 3.859375 19.402344 4.066406 19.222656 L 6.496094 17.125 C 6.589844 17.039062 6.71875 17 6.84375 17.015625 C 6.972656 17.03125 7.085938 17.101562 7.15625 17.210938 Z M 10.019531 21.386719 "/>
<path style=" stroke:none;fill-rule:nonzero;fill:rgb(37.254902%,77.254902%,85.098039%);fill-opacity:1;" d="M 14.121094 14.917969 C 14.304688 15.125 14.222656 15.316406 13.953125 15.347656 L 7.816406 15.980469 C 7.699219 16.007812 7.578125 15.96875 7.5 15.878906 C 7.417969 15.789062 7.394531 15.660156 7.4375 15.550781 L 8.972656 9.574219 C 9.042969 9.308594 9.246094 9.261719 9.421875 9.46875 Z M 14.121094 14.917969 "/>
<path style=" stroke:none;fill-rule:nonzero;fill:rgb(32.941176%,40%,59.215686%);fill-opacity:1;" d="M 18.535156 20.039062 C 18.621094 20.109375 18.65625 20.226562 18.617188 20.335938 C 18.582031 20.441406 18.484375 20.515625 18.371094 20.519531 L 12.128906 21.839844 C 11.859375 21.898438 11.753906 21.75 11.890625 21.515625 L 14.835938 16.46875 C 14.886719 16.355469 14.992188 16.277344 15.113281 16.265625 C 15.234375 16.253906 15.351562 16.3125 15.417969 16.414062 Z M 18.535156 20.039062 "/>
<path style=" stroke:none;fill-rule:nonzero;fill:rgb(32.941176%,40%,59.215686%);fill-opacity:1;" d="M 8.488281 23.398438 C 8.222656 23.523438 7.90625 23.488281 7.675781 23.304688 L 4.777344 20.75 C 4.574219 20.570312 4.617188 20.496094 4.875 20.582031 L 9.835938 22.269531 C 10.097656 22.355469 10.113281 22.535156 9.871094 22.664062 Z M 8.488281 23.398438 "/>
<path style=" stroke:none;fill-rule:nonzero;fill:rgb(32.941176%,40%,59.215686%);fill-opacity:1;" d="M 15.222656 23.640625 C 14.984375 23.820312 14.667969 23.851562 14.394531 23.734375 L 12.375 22.703125 C 12.128906 22.578125 12.148438 22.433594 12.417969 22.375 L 17.796875 21.242188 C 18.0625 21.1875 18.109375 21.28125 17.898438 21.457031 Z M 15.222656 23.640625 "/>
<path style=" stroke:none;fill-rule:nonzero;fill:rgb(32.941176%,40%,59.215686%);fill-opacity:1;" d="M 9.589844 23.769531 C 9.316406 23.757812 9.289062 23.640625 9.53125 23.511719 L 10.621094 22.929688 C 10.898438 22.800781 11.21875 22.796875 11.5 22.917969 L 13.082031 23.726562 C 13.324219 23.847656 13.300781 23.9375 13.027344 23.925781 Z M 9.589844 23.769531 "/>
<path style=" stroke:none;fill-rule:nonzero;fill:rgb(32.941176%,40%,59.215686%);fill-opacity:1;" d="M 19.539062 21.207031 C 19.628906 21.3125 19.507812 21.503906 19.265625 21.632812 L 17.839844 22.382812 C 17.597656 22.511719 17.574219 22.476562 17.785156 22.304688 L 18.988281 21.320312 C 19.199219 21.15625 19.445312 21.097656 19.539062 21.207031 Z M 19.539062 21.207031 "/>
<path style=" stroke:none;fill-rule:nonzero;fill:rgb(24.313725%,30.588235%,45.490196%);fill-opacity:1;" d="M 15.933594 14.855469 C 15.679688 14.957031 15.527344 14.820312 15.597656 14.558594 L 17.109375 8.671875 C 17.117188 8.558594 17.195312 8.460938 17.304688 8.429688 C 17.410156 8.398438 17.527344 8.4375 17.597656 8.527344 L 21.480469 12.15625 C 21.578125 12.21875 21.625 12.335938 21.605469 12.449219 C 21.582031 12.5625 21.496094 12.652344 21.382812 12.675781 Z M 15.933594 14.855469 "/>
<path style=" stroke:none;fill-rule:nonzero;fill:rgb(32.941176%,40%,59.215686%);fill-opacity:1;" d="M 21.851562 11.28125 C 21.898438 11.550781 21.777344 11.617188 21.578125 11.429688 L 17.878906 7.984375 C 17.78125 7.898438 17.730469 7.777344 17.730469 7.652344 C 17.734375 7.523438 17.792969 7.402344 17.890625 7.324219 L 20.316406 5.222656 C 20.523438 5.042969 20.734375 5.121094 20.78125 5.386719 Z M 21.851562 11.28125 "/>
<path style=" stroke:none;fill-rule:nonzero;fill:rgb(32.941176%,40%,59.215686%);fill-opacity:1;" d="M 19.480469 19.5625 C 19.460938 19.675781 19.375 19.761719 19.261719 19.78125 C 19.152344 19.800781 19.039062 19.75 18.980469 19.652344 L 15.859375 16.035156 C 15.773438 15.953125 15.738281 15.832031 15.765625 15.714844 C 15.792969 15.601562 15.882812 15.507812 15.996094 15.476562 L 21.417969 13.296875 C 21.671875 13.195312 21.800781 13.324219 21.707031 13.578125 Z M 19.480469 19.5625 "/>
<path style=" stroke:none;fill-rule:nonzero;fill:rgb(32.941176%,40%,59.215686%);fill-opacity:1;" d="M 23.820312 9.398438 C 23.96875 9.65625 23.957031 9.972656 23.796875 10.214844 L 22.855469 11.472656 C 22.695312 11.691406 22.519531 11.65625 22.472656 11.382812 L 21.539062 6.226562 C 21.492188 5.957031 21.574219 5.921875 21.722656 6.152344 Z M 23.820312 9.398438 "/>
<path style=" stroke:none;fill-rule:nonzero;fill:rgb(32.941176%,40%,59.215686%);fill-opacity:1;" d="M 23.246094 16.109375 C 23.328125 16.394531 23.25 16.703125 23.039062 16.914062 L 20.480469 19.234375 C 20.277344 19.414062 20.1875 19.355469 20.285156 19.101562 L 22.203125 13.949219 C 22.296875 13.695312 22.445312 13.695312 22.53125 13.949219 Z M 23.246094 16.109375 "/>
<path style=" stroke:none;fill-rule:nonzero;fill:rgb(32.941176%,40%,59.215686%);fill-opacity:1;" d="M 23.644531 14.777344 C 23.617188 15.050781 23.523438 15.0625 23.4375 14.800781 L 22.875 13.117188 C 22.792969 12.820312 22.84375 12.503906 23.015625 12.246094 L 23.742188 11.261719 C 23.902344 11.042969 24.015625 11.082031 23.988281 11.359375 Z M 23.644531 14.777344 "/>
<path style=" stroke:none;fill-rule:nonzero;fill:rgb(32.941176%,40%,59.215686%);fill-opacity:1;" d="M 20.449219 20.613281 C 20.285156 20.832031 20.085938 20.925781 19.988281 20.820312 C 19.890625 20.714844 19.988281 20.476562 20.1875 20.292969 L 21.339844 19.25 C 21.542969 19.070312 21.578125 19.09375 21.414062 19.316406 Z M 20.449219 20.613281 "/>
<path style=" stroke:none;fill-rule:nonzero;fill:rgb(24.313725%,30.588235%,45.490196%);fill-opacity:1;" d="M 16.261719 6.980469 C 16.34375 7.058594 16.363281 7.179688 16.316406 7.285156 C 16.269531 7.386719 16.164062 7.449219 16.050781 7.441406 L 10.003906 8.0625 C 9.734375 8.089844 9.621094 7.921875 9.757812 7.6875 L 12.722656 2.613281 C 12.765625 2.503906 12.867188 2.433594 12.980469 2.429688 C 13.097656 2.425781 13.203125 2.488281 13.253906 2.59375 Z M 16.261719 6.980469 "/>
<path style=" stroke:none;fill-rule:nonzero;fill:rgb(32.941176%,40%,59.215686%);fill-opacity:1;" d="M 17.503906 6.867188 C 17.410156 6.953125 17.28125 6.992188 17.15625 6.976562 C 17.03125 6.960938 16.917969 6.890625 16.847656 6.785156 L 13.984375 2.613281 C 13.828125 2.386719 13.910156 2.273438 14.164062 2.359375 L 19.832031 4.289062 C 20.09375 4.375 20.132812 4.59375 19.925781 4.773438 Z M 17.503906 6.867188 "/>
<path style=" stroke:none;fill-rule:nonzero;fill:rgb(32.941176%,40%,59.215686%);fill-opacity:1;" d="M 15.019531 14.425781 C 14.953125 14.691406 14.75 14.738281 14.570312 14.53125 L 9.878906 9.089844 C 9.695312 8.882812 9.777344 8.691406 10.046875 8.660156 L 16.183594 8.027344 C 16.300781 8.007812 16.417969 8.046875 16.492188 8.136719 C 16.566406 8.226562 16.589844 8.347656 16.546875 8.457031 Z M 15.019531 14.425781 "/>
<path style=" stroke:none;fill-rule:nonzero;fill:rgb(32.941176%,40%,59.215686%);fill-opacity:1;" d="M 9.164062 7.53125 C 9.113281 7.640625 9.011719 7.714844 8.890625 7.726562 C 8.773438 7.734375 8.660156 7.683594 8.589844 7.585938 L 5.46875 3.957031 C 5.382812 3.886719 5.347656 3.773438 5.382812 3.667969 C 5.417969 3.5625 5.511719 3.488281 5.625 3.480469 L 11.871094 2.167969 C 12.136719 2.113281 12.242188 2.257812 12.105469 2.496094 Z M 9.164062 7.53125 "/>
<path style=" stroke:none;fill-rule:nonzero;fill:rgb(32.941176%,40%,59.215686%);fill-opacity:1;" d="M 14.164062 1.738281 C 13.90625 1.648438 13.890625 1.472656 14.128906 1.34375 L 15.515625 0.601562 C 15.78125 0.472656 16.097656 0.507812 16.328125 0.695312 L 19.230469 3.253906 C 19.433594 3.433594 19.390625 3.511719 19.132812 3.425781 Z M 14.164062 1.738281 "/>
<path style=" stroke:none;fill-rule:nonzero;fill:rgb(32.941176%,40%,59.215686%);fill-opacity:1;" d="M 6.203125 2.757812 C 5.9375 2.8125 5.890625 2.71875 6.101562 2.542969 L 8.777344 0.355469 C 9.015625 0.179688 9.332031 0.148438 9.605469 0.265625 L 11.628906 1.296875 C 11.871094 1.421875 11.851562 1.566406 11.585938 1.625 Z M 6.203125 2.757812 "/>
<path style=" stroke:none;fill-rule:nonzero;fill:rgb(32.941176%,40%,59.215686%);fill-opacity:1;" d="M 13.386719 1.070312 C 13.109375 1.199219 12.789062 1.203125 12.507812 1.082031 L 10.925781 0.273438 C 10.679688 0.152344 10.703125 0.0625 10.976562 0.0703125 L 14.410156 0.230469 C 14.683594 0.242188 14.710938 0.359375 14.472656 0.488281 Z M 13.386719 1.070312 "/>
<path style=" stroke:none;fill-rule:nonzero;fill:rgb(32.941176%,40%,59.215686%);fill-opacity:1;" d="M 5.011719 2.671875 C 4.800781 2.84375 4.554688 2.898438 4.46875 2.792969 C 4.382812 2.6875 4.5 2.496094 4.738281 2.367188 L 6.167969 1.609375 C 6.410156 1.480469 6.433594 1.515625 6.21875 1.6875 Z M 5.011719 2.671875 "/>
<path style=" stroke:none;fill-rule:nonzero;fill:rgb(32.941176%,40%,59.215686%);fill-opacity:1;" d="M 3.183594 19.988281 C 3.285156 19.894531 3.523438 19.988281 3.707031 20.191406 L 4.75 21.339844 C 4.933594 21.542969 4.90625 21.574219 4.6875 21.414062 L 3.386719 20.445312 C 3.167969 20.285156 3.082031 20.078125 3.183594 19.988281 Z M 3.183594 19.988281 "/>
<path style=" stroke:none;fill-rule:nonzero;fill:rgb(32.941176%,40%,59.215686%);fill-opacity:1;" d="M 21.203125 4.460938 C 21.3125 4.371094 21.503906 4.496094 21.628906 4.734375 L 22.394531 6.160156 C 22.523438 6.402344 22.484375 6.425781 22.3125 6.214844 L 21.328125 5.011719 C 21.15625 4.800781 21.097656 4.550781 21.203125 4.460938 Z M 21.203125 4.460938 "/>
<path style=" stroke:none;fill-rule:nonzero;fill:rgb(32.941176%,40%,59.215686%);fill-opacity:1;" d="M 20.613281 3.550781 C 20.832031 3.714844 20.925781 3.921875 20.820312 4.011719 C 20.714844 4.105469 20.476562 4.011719 20.292969 3.808594 L 19.25 2.660156 C 19.066406 2.457031 19.09375 2.425781 19.3125 2.585938 Z M 20.613281 3.550781 "/>
<path style=" stroke:none;fill-rule:nonzero;fill:rgb(32.941176%,40%,59.215686%);fill-opacity:1;" d="M 2.671875 18.988281 C 2.851562 19.199219 2.902344 19.449219 2.796875 19.53125 C 2.691406 19.617188 2.496094 19.5 2.371094 19.257812 L 1.605469 17.832031 C 1.476562 17.59375 1.515625 17.566406 1.6875 17.777344 Z M 2.671875 18.988281 "/>
</g>
</svg>
