<?xml version="1.0" encoding="UTF-8"?>
<svg xmlns="http://www.w3.org/2000/svg" xmlns:xlink="http://www.w3.org/1999/xlink" width="24pt" height="24pt" viewBox="0 0 24 24" version="1.1">
<g id="surface1">
<path style=" stroke:none;fill-rule:nonzero;fill:rgb(100%,100%,100%);fill-opacity:1;" d="M 0 23.613281 L 10.9375 23.613281 L 10.9375 13.027344 L 0 13.027344 Z M 2.1875 15.144531 L 8.75 15.144531 L 8.75 21.480469 L 2.1875 21.480469 Z M 2.1875 15.144531 "/>
<path style=" stroke:none;fill-rule:nonzero;fill:rgb(100%,100%,100%);fill-opacity:1;" d="M 4.253906 17.4375 L 6.378906 17.4375 L 6.378906 19.496094 L 4.253906 19.496094 Z M 4.253906 17.4375 "/>
<path style=" stroke:none;fill-rule:nonzero;fill:rgb(100%,100%,100%);fill-opacity:1;" d="M 17.621094 21.554688 L 19.746094 21.554688 L 19.746094 23.613281 L 17.621094 23.613281 Z M 17.621094 21.554688 "/>
<path style=" stroke:none;fill-rule:nonzero;fill:rgb(100%,100%,100%);fill-opacity:1;" d="M 21.875 21.554688 L 24 21.554688 L 24 23.613281 L 21.875 23.613281 Z M 21.875 21.554688 "/>
<path style=" stroke:none;fill-rule:nonzero;fill:rgb(100%,100%,100%);fill-opacity:1;" d="M 21.8125 15.144531 L 19.625 15.144531 L 19.625 13.027344 L 13.0625 13.027344 L 13.0625 23.613281 L 15.25 23.613281 L 15.25 17.261719 L 17.4375 17.261719 L 17.4375 19.378906 L 24 19.378906 L 24 13.027344 L 21.8125 13.027344 Z M 21.8125 15.144531 "/>
<path style=" stroke:none;fill-rule:nonzero;fill:rgb(100%,100%,100%);fill-opacity:1;" d="M 0 10.972656 L 10.9375 10.972656 L 10.9375 0.386719 L 0 0.386719 Z M 2.1875 2.503906 L 8.75 2.503906 L 8.75 8.855469 L 2.1875 8.855469 Z M 2.1875 2.503906 "/>
<path style=" stroke:none;fill-rule:nonzero;fill:rgb(100%,100%,100%);fill-opacity:1;" d="M 4.253906 4.503906 L 6.378906 4.503906 L 6.378906 6.5625 L 4.253906 6.5625 Z M 4.253906 4.503906 "/>
<path style=" stroke:none;fill-rule:nonzero;fill:rgb(100%,100%,100%);fill-opacity:1;" d="M 13.0625 0.386719 L 13.0625 10.972656 L 24 10.972656 L 24 0.386719 Z M 21.8125 8.855469 L 15.25 8.855469 L 15.25 2.503906 L 21.8125 2.503906 Z M 21.8125 8.855469 "/>
<path style=" stroke:none;fill-rule:nonzero;fill:rgb(100%,100%,100%);fill-opacity:1;" d="M 17.621094 4.503906 L 19.746094 4.503906 L 19.746094 6.5625 L 17.621094 6.5625 Z M 17.621094 4.503906 "/>
</g>
</svg>
