<svg width="32" height="32" viewBox="0 0 32 32" fill="none" xmlns="http://www.w3.org/2000/svg">
<path d="M25.8774 9.35444L20.5944 8.58675L18.2317 3.79957C17.3195 1.95095 14.6807 1.95026 13.7681 3.79951L11.4054 8.58675L6.12232 9.35444C4.08232 9.65081 3.26639 12.1601 4.74301 13.5996L8.56588 17.326L7.66344 22.5876C7.31494 24.6192 9.44906 26.1708 11.2746 25.2113L15.9999 22.727L20.7252 25.2113C22.5529 26.172 24.684 24.6146 24.3362 22.5876L23.4338 17.326L27.2567 13.5996C28.7328 12.1606 27.9182 9.651 25.8774 9.35444Z" fill="white"/>
<path d="M8.4211 2.94691L7.14542 1.19116C6.79911 0.71466 6.13204 0.608973 5.65555 0.955285C5.17898 1.30153 5.07336 1.96859 5.41961 2.44516L6.69529 4.2009C7.04179 4.67765 7.70892 4.78296 8.18516 4.43678C8.66173 4.09059 8.76735 3.42347 8.4211 2.94691Z" fill="white"/>
<path d="M4.18728 18.6817C4.00522 18.1215 3.4036 17.8147 2.84322 17.9969L0.73729 18.6812C0.177041 18.8632 -0.129521 19.465 0.052479 20.0253C0.234854 20.5866 0.837727 20.8919 1.39654 20.7101L3.50253 20.0258C4.06278 19.8438 4.36935 19.242 4.18728 18.6817Z" fill="white"/>
<path d="M26.3454 0.955303C25.8689 0.608991 25.2018 0.714616 24.8555 1.19118L23.5798 2.94692C23.2335 3.42348 23.3392 4.09061 23.8157 4.43679C24.2925 4.78317 24.9594 4.67729 25.3056 4.20092L26.5813 2.44517C26.9276 1.96861 26.8219 1.30155 26.3454 0.955303Z" fill="white"/>
<path d="M31.2623 18.6813L29.1563 17.997C28.5961 17.8146 27.9943 18.1215 27.8123 18.6818C27.6302 19.242 27.9368 19.8438 28.4971 20.0258L30.6031 20.7101C31.1622 20.892 31.7648 20.5863 31.9471 20.0253C32.1291 19.4651 31.8226 18.8633 31.2623 18.6813Z" fill="white"/>
<path d="M16.0002 26.9504C15.4112 26.9504 14.9336 27.428 14.9336 28.0171V30.1819C14.9336 30.771 15.4112 31.2486 16.0002 31.2486C16.5893 31.2486 17.0668 30.771 17.0668 30.1819V28.0171C17.0669 27.428 16.5893 26.9504 16.0002 26.9504Z" fill="white"/>
</svg>
