<?xml version="1.0" encoding="UTF-8"?>
<svg xmlns="http://www.w3.org/2000/svg" xmlns:xlink="http://www.w3.org/1999/xlink" width="24pt" height="24pt" viewBox="0 0 24 24" version="1.1">
<g id="surface1">
<path style=" stroke:none;fill-rule:nonzero;fill:rgb(100%,100%,100%);fill-opacity:1;" d="M 21.914062 9.484375 C 22.355469 9.050781 22.511719 8.417969 22.320312 7.824219 C 22.128906 7.234375 21.632812 6.8125 21.019531 6.726562 L 15.675781 5.945312 C 15.570312 5.929688 15.480469 5.863281 15.433594 5.765625 L 13.042969 0.902344 C 12.769531 0.34375 12.21875 0 11.601562 0 C 10.984375 0 10.429688 0.34375 10.15625 0.902344 L 7.765625 5.765625 C 7.71875 5.863281 7.628906 5.929688 7.523438 5.945312 L 2.179688 6.726562 C 1.570312 6.8125 1.070312 7.234375 0.878906 7.824219 C 0.6875 8.417969 0.84375 9.050781 1.289062 9.484375 L 5.152344 13.273438 C 5.230469 13.347656 5.265625 13.453125 5.246094 13.558594 L 4.335938 18.90625 C 4.230469 19.519531 4.476562 20.125 4.976562 20.488281 C 5.472656 20.855469 6.125 20.902344 6.671875 20.613281 C 7.847656 19.992188 8.730469 19.523438 9.316406 19.214844 C 9.792969 18.964844 10.503906 18.589844 11.449219 18.085938 C 11.542969 18.039062 11.65625 18.039062 11.75 18.085938 L 16.53125 20.613281 C 16.765625 20.738281 17.023438 20.800781 17.28125 20.800781 C 17.613281 20.800781 17.941406 20.695312 18.226562 20.488281 C 18.726562 20.125 18.96875 19.519531 18.867188 18.90625 L 17.953125 13.558594 C 17.933594 13.453125 17.96875 13.347656 18.046875 13.273438 Z M 16.683594 13.777344 L 17.597656 19.125 C 17.625 19.304688 17.515625 19.40625 17.46875 19.441406 C 17.417969 19.476562 17.289062 19.550781 17.128906 19.464844 L 12.347656 16.941406 C 12.113281 16.816406 11.859375 16.753906 11.601562 16.753906 C 11.34375 16.753906 11.085938 16.816406 10.851562 16.941406 L 6.070312 19.464844 C 5.910156 19.550781 5.78125 19.476562 5.730469 19.441406 C 5.683594 19.40625 5.574219 19.304688 5.605469 19.125 L 6.515625 13.777344 C 6.605469 13.253906 6.433594 12.71875 6.054688 12.34375 L 2.1875 8.558594 C 2.058594 8.429688 2.085938 8.285156 2.105469 8.226562 C 2.125 8.167969 2.1875 8.03125 2.367188 8.007812 L 7.707031 7.226562 C 8.234375 7.148438 8.6875 6.816406 8.921875 6.339844 L 11.3125 1.476562 C 11.390625 1.3125 11.539062 1.292969 11.601562 1.292969 C 11.660156 1.292969 11.808594 1.3125 11.890625 1.476562 L 14.277344 6.339844 C 14.511719 6.816406 14.964844 7.148438 15.492188 7.226562 L 20.835938 8.007812 C 21.011719 8.03125 21.074219 8.167969 21.09375 8.226562 C 21.113281 8.285156 21.144531 8.429688 21.011719 8.558594 L 17.148438 12.34375 C 16.765625 12.71875 16.59375 13.253906 16.683594 13.777344 Z M 16.683594 13.777344 "/>
<path style=" stroke:none;fill-rule:nonzero;fill:rgb(43.137255%,77.647059%,84.705882%);fill-opacity:1;" d="M 18.984375 0.933594 C 18.75 0.707031 18.425781 0.777344 18.253906 1.085938 L 17.699219 2.097656 C 17.53125 2.410156 17.582031 2.84375 17.816406 3.066406 C 17.910156 3.15625 18.015625 3.199219 18.121094 3.199219 C 18.285156 3.199219 18.441406 3.101562 18.546875 2.914062 L 19.101562 1.902344 C 19.269531 1.589844 19.21875 1.15625 18.984375 0.933594 Z M 18.984375 0.933594 "/>
<path style=" stroke:none;fill-rule:nonzero;fill:rgb(43.137255%,77.647059%,84.705882%);fill-opacity:1;" d="M 6.300781 2.097656 L 5.746094 1.085938 C 5.574219 0.777344 5.25 0.707031 5.015625 0.933594 C 4.78125 1.15625 4.730469 1.589844 4.898438 1.902344 L 5.453125 2.914062 C 5.558594 3.101562 5.714844 3.199219 5.878906 3.199219 C 5.984375 3.199219 6.09375 3.15625 6.183594 3.066406 C 6.417969 2.84375 6.46875 2.410156 6.300781 2.097656 Z M 6.300781 2.097656 "/>
<path style=" stroke:none;fill-rule:nonzero;fill:rgb(43.137255%,77.647059%,84.705882%);fill-opacity:1;" d="M 2.367188 14.832031 C 2.257812 14.503906 1.894531 14.324219 1.554688 14.429688 L 0.445312 14.78125 C 0.105469 14.886719 -0.078125 15.238281 0.03125 15.566406 C 0.121094 15.832031 0.375 16 0.644531 16 C 0.710938 16 0.777344 15.988281 0.84375 15.96875 L 1.953125 15.621094 C 2.292969 15.511719 2.476562 15.160156 2.367188 14.832031 Z M 2.367188 14.832031 "/>
<path style=" stroke:none;fill-rule:nonzero;fill:rgb(43.137255%,77.647059%,84.705882%);fill-opacity:1;" d="M 12 21.601562 C 11.558594 21.601562 11.199219 21.882812 11.199219 22.230469 L 11.199219 23.371094 C 11.199219 23.71875 11.558594 24 12 24 C 12.441406 24 12.800781 23.71875 12.800781 23.371094 L 12.800781 22.230469 C 12.800781 21.882812 12.441406 21.601562 12 21.601562 Z M 12 21.601562 "/>
<path style=" stroke:none;fill-rule:nonzero;fill:rgb(43.137255%,77.647059%,84.705882%);fill-opacity:1;" d="M 23.554688 14.78125 L 22.445312 14.429688 C 22.105469 14.324219 21.742188 14.503906 21.632812 14.832031 C 21.523438 15.160156 21.707031 15.511719 22.046875 15.621094 L 23.15625 15.96875 C 23.222656 15.988281 23.289062 16 23.355469 16 C 23.625 16 23.878906 15.832031 23.96875 15.566406 C 24.078125 15.238281 23.894531 14.886719 23.554688 14.78125 Z M 23.554688 14.78125 "/>
</g>
</svg>
