<?xml version="1.0" encoding="UTF-8"?>
<svg xmlns="http://www.w3.org/2000/svg" xmlns:xlink="http://www.w3.org/1999/xlink" width="24pt" height="24pt" viewBox="0 0 24 24" version="1.1">
<g id="surface1">
<path style=" stroke:none;fill-rule:nonzero;fill:rgb(100%,100%,100%);fill-opacity:1;" d="M 0 0 L 0 18.40625 L 12 24 L 24 18.40625 L 24 0 Z M 23.074219 9.257812 L 12.464844 9.257812 L 12.464844 0.75 L 23.074219 0.75 Z M 11.535156 0.75 L 11.535156 9.257812 L 0.925781 9.257812 L 0.925781 0.75 Z M 0.925781 10.007812 L 11.535156 10.007812 L 11.535156 22.921875 L 0.925781 17.972656 Z M 12.464844 22.921875 L 12.464844 10.007812 L 23.074219 10.007812 L 23.074219 17.972656 Z M 12.464844 22.921875 "/>
<path style=" stroke:none;fill-rule:nonzero;fill:rgb(43.137255%,77.647059%,84.705882%);fill-opacity:1;" d="M 13.769531 1.699219 L 21.992188 1.699219 L 21.992188 8.304688 L 13.769531 8.304688 Z M 13.769531 1.699219 "/>
<path style=" stroke:none;fill-rule:nonzero;fill:rgb(43.137255%,77.647059%,84.705882%);fill-opacity:1;" d="M 10.230469 11.175781 L 2.007812 11.175781 L 2.007812 17.667969 L 10.230469 21.515625 Z M 10.230469 11.175781 "/>
</g>
</svg>
