<svg width="29" height="29" viewBox="0 0 29 29" fill="none" xmlns="http://www.w3.org/2000/svg">
<g clip-path="url(#clip0_678_5823)">
<path d="M14.4999 3.69727C14.2158 3.9133 10.3187 6.81269 5.32076 7.81343C4.66188 19.3467 14.4937 25.3177 14.4999 25.3143C14.5062 25.3177 24.3381 19.3467 23.6792 7.81313C18.681 6.81269 14.4999 3.69727 14.4999 3.69727Z" fill="white"/>
<path d="M26.9286 5.9549C26.9087 5.60465 26.6544 5.31216 26.3103 5.24298C20.2155 4.02302 15.0118 0.190908 14.9605 0.15265C14.6852 -0.0525104 14.3072 -0.0508603 14.0336 0.157539C13.8283 0.313625 8.93754 3.99277 2.68946 5.24335C2.3452 5.31222 2.09109 5.60502 2.07092 5.95533C1.57027 14.7193 5.68222 21.0238 9.22007 24.769C10.5477 26.175 11.7935 27.2142 12.6049 27.8383C13.0705 28.1961 13.4464 28.4589 13.6796 28.6164C14.1152 28.911 14.2405 28.9953 14.4808 28.9997C14.4909 29.0001 14.5007 29.0001 14.5102 29.0001C14.7474 29.0001 14.8904 28.9044 15.2677 28.6516C15.472 28.5144 15.8029 28.2861 16.2152 27.9742C16.9335 27.432 18.0441 26.5294 19.2574 25.3078C21.537 23.013 23.3519 20.4577 24.6507 17.7135C26.3973 14.0246 27.1637 10.0684 26.9286 5.9549ZM20.1772 21.9632C17.8368 24.8979 15.4181 26.6857 14.4999 27.3101C13.5818 26.6857 11.1631 24.8983 8.82179 21.9618C5.15945 17.3682 3.39857 12.2124 3.5835 6.62862C8.85876 5.43726 13.1259 2.6815 14.5039 1.71815C15.9004 2.68009 20.2411 5.45395 25.4161 6.6282C25.6011 12.2127 23.8403 17.3693 20.1772 21.9632Z" fill="white"/>
</g>
<defs>
<clipPath id="clip0_678_5823">
<rect width="29" height="29" fill="white"/>
</clipPath>
</defs>
</svg>
