<svg width="12" height="16" viewBox="0 0 12 16" fill="none" xmlns="http://www.w3.org/2000/svg">
<path d="M0.0374985 4.04169H0.599998V5.77812H0.0374985V4.04169Z" fill="#060606"/>
<path d="M0.600001 2.38509C0.600146 2.28236 0.619214 2.18054 0.656251 2.08472L0.756375 1.82203L0.230439 1.62122L0.129752 1.88334C0.0684084 2.04349 0.0371352 2.21359 0.0375017 2.38509V3.43022H0.600001V2.38509Z" fill="#060606"/>
<path d="M8.961 2.03299L9.07856 2.28837L9.58931 2.05324L9.47175 1.79787C9.36876 1.57467 9.20919 1.38229 9.00889 1.2398C8.80858 1.09732 8.5745 1.00969 8.32987 0.985618L8.04862 0.958618L7.99237 1.52112L8.27362 1.54812C8.4206 1.56175 8.56142 1.6137 8.68204 1.69879C8.80266 1.78387 8.89884 1.89911 8.961 2.03299Z" fill="#060606"/>
<path d="M3.32644 0.978882H5.06288V1.54138H3.32644V0.978882Z" fill="#060606"/>
<path d="M5.67374 0.978882H7.41018V1.54138H5.67374V0.978882Z" fill="#060606"/>
<path d="M0.0374985 6.38953H0.599998V8.12597H0.0374985V6.38953Z" fill="#060606"/>
<path d="M0.0374985 8.73743H0.599998V10.4739H0.0374985V8.73743Z" fill="#060606"/>
<path d="M10.5776 3.36108H9.6V2.79858H9.0375V3.36108H3.82763C3.45467 3.36108 3.09698 3.50924 2.83326 3.77297C2.56954 4.03669 2.42138 4.39437 2.42138 4.76733V12.0939H1.85888V12.6564H2.42138V13.6351C2.42138 14.0081 2.56954 14.3658 2.83326 14.6295C3.09698 14.8932 3.45467 15.0414 3.82763 15.0414H10.5776C10.9506 15.0414 11.3083 14.8932 11.572 14.6295C11.8357 14.3658 11.9839 14.0081 11.9839 13.6351V4.76733C11.9839 4.39437 11.8357 4.03669 11.572 3.77297C11.3083 3.50924 10.9506 3.36108 10.5776 3.36108Z" fill="#060606"/>
<path d="M2.715 0.978882H1.44375C1.36838 0.979582 1.29316 0.985976 1.21875 0.998007L0.9375 1.04357L1.02919 1.59932L1.3065 1.55319C1.35187 1.54569 1.39776 1.54174 1.44375 1.54138H2.715V0.978882Z" fill="#060606"/>
<path d="M0.604501 11.3379L0.575813 11.0566L0.0133133 11.1129L0.0425633 11.3941C0.0678498 11.6387 0.156835 11.8724 0.300642 12.0719C0.444449 12.2714 0.638049 12.4297 0.862126 12.531L1.11863 12.6463L1.34981 12.1338L1.09388 12.018C0.960146 11.957 0.844647 11.8622 0.758813 11.743C0.672979 11.6237 0.619786 11.484 0.604501 11.3379Z" fill="#060606"/>
<path d="M10.5776 3.36105H9.60001V2.79855H9.03751V3.36105H3.82763C3.45467 3.36105 3.09698 3.5092 2.83326 3.77293C2.56954 4.03665 2.42138 4.39434 2.42138 4.7673V12.0939H1.85888V12.6564H2.42138V13.6351C2.42138 14.0081 2.56954 14.3657 2.83326 14.6295C3.09698 14.8932 3.45467 15.0414 3.82763 15.0414H10.5776C10.9506 15.0414 11.3083 14.8932 11.572 14.6295C11.8357 14.3657 11.9839 14.0081 11.9839 13.6351V4.7673C11.9839 4.39434 11.8357 4.03665 11.572 3.77293C11.3083 3.5092 10.9506 3.36105 10.5776 3.36105ZM11.4214 13.6351C11.4214 13.8589 11.3325 14.0735 11.1743 14.2317C11.016 14.39 10.8014 14.4789 10.5776 14.4789H3.82763C3.60385 14.4789 3.38924 14.39 3.23101 14.2317C3.07277 14.0735 2.98388 13.8589 2.98388 13.6351V12.6564V12.0939V4.7673C2.98388 4.54352 3.07277 4.32891 3.23101 4.17067C3.38924 4.01244 3.60385 3.92355 3.82763 3.92355H9.03751H9.60001H10.5776C10.8014 3.92355 11.016 4.01244 11.1743 4.17067C11.3325 4.32891 11.4214 4.54352 11.4214 4.7673V13.6351ZM0.600004 5.77811H0.0375036V4.04167H0.600004V5.77811ZM5.06232 1.54136H3.32644V0.97886H5.06232V1.54136ZM7.41019 1.54136H5.67376V0.97886H7.41019V1.54136ZM8.27588 1.54586L7.99463 1.51886L8.05088 0.95636L8.33213 0.98336C8.57676 1.00744 8.81084 1.09506 9.01115 1.23754C9.21145 1.38003 9.37102 1.57241 9.47401 1.79561L9.59157 2.05098L9.08082 2.28611L8.96326 2.03073C8.90111 1.89685 8.80492 1.78161 8.6843 1.69653C8.56369 1.61145 8.42286 1.55949 8.27588 1.54586ZM0.600004 3.43023H0.0375036V2.38511C0.0371372 2.21361 0.0684105 2.04351 0.129754 1.88336L0.230441 1.62123L0.755254 1.82205L0.656254 2.08473C0.619217 2.18056 0.600149 2.28238 0.600004 2.38511V3.43023ZM0.600004 8.12598H0.0375036V6.38954H0.600004V8.12598ZM2.715 1.54136H1.44375C1.39758 1.54169 1.3515 1.54564 1.30594 1.55317L1.02863 1.5993L0.937504 1.04355L1.21538 0.997985C1.28979 0.985954 1.365 0.97956 1.44038 0.97886H2.715V1.54136ZM1.09669 12.019L1.35263 12.1349L1.12144 12.6474L0.864941 12.532C0.640864 12.4308 0.447264 12.2725 0.303457 12.073C0.159651 11.8735 0.070665 11.6398 0.0453786 11.3952L0.0161285 11.114L0.578629 11.0577L0.607316 11.339C0.622602 11.4851 0.675794 11.6248 0.761629 11.744C0.847463 11.8633 0.962962 11.9581 1.09669 12.019ZM0.600004 10.475H0.0375036V8.73742H0.600004V10.475Z" fill="#72F8F4"/>
</svg>
