<?xml version="1.0" encoding="UTF-8"?>
<svg xmlns="http://www.w3.org/2000/svg" xmlns:xlink="http://www.w3.org/1999/xlink" width="24pt" height="24pt" viewBox="0 0 24 24" version="1.1">
<g id="surface1">
<path style=" stroke:none;fill-rule:nonzero;fill:rgb(100%,100%,100%);fill-opacity:1;" d="M 23.601562 10.617188 L 23.203125 10.617188 L 23.203125 4.820312 C 23.203125 4.542969 23.023438 4.316406 22.804688 4.316406 L 21.933594 4.316406 L 21.933594 0.503906 C 21.933594 0.226562 21.753906 0 21.535156 0 L 2.105469 0 C 0.941406 0 0 1.191406 0 2.660156 L 0 20.144531 C 0.00390625 22.117188 1.265625 23.714844 2.824219 23.71875 L 22.804688 23.71875 C 23.027344 23.71875 23.203125 23.492188 23.203125 23.214844 L 23.203125 17.417969 L 23.601562 17.417969 C 23.820312 17.417969 24 17.195312 24 16.914062 L 24 11.121094 C 24 10.839844 23.820312 10.617188 23.601562 10.617188 Z M 2.105469 1.007812 L 21.136719 1.007812 L 21.136719 4.316406 L 2.105469 4.316406 C 1.382812 4.316406 0.796875 3.574219 0.796875 2.660156 C 0.796875 1.746094 1.382812 1.007812 2.105469 1.007812 Z M 22.40625 22.710938 L 2.824219 22.710938 C 1.703125 22.710938 0.796875 21.558594 0.796875 20.144531 L 0.796875 4.742188 C 1.167969 5.117188 1.628906 5.324219 2.105469 5.324219 L 22.40625 5.324219 L 22.40625 10.617188 L 20 10.617188 C 19.03125 10.605469 18.136719 11.25 17.648438 12.308594 C 17.164062 13.363281 17.164062 14.671875 17.648438 15.726562 C 18.136719 16.785156 19.03125 17.429688 20 17.417969 L 22.40625 17.417969 Z M 23.203125 16.410156 L 20 16.410156 C 19.316406 16.417969 18.683594 15.964844 18.34375 15.222656 C 18 14.476562 18 13.554688 18.34375 12.8125 C 18.683594 12.066406 19.316406 11.613281 20 11.621094 L 23.203125 11.621094 Z M 23.203125 16.410156 "/>
<path style=" stroke:none;fill-rule:nonzero;fill:rgb(100%,100%,100%);fill-opacity:1;" d="M 19.785156 13.085938 C 19.246094 13.085938 18.8125 13.636719 18.8125 14.3125 C 18.8125 14.988281 19.246094 15.539062 19.785156 15.539062 C 20.320312 15.539062 20.757812 14.988281 20.757812 14.3125 C 20.757812 13.636719 20.320312 13.085938 19.785156 13.085938 Z M 19.785156 13.085938 "/>
</g>
</svg>
