<svg width="19" height="19" viewBox="0 0 19 19" fill="none" xmlns="http://www.w3.org/2000/svg">
<path d="M10.7596 8.83438C10.6076 8.83438 10.4556 8.77649 10.3399 8.66042C9.4139 7.73446 7.90726 7.73416 6.98102 8.66042C6.74945 8.89228 6.37302 8.89228 6.14145 8.66042C5.9096 8.42856 5.9096 8.05271 6.14145 7.82085C7.53053 6.43148 9.79064 6.43177 11.1794 7.82085C11.4113 8.05271 11.4113 8.42856 11.1794 8.66042C11.0636 8.77649 10.9113 8.83438 10.7596 8.83438Z" fill="#72F8F4"/>
<path d="M10.3398 12.2215C9.42755 12.2215 8.51526 11.8741 7.82087 11.1797C7.58901 10.9479 7.58901 10.572 7.82087 10.3402C8.05243 10.1083 8.42887 10.1083 8.66043 10.3402C9.58638 11.2661 11.093 11.2664 12.0193 10.3402C12.2508 10.1083 12.6273 10.1083 12.8588 10.3402C13.0907 10.572 13.0907 10.9479 12.8588 11.1797C12.1641 11.8741 11.2518 12.2215 10.3398 12.2215Z" fill="#72F8F4"/>
<path d="M12.4387 11.3534C12.2867 11.3534 12.1347 11.2955 12.019 11.1794C11.7871 10.9475 11.7871 10.5717 12.019 10.3398L15.3356 7.02314C15.5672 6.79128 15.9436 6.79128 16.1752 7.02314C16.4071 7.255 16.4071 7.63084 16.1752 7.8627L12.8585 11.1794C12.7427 11.2955 12.5907 11.3534 12.4387 11.3534Z" fill="#72F8F4"/>
<path d="M7.44295 16.3492C7.29095 16.3492 7.13895 16.2913 7.02317 16.1752C6.79131 15.9434 6.79131 15.5675 7.02317 15.3357L8.87715 13.4817C9.10871 13.2498 9.48515 13.2498 9.71671 13.4817C9.94857 13.7136 9.94857 14.0894 9.71671 14.3213L7.86273 16.1752C7.74695 16.2913 7.59495 16.3492 7.44295 16.3492Z" fill="#72F8F4"/>
<path d="M3.24452 12.1508C3.09252 12.1508 2.94052 12.0929 2.82474 11.9768C2.59288 11.745 2.59288 11.3691 2.82474 11.1373L6.14143 7.82087C6.37329 7.58901 6.74943 7.58901 6.98099 7.82087C7.21285 8.05273 7.21285 8.42857 6.98099 8.66043L3.66431 11.9768C3.54823 12.0926 3.39623 12.1508 3.24452 12.1508Z" fill="#72F8F4"/>
<path d="M9.70305 5.69259C9.55105 5.69259 9.39935 5.6347 9.28327 5.51891C9.05141 5.28705 9.05141 4.91121 9.28327 4.67905L11.1373 2.82477C11.3691 2.59291 11.745 2.59291 11.9771 2.82477C12.209 3.05663 12.209 3.43248 11.9771 3.66463L10.1231 5.51891C10.0071 5.6344 9.85475 5.69259 9.70305 5.69259Z" fill="#72F8F4"/>
<path d="M5.34374 17.1995C4.42551 17.1995 3.50727 16.858 2.82476 16.1752C1.45913 14.8096 1.45913 12.5026 2.82476 11.137C3.05632 10.9051 3.43276 10.9051 3.66432 11.137C3.89618 11.3688 3.89618 11.7447 3.66432 11.9765C2.7541 12.8867 2.7541 14.4252 3.66432 15.3354C4.57454 16.2456 6.11294 16.2456 7.02316 15.3354C7.25472 15.1035 7.63116 15.1035 7.86273 15.3354C8.09458 15.5672 8.09458 15.9431 7.86273 16.1749C7.18021 16.858 6.26197 17.1995 5.34374 17.1995Z" fill="#72F8F4"/>
<path d="M15.7554 8.03669C15.6034 8.03669 15.4514 7.9788 15.3357 7.86272C15.1038 7.63086 15.1038 7.25502 15.3357 7.02316C16.2459 6.11294 16.2459 4.57454 15.3357 3.66432C14.4254 2.7541 12.887 2.7541 11.9768 3.66432C11.7452 3.89618 11.3688 3.89618 11.1372 3.66432C10.9054 3.43246 10.9054 3.05662 11.1372 2.82476C12.5029 1.45913 14.8099 1.45913 16.1755 2.82476C17.5411 4.19038 17.5411 6.4974 16.1755 7.86302C16.0594 7.9788 15.9074 8.03669 15.7554 8.03669Z" fill="#72F8F4"/>
</svg>
