<svg width="39" height="39" viewBox="0 0 39 39" fill="none" xmlns="http://www.w3.org/2000/svg">
<g clip-path="url(#clip0_678_6015)">
<path d="M32.421 6.0693C26.2472 6.0693 19.849 0.346498 19.7856 0.289166C19.3603 -0.0963888 18.7121 -0.0963888 18.287 0.289166C18.2232 0.346944 11.8418 6.0693 5.65153 6.0693C5.03553 6.0693 4.53613 6.5687 4.53613 7.18469V20.5425C4.53613 31.3637 12.5845 35.6877 18.6385 37.9989C18.7666 38.0478 18.9014 38.0722 19.0363 38.0722C19.1712 38.0722 19.306 38.0477 19.4341 37.9989C27.9226 34.7583 33.5364 29.7034 33.5364 20.5425V7.18469C33.5364 6.5687 33.037 6.0693 32.421 6.0693V6.0693Z" fill="url(#paint0_linear_678_6015)"/>
</g>
<defs>
<linearGradient id="paint0_linear_678_6015" x1="19.0363" y1="38.0722" x2="19.0363" y2="-1.81542e-05" gradientUnits="userSpaceOnUse">
<stop stop-color="#A857FF"/>
<stop offset="1" stop-color="#C496F6"/>
</linearGradient>
<clipPath id="clip0_678_6015">
<rect width="38.0722" height="38.0722" fill="white"/>
</clipPath>
</defs>
</svg>
