<svg width="44" height="44" viewBox="0 0 44 44" fill="none" xmlns="http://www.w3.org/2000/svg">
<g clip-path="url(#clip0_678_6063)">
<path d="M37.8634 6.0693C31.6896 6.0693 25.2913 0.346498 25.228 0.289166C24.8027 -0.0963888 24.1545 -0.0963888 23.7293 0.289166C23.6656 0.346944 17.2842 6.0693 11.0939 6.0693C10.4779 6.0693 9.97852 6.5687 9.97852 7.18469V20.5425C9.97852 31.3637 18.0269 35.6877 24.0808 37.9989C24.209 38.0478 24.3438 38.0722 24.4787 38.0722C24.6136 38.0722 24.7484 38.0477 24.8765 37.9989C33.365 34.7583 38.9788 29.7034 38.9788 20.5425V7.18469C38.9788 6.5687 38.4794 6.0693 37.8634 6.0693Z" fill="url(#paint0_linear_678_6063)"/>
</g>
<g clip-path="url(#clip1_678_6063)">
<path d="M27.0026 12.2871C23.0855 13.0551 19.2046 15.4014 16.6052 18.3749L5.99414 30.4229L9.46862 33.8293L21.7576 23.4262C24.7905 20.8778 27.1838 17.0731 27.9672 13.2327C28.0747 12.7055 27.5404 12.1816 27.0026 12.2871Z" fill="url(#paint1_linear_678_6063)"/>
<path fill-rule="evenodd" clip-rule="evenodd" d="M17.0778 18.788L17.0762 18.7897L6.85834 30.3913L9.49961 32.9807L21.3538 22.9457C24.2884 20.48 26.5997 16.7966 27.3522 13.1073C27.3551 13.093 27.3552 13.0371 27.2875 12.9708C27.2203 12.9049 27.1542 12.8969 27.1234 12.903L27.0026 12.2871C27.5404 12.1816 28.0747 12.7055 27.9672 13.2327C27.1838 17.0731 24.7905 20.8778 21.7576 23.4262L9.46862 33.8293L5.99414 30.4229L16.6052 18.3749C19.2046 15.4014 23.0855 13.0551 27.0026 12.2871L27.1234 12.903C23.3517 13.6425 19.5918 15.9121 17.0778 18.788Z" fill="black"/>
<path d="M11.8333 34.9237L4.87752 28.1042C4.55711 27.7901 4.03859 27.7901 3.71823 28.1042C3.39782 28.4184 3.39782 28.9267 3.71823 29.2408L5.45719 30.9457L0.240309 36.0602C-0.0801031 36.3743 -0.0801031 36.8827 0.240309 37.1968L2.55889 39.4699C2.8793 39.784 3.39782 39.784 3.71818 39.4699L8.935 34.3553L10.674 36.0602C10.9944 36.3743 11.5129 36.3743 11.8333 36.0602C12.1537 35.7461 12.1537 35.2378 11.8333 34.9237Z" fill="url(#paint2_linear_678_6063)"/>
</g>
<g clip-path="url(#clip2_678_6063)">
<path d="M29.6593 32.7077L29.5061 33.6039C29.4366 34.0162 29.613 34.445 29.9547 34.6941C30.322 34.9643 30.8073 34.9714 31.1343 34.7862L31.9478 34.3662L32.7382 34.7735C33.1175 34.9928 33.6056 34.9554 33.9398 34.6952C34.2826 34.445 34.459 34.0162 34.3895 33.6022L34.2363 32.7071L34.8724 32.0788C35.1909 31.7811 35.3078 31.3225 35.17 30.9131C35.0399 30.5173 34.6882 30.218 34.2672 30.148L33.3621 30.0113L32.9609 29.2005C32.7757 28.8307 32.3876 28.6008 31.9478 28.6008C31.508 28.6008 31.1199 28.8307 30.9336 29.2027L30.5335 30.0113L29.6196 30.1496C29.2073 30.218 28.8557 30.5173 28.7267 30.9103C28.5878 31.3225 28.7047 31.7811 29.0111 32.0678L29.6593 32.7077ZM39.1715 40.6507L36.237 36.745C36.1037 36.5664 35.881 36.4826 35.6594 36.5339C35.4423 36.5841 35.2747 36.7572 35.2317 36.976C35.1953 37.1628 35.1303 37.2951 35.0586 37.337C34.9208 37.4147 34.4788 37.3839 33.7038 36.7842C33.5649 36.6767 33.3797 36.6381 33.2133 36.6855C33.0424 36.7313 32.9035 36.8537 32.8362 37.0168C32.5132 37.8077 32.1484 38.1676 31.9477 38.1676C31.7471 38.1676 31.3823 37.8077 31.0593 37.0168C30.992 36.8536 30.8531 36.7312 30.6822 36.6855C30.5136 36.6381 30.3295 36.6767 30.1917 36.7842C29.4179 37.3833 28.978 37.4152 28.8413 37.3392C28.7653 37.2951 28.7002 37.1628 28.6638 36.976C28.6208 36.7572 28.4532 36.5841 28.2361 36.5339C28.0112 36.4827 27.7918 36.5664 27.6585 36.745L24.724 40.6507C24.595 40.8215 24.5741 41.0503 24.67 41.2421C24.7659 41.4334 24.961 41.5541 25.1749 41.5541H27.0841L28.0564 43.4997C28.1435 43.6745 28.3155 43.7919 28.5106 43.8095C28.6927 43.8277 28.8896 43.7497 29.0133 43.5857L31.9477 39.6731L34.8822 43.5857C35.0059 43.7499 35.2031 43.8276 35.3848 43.8095C35.58 43.7918 35.7519 43.6744 35.839 43.4997L36.8113 41.5541H38.7206C38.9345 41.5541 39.1296 41.4334 39.2255 41.2421C39.3214 41.0503 39.3005 40.8215 39.1715 40.6507Z" fill="url(#paint3_linear_678_6063)"/>
<path fill-rule="evenodd" clip-rule="evenodd" d="M30.333 32.4909L30.1249 33.7081C30.1249 33.7083 30.1249 33.7085 30.1248 33.7087C30.0957 33.883 30.1724 34.0761 30.3244 34.187L30.3266 34.1886C30.4055 34.2466 30.5004 34.2787 30.5969 34.2844C30.6962 34.2903 30.7769 34.2673 30.8249 34.2401L30.8355 34.2341L31.9475 33.66L33.0392 34.2226L33.0524 34.2302C33.2107 34.3217 33.422 34.303 33.5542 34.2L33.5619 34.194L33.5698 34.1883C33.7231 34.0764 33.7999 33.8831 33.7707 33.7069C33.7707 33.7066 33.7706 33.7064 33.7706 33.7061L33.5625 32.4905L34.4375 31.6261L34.4439 31.6202C34.5844 31.4889 34.6337 31.2872 34.5751 31.1132L34.5737 31.109C34.5186 30.9412 34.3622 30.8015 34.1679 30.7678L32.9448 30.583L32.3997 29.4815C32.3995 29.4812 32.3993 29.4808 32.3991 29.4805C32.3282 29.3398 32.1682 29.2284 31.9478 29.2284C31.7281 29.2284 31.5677 29.3392 31.4953 29.4828C31.4951 29.4831 31.495 29.4834 31.4948 29.4837L30.9509 30.5828L29.7188 30.7694C29.5352 30.8012 29.3777 30.9393 29.323 31.1059L29.3215 31.1106C29.26 31.2932 29.3157 31.4932 29.4398 31.6094L29.446 31.6152L30.333 32.4909ZM29.6196 30.1496L30.5335 30.0113L30.9336 29.2027C31.1199 28.8307 31.508 28.6008 31.9478 28.6008C32.3876 28.6008 32.7757 28.8307 32.9609 29.2005L33.3621 30.0113L34.2672 30.148C34.6882 30.218 35.0399 30.5173 35.17 30.9131C35.3078 31.3225 35.1909 31.7811 34.8724 32.0788L34.2363 32.7071L34.3895 33.6022C34.459 34.0162 34.2826 34.445 33.9398 34.6952C33.6056 34.9554 33.1175 34.9928 32.7382 34.7735L31.9478 34.3662L31.1343 34.7862C30.8073 34.9714 30.322 34.9643 29.9547 34.6941C29.613 34.445 29.4366 34.0162 29.5061 33.6039L29.6593 32.7077L29.0111 32.0678C28.7047 31.7811 28.5878 31.3225 28.7267 30.9103C28.8557 30.5173 29.2073 30.218 29.6196 30.1496ZM35.8007 37.1454C35.8007 37.1454 35.8007 37.1454 35.8007 37.1454V37.1454ZM35.0586 37.337C35.1303 37.2951 35.1953 37.1628 35.2317 36.976C35.2747 36.7572 35.4423 36.5841 35.6594 36.5339C35.881 36.4826 36.1037 36.5664 36.237 36.745L39.1715 40.6507C39.3005 40.8215 39.3214 41.0503 39.2255 41.2421C39.1296 41.4334 38.9345 41.5541 38.7206 41.5541H36.8113L35.839 43.4997C35.7519 43.6744 35.58 43.7918 35.3848 43.8095C35.2031 43.8276 35.0059 43.7499 34.8822 43.5857L31.9477 39.6731L29.0133 43.5857C28.8896 43.7497 28.6927 43.8277 28.5106 43.8095C28.3155 43.7919 28.1435 43.6745 28.0564 43.4997L27.0841 41.5541H25.1749C24.961 41.5541 24.7659 41.4334 24.67 41.2421C24.5741 41.0503 24.595 40.8215 24.724 40.6507L27.6585 36.745C27.7918 36.5664 28.0112 36.4827 28.2361 36.5339C28.4532 36.5841 28.6208 36.7572 28.6638 36.976C28.7002 37.1628 28.7653 37.2951 28.8413 37.3392C28.978 37.4152 29.4179 37.3833 30.1917 36.7842C30.3295 36.6767 30.5136 36.6381 30.6822 36.6855C30.8531 36.7312 30.992 36.8536 31.0593 37.0168C31.3823 37.8077 31.7471 38.1676 31.9477 38.1676C32.1484 38.1676 32.5132 37.8077 32.8362 37.0168C32.9035 36.8537 33.0424 36.7313 33.2133 36.6855C33.3797 36.6381 33.5649 36.6767 33.7038 36.7842C34.4788 37.3839 34.9208 37.4147 35.0586 37.337ZM28.0789 37.2302L25.3018 40.9265H27.4721L28.5722 43.1278L31.8282 38.7864C31.6553 38.7608 31.5136 38.6842 31.4156 38.6172C31.2866 38.529 31.17 38.4145 31.0664 38.2895C30.8705 38.0534 30.6805 37.7316 30.5101 37.3307C30.1137 37.6294 29.7688 37.8143 29.4731 37.9112C29.1994 38.001 28.8389 38.056 28.5362 37.8876L28.5313 37.8849L28.5265 37.8821C28.3332 37.77 28.2283 37.598 28.174 37.487C28.1337 37.4048 28.1027 37.3177 28.0789 37.2302ZM32.0672 38.7864L35.3232 43.1278L36.4234 40.9265H38.5937L35.8166 37.2302C35.793 37.317 35.7626 37.4029 35.7236 37.4837C35.6728 37.5889 35.57 37.765 35.3754 37.8788L35.3712 37.8813L35.3669 37.8837C35.0639 38.0545 34.7018 38.001 34.4263 37.9115C34.1291 37.815 33.7828 37.63 33.3854 37.3307C33.215 37.7316 33.025 38.0534 32.8291 38.2895C32.7255 38.4145 32.6089 38.529 32.4799 38.6172C32.3818 38.6842 32.2402 38.7608 32.0672 38.7864Z" fill="black"/>
<path d="M39.2849 31.9592C39.2849 31.5076 39.0592 30.8868 38.0544 30.3224C38.6414 29.3403 38.5287 28.6856 38.3028 28.2905C38.077 27.8954 37.5352 27.5004 36.4064 27.5004C36.429 26.3376 36.0113 25.8298 35.6049 25.5927C35.2212 25.3782 34.5665 25.2653 33.5844 25.8523C33.02 24.8476 32.3992 24.5466 31.9476 24.5466C31.4961 24.5466 30.8753 24.8476 30.3109 25.8523C29.3288 25.2653 28.6741 25.3782 28.279 25.604C27.8839 25.8297 27.4663 26.3376 27.4888 27.5004C26.36 27.5004 25.8182 27.8954 25.5811 28.3019C25.3667 28.6969 25.2538 29.3516 25.8408 30.3224C24.8362 30.8868 24.6104 31.5076 24.6104 31.9592C24.6104 32.4107 24.8361 33.0315 25.8408 33.5959C25.2538 34.578 25.3667 35.2327 25.5924 35.6278C25.8182 36.0229 26.3487 36.4405 27.4888 36.418C27.4605 37.1526 27.6499 37.952 28.2903 38.3257C28.6854 38.5401 29.3288 38.653 30.3109 38.066C30.8753 39.0707 31.4961 39.2965 31.9476 39.2965C32.3992 39.2965 33.02 39.0707 33.5844 38.066C34.5665 38.653 35.2212 38.5401 35.6163 38.3144C36.2503 37.956 36.4342 37.14 36.4064 36.418C37.5917 36.4405 38.077 36.0229 38.3142 35.6165C38.5287 35.2214 38.6415 34.5667 38.0544 33.5959C39.0592 33.0315 39.2849 32.4107 39.2849 31.9592ZM34.4875 31.6657L33.6296 32.5123L33.8328 33.6975C33.8667 33.9007 33.7763 34.1152 33.607 34.2393C33.426 34.3802 33.1911 34.3822 33.02 34.2845L31.9477 33.7314L30.8753 34.2845C30.6947 34.3861 30.4576 34.3635 30.2884 34.2393C30.119 34.1152 30.0287 33.9007 30.0626 33.6975L30.2658 32.5123L29.4079 31.6657C29.2498 31.5189 29.1934 31.2932 29.2611 31.09C29.3289 30.8868 29.5095 30.7401 29.7127 30.7062L30.9092 30.5256L31.4397 29.4532C31.6316 29.0694 32.2638 29.0694 32.4557 29.4532L32.9862 30.5256L34.1828 30.7062C34.3859 30.7401 34.5666 30.8868 34.6343 31.09C34.702 31.2932 34.6455 31.5189 34.4875 31.6657Z" fill="url(#paint4_linear_678_6063)"/>
<path fill-rule="evenodd" clip-rule="evenodd" d="M37.1849 30.5538L37.5157 30.0004C38.0074 29.1778 37.8524 28.7672 37.758 28.602C37.6768 28.46 37.3853 28.128 36.4064 28.128H35.7664L35.7789 27.4882C35.7887 26.9823 35.7017 26.6714 35.6062 26.4822C35.5153 26.3019 35.4016 26.2017 35.2937 26.1377C35.1348 26.0506 34.7214 25.9039 33.9064 26.391L33.353 26.7217L33.0372 26.1596C32.5385 25.272 32.0927 25.1742 31.9476 25.1742C31.8026 25.1742 31.3568 25.2719 30.858 26.1597L30.5423 26.7217L29.9889 26.391C29.1664 25.8994 28.7557 26.0544 28.5904 26.1489C28.4355 26.2373 28.0972 26.5037 28.1163 27.4882L28.1287 28.128H27.4888C26.5306 28.128 26.227 28.4465 26.1279 28.6102C26.0339 28.7885 25.8982 29.2043 26.3779 29.9976L26.7132 30.5522L26.1482 30.8696C25.3033 31.3442 25.238 31.775 25.238 31.9592C25.238 32.1433 25.3033 32.5741 26.1482 33.0488L26.7103 33.3645L26.3795 33.918C25.8879 34.7404 26.0428 35.151 26.1373 35.3165C26.2243 35.4685 26.5109 35.8096 27.4764 35.7905L28.1416 35.7773L28.116 36.4421C28.0904 37.105 28.2743 37.5835 28.5984 37.7787C28.7046 37.8348 28.8472 37.8807 29.0459 37.8697C29.2557 37.8582 29.5643 37.7811 29.9888 37.5273L30.5422 37.1965L30.858 37.7586C31.3327 38.6035 31.7635 38.6688 31.9476 38.6688C32.1318 38.6688 32.5626 38.6035 33.0372 37.7586L33.353 37.1965L33.9064 37.5273C34.7288 38.0189 35.1395 37.8639 35.305 37.7694L35.3074 37.768C35.6163 37.5934 35.805 37.111 35.7793 36.4421L35.7537 35.7778L36.4183 35.7905C36.9377 35.8004 37.247 35.7126 37.4309 35.6189C37.6027 35.5314 37.6997 35.4214 37.7671 35.3086C37.8612 35.1307 37.9976 34.7148 37.5174 33.9207L37.182 33.3661L37.7471 33.0488C38.592 32.5741 38.6573 32.1433 38.6573 31.9592C38.6573 31.775 38.592 31.3442 37.747 30.8696L37.1849 30.5538ZM38.3142 35.6165C38.1135 35.9604 37.7351 36.3124 36.9051 36.3988C36.7543 36.4145 36.5886 36.4214 36.4064 36.418C36.4115 36.551 36.4094 36.6873 36.3987 36.8233C36.3511 37.4252 36.1334 38.0221 35.6163 38.3144C35.2489 38.5242 34.6571 38.6366 33.7864 38.1795C33.7207 38.145 33.6533 38.1072 33.5844 38.066C33.5443 38.1373 33.504 38.2048 33.4634 38.2684C32.9327 39.1016 32.3671 39.2965 31.9476 39.2965C31.5282 39.2965 30.9625 39.1016 30.4318 38.2683C30.3912 38.2047 30.3509 38.1373 30.3109 38.066C30.2411 38.1077 30.173 38.1459 30.1066 38.1808C29.2386 38.6365 28.6573 38.5248 28.2903 38.3257C27.7684 38.0212 27.5461 37.4339 27.497 36.8294C27.4858 36.6921 27.4836 36.5539 27.4888 36.418C27.3165 36.4214 27.1582 36.4147 27.0127 36.3996C26.1953 36.3148 25.7841 35.9632 25.5924 35.6278C25.3825 35.2604 25.2702 34.6686 25.7273 33.7979C25.7618 33.7322 25.7996 33.6649 25.8408 33.5959C25.7695 33.5559 25.7021 33.5155 25.6384 33.475C24.8052 32.9442 24.6104 32.3786 24.6104 31.9592C24.6104 31.5457 24.7997 30.9901 25.6033 30.466C25.6772 30.4178 25.7562 30.3699 25.8408 30.3224C25.7926 30.2427 25.7491 30.1651 25.71 30.0896C25.273 29.2459 25.3843 28.6645 25.5811 28.3019C25.8052 27.9177 26.3016 27.5437 27.3085 27.5039C27.3669 27.5015 27.427 27.5004 27.4888 27.5004C27.4876 27.4397 27.4877 27.3808 27.4888 27.3237C27.5098 26.2854 27.9045 25.8179 28.279 25.604C28.6464 25.394 29.2384 25.2817 30.1095 25.7391C30.175 25.7735 30.2421 25.8112 30.3109 25.8523C30.3546 25.7744 30.3986 25.7008 30.4429 25.6313C30.9704 24.8028 31.531 24.5466 31.9476 24.5466C32.3642 24.5466 32.9249 24.8028 33.4524 25.6313C33.4967 25.7009 33.5407 25.7744 33.5844 25.8523C33.6532 25.8112 33.7204 25.7735 33.7859 25.739C34.6569 25.2816 35.2481 25.3932 35.6049 25.5927C35.9901 25.8174 36.3853 26.2853 36.4064 27.3232C36.4075 27.3805 36.4075 27.4395 36.4064 27.5004C36.4685 27.5004 36.5288 27.5016 36.5874 27.5039C37.5938 27.5438 38.0894 27.9171 38.3028 28.2905C38.5128 28.6578 38.625 29.2495 38.1681 30.12C38.1335 30.1859 38.0957 30.2533 38.0544 30.3224C38.1259 30.3625 38.1934 30.403 38.2572 30.4436C39.0902 30.9743 39.2849 31.5397 39.2849 31.9592C39.2849 32.3725 39.0957 32.9279 38.2926 33.4519C38.2185 33.5003 38.1393 33.5483 38.0544 33.5959C38.1028 33.6759 38.1464 33.7537 38.1856 33.8295C38.6222 34.6728 38.511 35.2539 38.3142 35.6165ZM34.1828 30.7062L32.9862 30.5256L32.4557 29.4532C32.2638 29.0694 31.6316 29.0694 31.4397 29.4532L30.9092 30.5256L29.7127 30.7062C29.5095 30.7401 29.3289 30.8868 29.2611 31.09C29.1934 31.2932 29.2498 31.5189 29.4079 31.6657L30.2658 32.5123L30.0626 33.6975C30.0287 33.9007 30.119 34.1152 30.2884 34.2393C30.4576 34.3635 30.6947 34.3861 30.8753 34.2845L31.9477 33.7314L33.02 34.2845C33.1911 34.3822 33.426 34.3802 33.607 34.2393C33.7763 34.1152 33.8667 33.9007 33.8328 33.6975L33.6296 32.5123L34.4875 31.6657C34.6455 31.5189 34.702 31.2932 34.6343 31.09C34.5666 30.8868 34.3859 30.7401 34.1828 30.7062ZM34.9227 32.1179C35.2562 31.8023 35.3735 31.3229 35.2297 30.8915C35.0857 30.4596 34.7098 30.1577 34.2858 30.0871L34.2811 30.0864L33.4036 29.9539L33.0183 29.1749L33.017 29.1725C32.7895 28.7175 32.3292 28.5378 31.9477 28.5378C31.5663 28.5378 31.1059 28.7175 30.8784 29.1725L30.4919 29.9539L29.6143 30.0864L29.6096 30.0871C29.1857 30.1577 28.8097 30.4596 28.6657 30.8915C28.522 31.3227 28.639 31.8021 28.9726 32.1178L29.5919 32.729L29.444 33.5915L29.4435 33.5942C29.3692 34.04 29.5643 34.4866 29.9171 34.7453M34.9227 32.1179L34.3035 32.729L34.4518 33.5942C34.5257 34.0371 34.3336 34.4807 33.9854 34.7401C33.5987 35.0364 33.0989 35.045 32.7229 34.8374L31.9477 34.4376L31.171 34.8382C30.7597 35.063 30.264 34.9997 29.9171 34.7453" fill="black"/>
</g>
<defs>
<linearGradient id="paint0_linear_678_6063" x1="24.4787" y1="38.0722" x2="24.4787" y2="-1.81542e-05" gradientUnits="userSpaceOnUse">
<stop stop-color="#A857FF"/>
<stop offset="1" stop-color="#C496F6"/>
</linearGradient>
<linearGradient id="paint1_linear_678_6063" x1="7.73225" y1="32.1222" x2="27.3289" y2="12.1336" gradientUnits="userSpaceOnUse">
<stop stop-color="white"/>
<stop offset="0.5028" stop-color="white"/>
<stop offset="1" stop-color="#EAF6FF"/>
</linearGradient>
<linearGradient id="paint2_linear_678_6063" x1="1.40143" y1="38.3285" x2="8.21847" y2="31.3751" gradientUnits="userSpaceOnUse">
<stop stop-color="#9549E6"/>
<stop offset="1" stop-color="#9252D8"/>
</linearGradient>
<linearGradient id="paint3_linear_678_6063" x1="31.9477" y1="43.8121" x2="31.9477" y2="28.6008" gradientUnits="userSpaceOnUse">
<stop stop-color="#A93AFF"/>
<stop offset="1" stop-color="#FF81FF"/>
</linearGradient>
<linearGradient id="paint4_linear_678_6063" x1="31.9476" y1="39.2965" x2="31.9476" y2="24.5466" gradientUnits="userSpaceOnUse">
<stop stop-color="white"/>
<stop offset="1" stop-color="#FFF1FF"/>
</linearGradient>
<clipPath id="clip0_678_6063">
<rect width="38.0722" height="38.0722" fill="white" transform="translate(5.44238)"/>
</clipPath>
<clipPath id="clip1_678_6063">
<rect width="27.9808" height="27.4321" fill="white" transform="translate(0 12.2734)"/>
</clipPath>
<clipPath id="clip2_678_6063">
<rect width="19.2654" height="19.2654" fill="white" transform="translate(22.3154 24.5466)"/>
</clipPath>
</defs>
</svg>
