<svg width="39" height="44" viewBox="0 0 39 44" fill="none" xmlns="http://www.w3.org/2000/svg">
<g clip-path="url(#clip0_678_5999)">
<path d="M32.421 6.0693C26.2472 6.0693 19.849 0.346498 19.7856 0.289166C19.3603 -0.0963888 18.7121 -0.0963888 18.287 0.289166C18.2232 0.346944 11.8418 6.0693 5.65153 6.0693C5.03553 6.0693 4.53613 6.5687 4.53613 7.18469V20.5425C4.53613 31.3637 12.5845 35.6877 18.6385 37.9989C18.7666 38.0478 18.9014 38.0722 19.0363 38.0722C19.1712 38.0722 19.306 38.0477 19.4341 37.9989C27.9226 34.7583 33.5364 29.7034 33.5364 20.5425V7.18469C33.5364 6.5687 33.037 6.0693 32.421 6.0693Z" fill="url(#paint0_linear_678_5999)"/>
</g>
<g clip-path="url(#clip1_678_5999)">
<path d="M24.2169 32.7077L24.0637 33.6039C23.9942 34.0162 24.1706 34.445 24.5123 34.6941C24.8796 34.9643 25.3649 34.9714 25.6919 34.7862L26.5054 34.3662L27.2958 34.7735C27.6752 34.9928 28.1633 34.9554 28.4974 34.6952C28.8402 34.445 29.0166 34.0162 28.9471 33.6022L28.7939 32.7071L29.43 32.0788C29.7486 31.7811 29.8654 31.3225 29.7276 30.9131C29.5975 30.5173 29.2459 30.218 28.8248 30.148L27.9197 30.0113L27.5185 29.2005C27.3333 28.8307 26.9453 28.6008 26.5054 28.6008C26.0656 28.6008 25.6775 28.8307 25.4912 29.2027L25.0911 30.0113L24.1772 30.1496C23.7649 30.218 23.4133 30.5173 23.2843 30.9103C23.1455 31.3225 23.2623 31.7811 23.5688 32.0678L24.2169 32.7077ZM33.7291 40.6507L30.7947 36.745C30.6613 36.5664 30.4386 36.4826 30.217 36.5339C29.9999 36.5841 29.8323 36.7572 29.7893 36.976C29.7529 37.1628 29.6879 37.2951 29.6162 37.337C29.4784 37.4147 29.0364 37.3839 28.2614 36.7842C28.1225 36.6767 27.9373 36.6381 27.7709 36.6855C27.6 36.7313 27.4611 36.8537 27.3939 37.0168C27.0709 37.8077 26.706 38.1676 26.5054 38.1676C26.3047 38.1676 25.9399 37.8077 25.6169 37.0168C25.5496 36.8536 25.4107 36.7312 25.2399 36.6855C25.0712 36.6381 24.8871 36.6767 24.7493 36.7842C23.9755 37.3833 23.5356 37.4152 23.3989 37.3392C23.3229 37.2951 23.2578 37.1628 23.2214 36.976C23.1784 36.7572 23.0109 36.5841 22.7937 36.5339C22.5688 36.4827 22.3495 36.5664 22.2161 36.745L19.2816 40.6507C19.1527 40.8215 19.1317 41.0503 19.2276 41.2421C19.3235 41.4334 19.5186 41.5541 19.7325 41.5541H21.6418L22.614 43.4997C22.7011 43.6745 22.8731 43.7919 23.0682 43.8095C23.2503 43.8277 23.4473 43.7497 23.5709 43.5857L26.5053 39.6731L29.4398 43.5857C29.5635 43.7499 29.7607 43.8276 29.9425 43.8095C30.1376 43.7918 30.3095 43.6744 30.3966 43.4997L31.369 41.5541H33.2782C33.4921 41.5541 33.6872 41.4334 33.7831 41.2421C33.879 41.0503 33.8581 40.8215 33.7291 40.6507Z" fill="url(#paint1_linear_678_5999)"/>
<path d="M33.8425 31.9592C33.8425 31.5076 33.6168 30.8868 32.612 30.3224C33.199 29.3403 33.0863 28.6856 32.8605 28.2905C32.6346 27.8954 32.0928 27.5004 30.964 27.5004C30.9866 26.3376 30.5689 25.8298 30.1626 25.5927C29.7788 25.3782 29.1241 25.2653 28.142 25.8523C27.5777 24.8476 26.9568 24.5466 26.5052 24.5466C26.0537 24.5466 25.4329 24.8476 24.8685 25.8523C23.8864 25.2653 23.2317 25.3782 22.8366 25.604C22.4415 25.8297 22.0239 26.3376 22.0464 27.5004C20.9176 27.5004 20.3758 27.8954 20.1387 28.3019C19.9243 28.6969 19.8114 29.3516 20.3984 30.3224C19.3938 30.8868 19.168 31.5076 19.168 31.9592C19.168 32.4107 19.3937 33.0315 20.3984 33.5959C19.8114 34.578 19.9243 35.2327 20.15 35.6278C20.3758 36.0229 20.9063 36.4405 22.0464 36.418C22.0181 37.1526 22.2075 37.952 22.8479 38.3257C23.243 38.5401 23.8864 38.653 24.8685 38.066C25.4329 39.0707 26.0537 39.2965 26.5052 39.2965C26.9568 39.2965 27.5776 39.0707 28.142 38.066C29.1241 38.653 29.7788 38.5401 30.1739 38.3144C30.8079 37.956 30.9918 37.14 30.964 36.418C32.1493 36.4405 32.6346 36.0229 32.8718 35.6165C33.0863 35.2214 33.1991 34.5667 32.6121 33.5959C33.6168 33.0315 33.8425 32.4107 33.8425 31.9592ZM29.0451 31.6657L28.1872 32.5123L28.3904 33.6975C28.4243 33.9007 28.3339 34.1152 28.1646 34.2393C27.9836 34.3802 27.7487 34.3822 27.5777 34.2845L26.5053 33.7314L25.4329 34.2845C25.2523 34.3861 25.0153 34.3635 24.846 34.2393C24.6766 34.1152 24.5863 33.9007 24.6202 33.6975L24.8234 32.5123L23.9655 31.6657C23.8075 31.5189 23.751 31.2932 23.8188 31.09C23.8865 30.8868 24.0671 30.7401 24.2703 30.7062L25.4669 30.5256L25.9974 29.4532C26.1892 29.0694 26.8214 29.0694 27.0133 29.4532L27.5438 30.5256L28.7404 30.7062C28.9436 30.7401 29.1242 30.8868 29.1919 31.09C29.2597 31.2932 29.2031 31.5189 29.0451 31.6657Z" fill="url(#paint2_linear_678_5999)"/>
<path fill-rule="evenodd" clip-rule="evenodd" d="M31.7425 30.5538L32.0733 30.0004C32.565 29.1778 32.41 28.7672 32.3156 28.602C32.2345 28.46 31.943 28.128 30.964 28.128H30.324L30.3365 27.4882C30.3463 26.9823 30.2594 26.6714 30.1638 26.4822C30.0729 26.3019 29.9592 26.2017 29.8513 26.1377C29.6924 26.0506 29.2791 25.9039 28.464 26.391L27.9106 26.7217L27.5949 26.1596C27.0962 25.272 26.6503 25.1742 26.5052 25.1742C26.3602 25.1742 25.9144 25.2719 25.4156 26.1597L25.0999 26.7217L24.5465 26.391C23.724 25.8994 23.3134 26.0544 23.148 26.1489C22.9932 26.2373 22.6548 26.5037 22.6739 27.4882L22.6863 28.128H22.0464C21.0882 28.128 20.7846 28.4465 20.6856 28.6102C20.5915 28.7885 20.4558 29.2043 20.9355 29.9976L21.2708 30.5522L20.7058 30.8696C19.8609 31.3442 19.7956 31.775 19.7956 31.9592C19.7956 32.1433 19.8609 32.5741 20.7058 33.0488L21.2679 33.3645L20.9371 33.918C20.4455 34.7403 20.6004 35.151 20.6949 35.3164C20.7818 35.4684 21.0685 35.8096 22.034 35.7905L22.6992 35.7773L22.6736 36.4421C22.6481 37.105 22.8319 37.5835 23.1561 37.7787C23.2623 37.8348 23.4048 37.8807 23.6036 37.8697C23.8133 37.8582 24.1219 37.7811 24.5465 37.5273L25.0999 37.1965L25.4156 37.7586C25.8903 38.6035 26.3211 38.6688 26.5052 38.6688C26.6895 38.6688 27.1202 38.6035 27.5949 37.7586L27.9106 37.1965L28.464 37.5273C29.2864 38.0189 29.6971 37.8639 29.8626 37.7694L29.8651 37.768C30.1739 37.5934 30.3626 37.111 30.3369 36.4421L30.3113 35.7778L30.976 35.7905C31.4953 35.8004 31.8046 35.7126 31.9886 35.6189C32.1603 35.5314 32.2574 35.4214 32.3248 35.3086C32.4188 35.1307 32.5552 34.7148 32.075 33.9207L31.7396 33.3661L32.3047 33.0488C33.1497 32.5741 33.2149 32.1433 33.2149 31.9592C33.2149 31.775 33.1497 31.3442 32.3046 30.8696L31.7425 30.5538ZM32.8718 35.6165C32.6711 35.9604 32.2927 36.3124 31.4627 36.3988C31.3119 36.4145 31.1463 36.4214 30.964 36.418C30.9691 36.551 30.9671 36.6873 30.9563 36.8233C30.9087 37.4252 30.691 38.0221 30.1739 38.3144C29.8065 38.5242 29.2147 38.6366 28.344 38.1795C28.2783 38.145 28.211 38.1072 28.142 38.066C28.102 38.1373 28.0616 38.2048 28.021 38.2684C27.4903 39.1016 26.9247 39.2965 26.5052 39.2965C26.0858 39.2965 25.5201 39.1016 24.9894 38.2683C24.9489 38.2047 24.9085 38.1373 24.8685 38.066C24.7987 38.1077 24.7306 38.1459 24.6642 38.1807C23.7962 38.6365 23.2149 38.5248 22.8479 38.3257C22.326 38.0212 22.1037 37.4339 22.0546 36.8294C22.0434 36.6921 22.0412 36.5539 22.0464 36.418C21.8742 36.4214 21.7158 36.4147 21.5703 36.3996C20.7529 36.3148 20.3417 35.9632 20.15 35.6278C19.9401 35.2604 19.8278 34.6686 20.2849 33.7979C20.3194 33.7322 20.3572 33.6649 20.3984 33.5959C20.3271 33.5559 20.2597 33.5155 20.196 33.475C19.3628 32.9442 19.168 32.3786 19.168 31.9592C19.168 31.5457 19.3574 30.9901 20.1609 30.466C20.2348 30.4178 20.3138 30.3699 20.3984 30.3224C20.3502 30.2427 20.3067 30.1651 20.2676 30.0896C19.8307 29.2459 19.9419 28.6645 20.1387 28.3019C20.3628 27.9177 20.8592 27.5437 21.8661 27.5039C21.9245 27.5015 21.9846 27.5004 22.0464 27.5004C22.0453 27.4397 22.0453 27.3808 22.0464 27.3237C22.0674 26.2854 22.4621 25.8179 22.8366 25.604C23.2041 25.394 23.7961 25.2817 24.6671 25.7391C24.7326 25.7735 24.7998 25.8112 24.8685 25.8523C24.9122 25.7744 24.9562 25.7008 25.0005 25.6313C25.528 24.8028 26.0887 24.5466 26.5052 24.5466C26.9218 24.5466 27.4825 24.8028 28.01 25.6313C28.0543 25.7009 28.0983 25.7744 28.142 25.8523C28.2108 25.8112 28.278 25.7735 28.3436 25.739C29.2145 25.2816 29.8057 25.3932 30.1626 25.5927C30.5477 25.8174 30.9429 26.2853 30.964 27.3232C30.9651 27.3805 30.9652 27.4395 30.964 27.5004C31.0261 27.5004 31.0864 27.5016 31.145 27.5039C32.1514 27.5438 32.647 27.9171 32.8605 28.2905C33.0704 28.6578 33.1826 29.2495 32.7257 30.12C32.6911 30.1859 32.6533 30.2533 32.612 30.3224C32.6835 30.3625 32.751 30.403 32.8148 30.4436C33.6478 30.9743 33.8425 31.5397 33.8425 31.9592C33.8425 32.3725 33.6533 32.9279 32.8502 33.4519C32.7761 33.5003 32.6969 33.5483 32.6121 33.5959C32.6604 33.6759 32.704 33.7537 32.7432 33.8294C33.1798 34.6728 33.0687 35.2539 32.8718 35.6165ZM28.7404 30.7062L27.5438 30.5256L27.0133 29.4532C26.8214 29.0694 26.1892 29.0694 25.9974 29.4532L25.4669 30.5256L24.2703 30.7062C24.0671 30.7401 23.8865 30.8868 23.8188 31.09C23.751 31.2932 23.8075 31.5189 23.9655 31.6657L24.8234 32.5123L24.6202 33.6975C24.5863 33.9007 24.6766 34.1152 24.846 34.2393C25.0153 34.3635 25.2523 34.3861 25.4329 34.2845L26.5053 33.7314L27.5777 34.2845C27.7488 34.3822 27.9836 34.3802 28.1646 34.2393C28.3339 34.1152 28.4243 33.9007 28.3904 33.6975L28.1872 32.5123L29.0451 31.6657C29.2031 31.5189 29.2597 31.2932 29.1919 31.09C29.1242 30.8868 28.9436 30.7401 28.7404 30.7062ZM29.4804 32.1179C29.8139 31.8023 29.9311 31.3229 29.7873 30.8915C29.6434 30.4596 29.2674 30.1577 28.8434 30.0871L28.8388 30.0864L27.9612 29.9539L27.5759 29.1749L27.5747 29.1725C27.3471 28.7175 26.8868 28.5378 26.5053 28.5378C26.1239 28.5378 25.6635 28.7175 25.436 29.1725L25.0495 29.9539L24.1719 30.0864L24.1672 30.0871C23.7433 30.1577 23.3673 30.4596 23.2233 30.8915C23.0796 31.3227 23.1966 31.8021 23.5302 32.1178L24.1495 32.729L24.0016 33.5915L24.0012 33.5942C23.9268 34.04 24.1219 34.4866 24.4747 34.7453M29.4804 32.1179L28.8611 32.729L29.0094 33.5942C29.0833 34.0371 28.8912 34.4807 28.5429 34.7401C28.1562 35.0364 27.6565 35.045 27.2805 34.8374L26.5053 34.4376L25.7287 34.8382C25.3173 35.063 24.8216 34.9997 24.4747 34.7453" fill="black"/>
</g>
<defs>
<linearGradient id="paint0_linear_678_5999" x1="19.0363" y1="38.0722" x2="19.0363" y2="-1.81542e-05" gradientUnits="userSpaceOnUse">
<stop stop-color="#A857FF"/>
<stop offset="1" stop-color="#C496F6"/>
</linearGradient>
<linearGradient id="paint1_linear_678_5999" x1="26.5054" y1="43.8121" x2="26.5054" y2="28.6008" gradientUnits="userSpaceOnUse">
<stop stop-color="#A93AFF"/>
<stop offset="1" stop-color="#FF81FF"/>
</linearGradient>
<linearGradient id="paint2_linear_678_5999" x1="26.5052" y1="39.2965" x2="26.5052" y2="24.5466" gradientUnits="userSpaceOnUse">
<stop stop-color="white"/>
<stop offset="1" stop-color="#FFF1FF"/>
</linearGradient>
<clipPath id="clip0_678_5999">
<rect width="38.0722" height="38.0722" fill="white"/>
</clipPath>
<clipPath id="clip1_678_5999">
<rect width="19.2654" height="19.2654" fill="white" transform="translate(16.873 24.5466)"/>
</clipPath>
</defs>
</svg>
