<svg width="44" height="40" viewBox="0 0 44 40" fill="none" xmlns="http://www.w3.org/2000/svg">
<g clip-path="url(#clip0_678_5967)">
<path d="M37.8634 6.0693C31.6896 6.0693 25.2913 0.346498 25.228 0.289166C24.8027 -0.0963888 24.1545 -0.0963888 23.7293 0.289166C23.6656 0.346944 17.2842 6.0693 11.0939 6.0693C10.4779 6.0693 9.97852 6.5687 9.97852 7.18469V20.5425C9.97852 31.3637 18.0269 35.6877 24.0808 37.9989C24.209 38.0478 24.3438 38.0722 24.4787 38.0722C24.6136 38.0722 24.7484 38.0477 24.8765 37.9989C33.365 34.7583 38.9788 29.7034 38.9788 20.5425V7.18469C38.9788 6.5687 38.4794 6.0693 37.8634 6.0693Z" fill="url(#paint0_linear_678_5967)"/>
</g>
<g clip-path="url(#clip1_678_5967)">
<path d="M27.0026 12.287C23.0855 13.055 19.2046 15.4013 16.6052 18.3748L5.99414 30.4228L9.46862 33.8292L21.7576 23.4261C24.7905 20.8777 27.1838 17.073 27.9672 13.2326C28.0747 12.7054 27.5404 12.1815 27.0026 12.287Z" fill="url(#paint1_linear_678_5967)"/>
<path fill-rule="evenodd" clip-rule="evenodd" d="M17.0778 18.7879L17.0762 18.7896L6.85834 30.3911L9.49961 32.9806L21.3538 22.9456C24.2884 20.4799 26.5997 16.7964 27.3522 13.1072C27.3551 13.0929 27.3552 13.037 27.2875 12.9707C27.2203 12.9048 27.1542 12.8968 27.1234 12.9028L27.0026 12.287C27.5404 12.1815 28.0747 12.7054 27.9672 13.2326C27.1838 17.073 24.7905 20.8777 21.7576 23.4261L9.46862 33.8292L5.99414 30.4228L16.6052 18.3748C19.2046 15.4013 23.0855 13.055 27.0026 12.287L27.1234 12.9028C23.3517 13.6424 19.5918 15.912 17.0778 18.7879Z" fill="black"/>
<path d="M11.8333 34.9235L4.87752 28.1041C4.55711 27.79 4.03859 27.79 3.71823 28.1041C3.39782 28.4183 3.39782 28.9266 3.71823 29.2407L5.45719 30.9455L0.240309 36.0601C-0.0801031 36.3742 -0.0801031 36.8826 0.240309 37.1966L2.55889 39.4698C2.8793 39.7839 3.39782 39.7839 3.71818 39.4698L8.935 34.3552L10.674 36.0601C10.9944 36.3742 11.5129 36.3742 11.8333 36.0601C12.1537 35.746 12.1537 35.2377 11.8333 34.9235Z" fill="url(#paint2_linear_678_5967)"/>
</g>
<defs>
<linearGradient id="paint0_linear_678_5967" x1="24.4787" y1="38.0722" x2="24.4787" y2="-1.81542e-05" gradientUnits="userSpaceOnUse">
<stop stop-color="#A857FF"/>
<stop offset="1" stop-color="#C496F6"/>
</linearGradient>
<linearGradient id="paint1_linear_678_5967" x1="7.73225" y1="32.1221" x2="27.3289" y2="12.1335" gradientUnits="userSpaceOnUse">
<stop stop-color="white"/>
<stop offset="0.5028" stop-color="white"/>
<stop offset="1" stop-color="#EAF6FF"/>
</linearGradient>
<linearGradient id="paint2_linear_678_5967" x1="1.40143" y1="38.3284" x2="8.21847" y2="31.375" gradientUnits="userSpaceOnUse">
<stop stop-color="#9549E6"/>
<stop offset="1" stop-color="#9252D8"/>
</linearGradient>
<clipPath id="clip0_678_5967">
<rect width="38.0722" height="38.0722" fill="white" transform="translate(5.44238)"/>
</clipPath>
<clipPath id="clip1_678_5967">
<rect width="27.9808" height="27.4321" fill="white" transform="translate(0 12.2733)"/>
</clipPath>
</defs>
</svg>
