<svg width="19" height="19" viewBox="0 0 19 19" fill="none" xmlns="http://www.w3.org/2000/svg">
<path d="M10.7599 8.83438C10.6079 8.83438 10.4558 8.77649 10.3401 8.66042C9.41412 7.73446 7.90748 7.73416 6.98123 8.66042C6.74967 8.89228 6.37323 8.89228 6.14167 8.66042C5.90981 8.42856 5.90981 8.05271 6.14167 7.82085C7.53074 6.43148 9.79085 6.43177 11.1796 7.82085C11.4115 8.05271 11.4115 8.42856 11.1796 8.66042C11.0638 8.77649 10.9116 8.83438 10.7599 8.83438Z" fill="#844FDA"/>
<path d="M10.3403 12.2215C9.42804 12.2215 8.51575 11.8741 7.82136 11.1797C7.5895 10.9479 7.5895 10.572 7.82136 10.3402C8.05292 10.1083 8.42935 10.1083 8.66092 10.3402C9.58687 11.2661 11.0935 11.2664 12.0198 10.3402C12.2513 10.1083 12.6278 10.1083 12.8593 10.3402C13.0912 10.572 13.0912 10.9479 12.8593 11.1797C12.1646 11.8741 11.2523 12.2215 10.3403 12.2215Z" fill="#844FDA"/>
<path d="M12.4394 11.3534C12.2874 11.3534 12.1354 11.2955 12.0196 11.1794C11.7877 10.9475 11.7877 10.5717 12.0196 10.3398L15.3363 7.02314C15.5679 6.79128 15.9443 6.79128 16.1759 7.02314C16.4077 7.255 16.4077 7.63084 16.1759 7.8627L12.8592 11.1794C12.7434 11.2955 12.5914 11.3534 12.4394 11.3534Z" fill="#844FDA"/>
<path d="M7.44328 16.3492C7.29128 16.3492 7.13928 16.2913 7.0235 16.1752C6.79164 15.9433 6.79164 15.5675 7.0235 15.3356L8.87749 13.4816C9.10905 13.2498 9.48549 13.2498 9.71705 13.4816C9.94891 13.7135 9.94891 14.0893 9.71705 14.3212L7.86307 16.1752C7.74728 16.2913 7.59528 16.3492 7.44328 16.3492Z" fill="#844FDA"/>
<path d="M3.24504 12.1508C3.09304 12.1508 2.94104 12.0929 2.82526 11.9768C2.5934 11.745 2.5934 11.3691 2.82526 11.1373L6.14195 7.82087C6.37381 7.58901 6.74995 7.58901 6.98151 7.82087C7.21337 8.05273 7.21337 8.42857 6.98151 8.66043L3.66482 11.9768C3.54875 12.0926 3.39675 12.1508 3.24504 12.1508Z" fill="#844FDA"/>
<path d="M9.70305 5.69259C9.55105 5.69259 9.39935 5.6347 9.28327 5.51891C9.05141 5.28705 9.05141 4.91121 9.28327 4.67905L11.1373 2.82477C11.3691 2.59291 11.745 2.59291 11.9771 2.82477C12.209 3.05663 12.209 3.43248 11.9771 3.66463L10.1231 5.51891C10.0071 5.6344 9.85475 5.69259 9.70305 5.69259Z" fill="#844FDA"/>
<path d="M5.34398 17.1994C4.42575 17.1994 3.50752 16.858 2.825 16.1752C1.45937 14.8095 1.45937 12.5025 2.825 11.1369C3.05656 10.905 3.433 10.905 3.66456 11.1369C3.89642 11.3688 3.89642 11.7446 3.66456 11.9765C2.75434 12.8867 2.75434 14.4251 3.66456 15.3353C4.57478 16.2455 6.11319 16.2455 7.02341 15.3353C7.25497 15.1035 7.63141 15.1035 7.86297 15.3353C8.09483 15.5672 8.09483 15.943 7.86297 16.1749C7.18045 16.858 6.26222 17.1994 5.34398 17.1994Z" fill="#844FDA"/>
<path d="M15.756 8.03669C15.604 8.03669 15.452 7.9788 15.3362 7.86272C15.1043 7.63086 15.1043 7.25502 15.3362 7.02316C16.2464 6.11294 16.2464 4.57454 15.3362 3.66432C14.426 2.7541 12.8875 2.7541 11.9773 3.66432C11.7458 3.89618 11.3693 3.89618 11.1378 3.66432C10.9059 3.43246 10.9059 3.05662 11.1378 2.82476C12.5034 1.45913 14.8104 1.45913 16.176 2.82476C17.5417 4.19038 17.5417 6.4974 16.176 7.86302C16.06 7.9788 15.908 8.03669 15.756 8.03669Z" fill="#844FDA"/>
</svg>
