<svg width="62" height="55" viewBox="0 0 62 55" fill="none" xmlns="http://www.w3.org/2000/svg">
<g opacity="0.1">
<g clip-path="url(#clip0_678_5085)">
<path d="M46.9452 16.7055C45.812 16.0568 44.3551 16.0568 43.0601 16.7055L33.9948 22.0578L27.8433 25.4638L18.9399 30.816C17.8068 31.4648 16.3499 31.4648 15.0548 30.816L8.094 26.5991C6.96084 25.9503 6.15144 24.6528 6.15144 23.1931V15.0836C6.15144 13.7861 6.79896 12.4886 8.094 11.6776L15.0548 7.62291C16.188 6.97415 17.6449 6.97415 18.9399 7.62291L25.9008 11.8398C27.0339 12.4886 27.8433 13.7861 27.8433 15.2458V20.5981L33.9948 17.0299V11.5155C33.9948 10.2179 33.3473 8.92043 32.0522 8.10948L19.1018 0.486569C17.9687 -0.16219 16.5117 -0.16219 15.2167 0.486569L1.94256 8.27167C0.64752 8.92043 0 10.2179 0 11.5155V26.7613C0 28.0588 0.64752 29.3563 1.94256 30.1673L15.0548 37.7902C16.188 38.4389 17.6449 38.4389 18.9399 37.7902L27.8433 32.6001L33.9948 29.0319L42.8982 23.8419C44.0313 23.1931 45.4883 23.1931 46.7833 23.8419L53.7441 27.8966C54.8773 28.5454 55.6867 29.8429 55.6867 31.3026V39.4121C55.6867 40.7096 55.0392 42.0071 53.7441 42.818L46.9452 46.8728C45.812 47.5215 44.3551 47.5215 43.0601 46.8728L36.0992 42.818C34.9661 42.1693 34.1567 40.8718 34.1567 39.4121V34.222L28.0052 37.7902V43.1424C28.0052 44.4399 28.6527 45.7375 29.9478 46.5484L43.0601 54.1713C44.1932 54.8201 45.6501 54.8201 46.9452 54.1713L60.0574 46.5484C61.1906 45.8997 62 44.6021 62 43.1424V27.7344C62 26.4369 61.3525 25.1394 60.0574 24.3284L46.9452 16.7055Z" fill="#8247E5"/>
</g>
</g>
<defs>
<clipPath id="clip0_678_5085">
<rect width="62" height="54.6579" fill="white"/>
</clipPath>
</defs>
</svg>
