<svg width="22" height="22" viewBox="0 0 22 22" fill="none" xmlns="http://www.w3.org/2000/svg">
<circle cx="11" cy="11" r="11" fill="#663DBA" fill-opacity="0.5"/>
<g clip-path="url(#clip0_233_14443)">
<path d="M14.5623 8.62091C14.3091 8.47597 13.9836 8.47597 13.6943 8.62091L11.669 9.81669L10.2946 10.5776L8.30547 11.7734C8.0523 11.9184 7.7268 11.9184 7.43747 11.7734L5.8823 10.8313C5.62913 10.6864 5.4483 10.3965 5.4483 10.0703V8.25855C5.4483 7.96866 5.59297 7.67878 5.8823 7.4976L7.43747 6.5917C7.69063 6.44675 8.01613 6.44675 8.30547 6.5917L9.86064 7.53383C10.1138 7.67878 10.2946 7.96866 10.2946 8.29479V9.49057L11.669 8.69338V7.46136C11.669 7.17147 11.5243 6.88159 11.235 6.70041L8.34164 4.99732C8.08847 4.85237 7.76297 4.85237 7.47363 4.99732L4.50796 6.73664C4.21863 6.88159 4.07396 7.17147 4.07396 7.46136V10.8675C4.07396 11.1574 4.21863 11.4473 4.50796 11.6285L7.43747 13.3316C7.69063 13.4765 8.01613 13.4765 8.30547 13.3316L10.2946 12.172L11.669 11.3748L13.6581 10.2153C13.9113 10.0703 14.2368 10.0703 14.5261 10.2153L16.0813 11.1212C16.3345 11.2661 16.5153 11.556 16.5153 11.8821V13.6939C16.5153 13.9838 16.3706 14.2737 16.0813 14.4549L14.5623 15.3608C14.3091 15.5057 13.9836 15.5057 13.6943 15.3608L12.1391 14.4549C11.886 14.3099 11.7051 14.0201 11.7051 13.6939V12.5344L10.3308 13.3316V14.5274C10.3308 14.8172 10.4755 15.1071 10.7648 15.2883L13.6943 16.9914C13.9475 17.1363 14.273 17.1363 14.5623 16.9914L17.4918 15.2883C17.745 15.1434 17.9258 14.8535 17.9258 14.5274V11.085C17.9258 10.7951 17.7811 10.5052 17.4918 10.324L14.5623 8.62091Z" fill="white"/>
</g>
<defs>
<clipPath id="clip0_233_14443">
<rect width="13.8519" height="12.2115" fill="white" transform="translate(4.07396 4.88861)"/>
</clipPath>
</defs>
</svg>
