<svg width="22" height="22" viewBox="0 0 22 22" fill="none" xmlns="http://www.w3.org/2000/svg">
<circle cx="11" cy="11" r="11" fill="#663DBA"/>
<g clip-path="url(#clip0_678_5444)">
<path d="M14.5626 8.62085C14.3094 8.4759 13.9839 8.4759 13.6946 8.62085L11.6692 9.81663L10.2949 10.5776L8.30572 11.7734C8.05256 11.9183 7.72706 11.9183 7.43772 11.7734L5.88255 10.8312C5.62939 10.6863 5.44855 10.3964 5.44855 10.0703V8.25849C5.44855 7.9686 5.59322 7.67871 5.88255 7.49753L7.43772 6.59164C7.69089 6.44669 8.01639 6.44669 8.30572 6.59164L9.86089 7.53377C10.1141 7.67871 10.2949 7.9686 10.2949 8.29472V9.49051L11.6692 8.69332V7.4613C11.6692 7.17141 11.5246 6.88152 11.2352 6.70035L8.34189 4.99726C8.08872 4.85231 7.76322 4.85231 7.47389 4.99726L4.50822 6.73658C4.21889 6.88152 4.07422 7.17141 4.07422 7.4613V10.8675C4.07422 11.1574 4.21889 11.4472 4.50822 11.6284L7.43772 13.3315C7.69089 13.4765 8.01639 13.4765 8.30572 13.3315L10.2949 12.172L11.6692 11.3748L13.6584 10.2152C13.9116 10.0703 14.2371 10.0703 14.5264 10.2152L16.0816 11.1211C16.3347 11.2661 16.5156 11.556 16.5156 11.8821V13.6939C16.5156 13.9838 16.3709 14.2737 16.0816 14.4548L14.5626 15.3607C14.3094 15.5057 13.9839 15.5057 13.6946 15.3607L12.1394 14.4548C11.8862 14.3099 11.7054 14.02 11.7054 13.6939V12.5343L10.3311 13.3315V14.5273C10.3311 14.8172 10.4757 15.1071 10.7651 15.2883L13.6946 16.9913C13.9477 17.1363 14.2732 17.1363 14.5626 16.9913L17.4921 15.2883C17.7452 15.1433 17.9261 14.8534 17.9261 14.5273V11.0849C17.9261 10.795 17.7814 10.5051 17.4921 10.3239L14.5626 8.62085Z" fill="white"/>
</g>
<defs>
<clipPath id="clip0_678_5444">
<rect width="13.8519" height="12.2115" fill="white" transform="translate(4.07422 4.88855)"/>
</clipPath>
</defs>
</svg>
