<svg xmlns="http://www.w3.org/2000/svg" viewBox="0 0 517.24 542.55"><defs><style>.cls-1{opacity:0.12;}.cls-2{fill:#03fcf5;}.cls-3{fill:#7289b7;stroke:#7289b7;stroke-miterlimit:10;stroke-width:6px;}</style></defs><g id="Layer_2" data-name="Layer 2"><g id="Layer_1-2" data-name="Layer 1"><g class="cls-1"><path class="cls-2" d="M6.82,305.17V532.5a3.88,3.88,0,0,0,4.78,3.78L510.43,417.84Z"/></g><path class="cls-3" d="M508.64,415.62a1.32,1.32,0,0,1-.34,0l-15.08-3.32a1.6,1.6,0,0,1,.68-3.12L509,412.46a1.6,1.6,0,0,1-.34,3.16Zm-33.8-7.45a2,2,0,0,1-.34,0L455.78,404a1.6,1.6,0,0,1,.68-3.12L475.18,405a1.59,1.59,0,0,1-.34,3.15Zm-37.44-8.25a2,2,0,0,1-.34,0l-18.72-4.13a1.6,1.6,0,0,1,.68-3.12l18.72,4.13a1.59,1.59,0,0,1-.34,3.15ZM400,391.68a1.39,1.39,0,0,1-.35,0l-18.72-4.12a1.6,1.6,0,0,1,.69-3.12l18.72,4.12a1.6,1.6,0,0,1-.34,3.16Zm-37.44-8.25a1.39,1.39,0,0,1-.35,0l-18.72-4.12a1.6,1.6,0,1,1,.69-3.12l18.72,4.12a1.6,1.6,0,0,1-.34,3.16Zm-37.45-8.25-.34,0L306,371a1.6,1.6,0,0,1-1.22-1.9,1.62,1.62,0,0,1,1.91-1.22L325.42,372a1.6,1.6,0,0,1,1.21,1.91A1.58,1.58,0,0,1,325.07,375.18Zm-37.44-8.24a1.32,1.32,0,0,1-.34,0l-18.72-4.12a1.6,1.6,0,1,1,.68-3.12L288,363.78a1.6,1.6,0,0,1-.34,3.16Zm-37.44-8.25a1.32,1.32,0,0,1-.34,0l-18.72-4.12a1.6,1.6,0,1,1,.68-3.12l18.72,4.12a1.6,1.6,0,0,1-.34,3.16Zm-37.44-8.25a1.32,1.32,0,0,1-.34,0l-18.72-4.12a1.6,1.6,0,1,1,.68-3.12l18.72,4.12a1.6,1.6,0,0,1-.34,3.16Zm-37.44-8.24a2.09,2.09,0,0,1-.35,0L156.24,338a1.6,1.6,0,1,1,.69-3.12L175.65,339a1.6,1.6,0,0,1-.34,3.16ZM137.86,334a1.37,1.37,0,0,1-.34,0l-18.72-4.12a1.6,1.6,0,1,1,.69-3.12l18.72,4.12a1.6,1.6,0,0,1-.35,3.16Zm-37.44-8.25a1.37,1.37,0,0,1-.34,0l-18.72-4.12a1.61,1.61,0,0,1-1.22-1.91,1.58,1.58,0,0,1,1.91-1.21l18.72,4.12a1.6,1.6,0,0,1-.35,3.16ZM63,317.46a2,2,0,0,1-.34,0l-18.72-4.13a1.59,1.59,0,0,1-1.22-1.9,1.61,1.61,0,0,1,1.9-1.22l18.72,4.13a1.6,1.6,0,0,1-.34,3.16Zm-37.44-8.25a2,2,0,0,1-.34,0L6.48,305a1.59,1.59,0,0,1-1.22-1.9,1.61,1.61,0,0,1,1.9-1.22l18.72,4.13a1.6,1.6,0,0,1-.34,3.16Z"/><path class="cls-2" d="M6.82,538.93a2.56,2.56,0,0,1-.47,0,3.19,3.19,0,0,1-2.73-3.16V303.48A3.24,3.24,0,0,1,4,302L165,5.31a3.2,3.2,0,0,1,5.87,2.45l-161,528.9A3.21,3.21,0,0,1,6.82,538.93ZM10,304.29v210L155.59,36.09Z"/><path class="cls-2" d="M6.82,540.93a5.21,5.21,0,0,1-5.2-5.2V303.48A5.21,5.21,0,0,1,2.25,301l161-296.66a5.19,5.19,0,0,1,9.53,4l-161,528.91A5.17,5.17,0,0,1,6.82,540.93Zm161-535.29a1.21,1.21,0,0,0-1.05.62L5.77,302.92a1.12,1.12,0,0,0-.15.56V535.73a1.18,1.18,0,0,0,1,1.18l.18,0A1.2,1.2,0,0,0,8,536.08L169,7.18a1.2,1.2,0,0,0-.68-1.45A1.27,1.27,0,0,0,167.84,5.64ZM8,527.7V303.79l155.25-286Zm4-222.9v196L147.93,54.41Z"/><path class="cls-2" d="M6.82,540.55a5.81,5.81,0,0,1-.72,0A4.79,4.79,0,0,1,2,535.73V303.48a4.84,4.84,0,0,1,.58-2.29l161-296.66a4.82,4.82,0,0,1,8.84,3.7l-161,528.91A4.79,4.79,0,0,1,6.82,540.55Zm161-535.29a1.57,1.57,0,0,0-1.39.82L5.44,302.74a1.48,1.48,0,0,0-.19.74V535.73a1.55,1.55,0,0,0,1.34,1.55.93.93,0,0,0,.23,0,1.57,1.57,0,0,0,1.5-1.11l161-528.9a1.57,1.57,0,0,0-.9-1.91A1.61,1.61,0,0,0,167.85,5.26ZM8.39,525.18V303.88l.2-.36L161.82,21.22Zm3.25-220.47V503.36L149.37,51Z"/><path class="cls-2" d="M6.82,542.55a6.15,6.15,0,0,1-1-.08A6.76,6.76,0,0,1,0,535.73V303.48a6.78,6.78,0,0,1,.82-3.24l161-296.66a6.82,6.82,0,0,1,12.52,5.23l-161,528.91A6.78,6.78,0,0,1,6.82,542.55Zm6.82-237.33v184.7L141.7,69.29Z"/><path class="cls-2" d="M6.82,538.93a3.2,3.2,0,0,1-3.06-4.13l161-528.9a3.22,3.22,0,0,1,2.43-2.2,3.17,3.17,0,0,1,3.08,1.08L512.87,414.1a3.19,3.19,0,0,1-1.71,5.16L7.56,538.84A3.12,3.12,0,0,1,6.82,538.93ZM169.18,13.41,11.5,531.34l493.16-117.1Z"/><path class="cls-2" d="M6.82,540.93a5.19,5.19,0,0,1-5-6.7l161-528.91a5.19,5.19,0,0,1,8.95-1.83L514.41,412.82a5.2,5.2,0,0,1,.94,5,5.14,5.14,0,0,1-3.72,3.42L8,540.79A5.68,5.68,0,0,1,6.82,540.93Zm161-535.3-.23,0a1.19,1.19,0,0,0-.91.82L5.67,535.39A1.23,1.23,0,0,0,6,536.56a1.14,1.14,0,0,0,1.16.33L510.7,417.32a1.18,1.18,0,0,0,.86-.79,1.2,1.2,0,0,0-.22-1.14L168.76,6.06A1.22,1.22,0,0,0,167.84,5.63ZM8.57,534.09,168.34,9.29,508.27,415.44ZM170,17.52,14.42,528.59,501,413Z"/><path class="cls-2" d="M6.82,540.55a4.81,4.81,0,0,1-4.61-6.22l161-528.9a4.83,4.83,0,0,1,8.31-1.7L514.12,413.06a4.84,4.84,0,0,1,.88,4.61,4.78,4.78,0,0,1-3.46,3.17L7.93,540.42A4.8,4.8,0,0,1,6.82,540.55Zm161-535.29-.31,0a1.57,1.57,0,0,0-1.19,1.08L5.32,535.28a1.55,1.55,0,0,0,.36,1.53,1.57,1.57,0,0,0,1.14.49,1.82,1.82,0,0,0,.38,0L510.79,417.68a1.57,1.57,0,0,0,.84-2.53L169.05,5.82A1.59,1.59,0,0,0,167.84,5.26ZM9.12,533.58,168.5,10.06,507.59,415.21ZM169.86,16.75l-156,512.36L501.72,413.27Z"/><path class="cls-2" d="M6.82,542.55a6.81,6.81,0,0,1-6.53-8.79l161-528.92a6.82,6.82,0,0,1,11.75-2.39L515.65,411.78a6.86,6.86,0,0,1,1.25,6.53,6.78,6.78,0,0,1-4.9,4.48L8.4,542.37A7.37,7.37,0,0,1,6.82,542.55ZM170.7,20.87,16.8,526.36,498.11,412.07Z"/></g></g></svg>