<svg xmlns="http://www.w3.org/2000/svg" viewBox="0 0 1118.92 212.7"><defs><style>.cls-1{fill:#03fcf5;}</style></defs><g id="Layer_2" data-name="Layer 2"><g id="Layer_1-2" data-name="Layer 1"><polygon class="cls-1" points="0 29.97 68.7 29.97 68.7 211.7 90.7 211.7 90.7 29.97 159.4 29.97 159.4 7.97 0 7.97 0 29.97"/><polygon class="cls-1" points="463.3 29.97 532 29.97 532 211.7 554 211.7 554 29.97 622.71 29.97 622.71 7.97 463.3 7.97 463.3 29.97"/><path class="cls-1" d="M827.09,119.25A59.74,59.74,0,0,0,851,70.91c0-12.81-3.06-24.07-9.1-33.48A57.39,57.39,0,0,0,816.82,16c-10.27-4.66-22.13-7-35.24-7H713.93V212.7h22V131.94h53.79l50.17,80.76H859V201.24l-46.27-74.1A59.16,59.16,0,0,0,827.09,119.25ZM829,70.91a41.19,41.19,0,0,1-4.72,19.33,35.78,35.78,0,0,1-13.78,14.21c-6.13,3.65-13.74,5.49-22.61,5.49h-52V31h45.65c10,0,18.74,1.68,26,5a36.21,36.21,0,0,1,15.91,13.59C827.16,55.45,829,62.63,829,70.91Z"/><path class="cls-1" d="M1042.66,7.78h-6.34L1034,0l-2.92,7.78h-7.42L947.44,211.52h23.67l22.83-61.29,2.58-7L1032.88,46c16.09,44.81,53.33,142,60.58,160.77l1.85,4.8h23.61Z"/><rect class="cls-1" x="244.54" y="191.27" width="129.85" height="20.43"/><rect class="cls-1" x="244.54" y="7.97" width="129.85" height="21.99"/><rect class="cls-1" x="244.54" y="95.97" width="129.85" height="21.99"/></g></g></svg>