<svg width="9" height="9" viewBox="0 0 9 9" fill="none" xmlns="http://www.w3.org/2000/svg">
<g clip-path="url(#clip0_233_14909)">
<path d="M4.5 0C3.29795 0 2.16797 0.468165 1.31807 1.31807C0.468162 2.16796 0 3.2981 0 4.5C0 5.70191 0.468165 6.83203 1.31807 7.68193C2.16796 8.53184 3.29795 9 4.5 9C5.70205 9 6.83203 8.53183 7.68193 7.68193C8.53184 6.83204 9 5.70191 9 4.5C9 3.2981 8.53183 2.16797 7.68193 1.31807C6.83204 0.468162 5.70205 0 4.5 0V0ZM1.74229 7.25771C1.00576 6.52105 0.6 5.54165 0.6 4.5C0.6 3.55919 0.933765 2.67101 1.54052 1.96474L7.0353 7.45952C6.32913 8.06636 5.44096 8.4 4.5 8.4C3.4582 8.4 2.47881 7.99439 1.74229 7.25771ZM7.45948 7.03526L1.9647 1.54049C2.67087 0.933636 3.55904 0.6 4.5 0.6C5.5418 0.6 6.52119 1.00562 7.25771 1.74229C7.99424 2.47896 8.4 3.45835 8.4 4.5C8.4 5.44082 8.06624 6.32899 7.45948 7.03526Z" fill="#FF8400"/>
</g>
<defs>
<clipPath id="clip0_233_14909">
<rect width="9" height="9" fill="white"/>
</clipPath>
</defs>
</svg>
