<svg width="11" height="11" viewBox="0 0 11 11" fill="none" xmlns="http://www.w3.org/2000/svg">
<path d="M9.8757 1.78118L5.66476 0.0328469C5.55928 -0.0109382 5.4407 -0.0109597 5.33524 0.0328469L1.1243 1.78118C0.963918 1.84778 0.859375 2.00436 0.859375 2.17802V4.30336C0.859375 7.22981 2.62816 9.86223 5.33762 10.9681C5.44169 11.0106 5.55829 11.0106 5.66238 10.9681C8.3718 9.86225 10.1406 7.22983 10.1406 4.30336V2.17802C10.1406 2.00436 10.0361 1.84778 9.8757 1.78118ZM9.28125 4.30336C9.28125 6.79114 7.82031 9.08131 5.5 10.1036C3.24169 9.10862 1.71875 6.85856 1.71875 4.30336V2.46488L5.5 0.894929L9.28125 2.46488V4.30336ZM5.02507 5.75171L6.87195 3.90485C7.03974 3.73705 7.3118 3.73703 7.47961 3.90485C7.64743 4.07266 7.64741 4.34472 7.47959 4.51251L5.3289 6.6632C5.16106 6.83104 4.88901 6.83098 4.72123 6.6632L3.52039 5.46236C3.35257 5.29454 3.35257 5.02249 3.52039 4.85469C3.6882 4.6869 3.96026 4.68688 4.12805 4.85469L5.02507 5.75171Z" fill="#72F8F4"/>
</svg>
