<?xml version="1.0" encoding="UTF-8"?>
<svg width="30px" height="31px" viewBox="0 0 30 31" version="1.1" xmlns="http://www.w3.org/2000/svg" xmlns:xlink="http://www.w3.org/1999/xlink">
    <!-- Generator: Sketch 63.1 (92452) - https://sketch.com -->
    <title>paste</title>
    <desc>Created with Sketch.</desc>
    <g id="wallet-new" stroke="none" stroke-width="1" fill="none" fill-rule="evenodd">
        <g id="1-copy" transform="translate(-1270.000000, -269.000000)" fill="#FFFFFF" fill-rule="nonzero">
            <g id="Group-12" transform="translate(1270.000000, 265.000000)">
                <g id="paste" transform="translate(0.000000, 4.500000)">
                    <path d="M21.5078236,0 L1.19487909,0 C0.535303498,0 0,0.535303498 0,1.19487909 L0,21.5078236 C0,22.1673992 0.535303498,22.7027027 1.19487909,22.7027027 L21.5078236,22.7027027 C22.1673992,22.7027027 22.7027027,22.1673992 22.7027027,21.5078236 L22.7027027,1.19487909 C22.7027027,0.535303498 22.1673992,0 21.5078236,0 Z M20.3129445,20.3129445 L2.38975818,20.3129445 L2.38975818,2.38975818 L20.3129445,2.38975818 L20.3129445,20.3129445 L20.3129445,20.3129445 Z" id="Shape"></path>
                    <path d="M27.8378378,25.1351351 L27.8378378,27.8378378 L25.1351351,27.8378378 L25.1351351,30 L28.9189189,30 C29.5156778,30 30,29.5156778 30,28.9189189 L30,25.1351351 L27.8378378,25.1351351 Z" id="Path"></path>
                    <rect id="Rectangle" x="16.2162162" y="25.9459459" width="7.2972973" height="4.05405405"></rect>
                    <path d="M9.45945946,27.8378378 L9.45945946,25.1351351 L7.2972973,25.1351351 L7.2972973,28.9189189 C7.2972973,29.5156778 7.78161951,30 8.37837838,30 L12.1621622,30 L12.1621622,27.8378378 L9.45945946,27.8378378 Z" id="Path"></path>
                    <path d="M28.9189189,7.2972973 L25.1351351,7.2972973 L25.1351351,9.45945946 L27.8378378,9.45945946 L27.8378378,12.1621622 L30,12.1621622 L30,8.37837838 C30,7.78161951 29.5156778,7.2972973 28.9189189,7.2972973 Z" id="Path"></path>
                    <rect id="Rectangle" x="25.9459459" y="16.2162162" width="4.05405405" height="7.2972973"></rect>
                </g>
            </g>
        </g>
    </g>
</svg>