<?xml version="1.0" encoding="UTF-8"?>
<svg width="21px" height="21px" viewBox="0 0 21 21" version="1.1" xmlns="http://www.w3.org/2000/svg" xmlns:xlink="http://www.w3.org/1999/xlink">
    <defs>
        <linearGradient x1="43.3316764%" y1="30.8453962%" x2="50%" y2="69.1546038%" id="linearGradient-1">
            <stop stop-color="#212121" offset="0%"/>
            <stop stop-color="#212121" offset="100%"/>
        </linearGradient>
        <filter x="-3.1%" y="-4.4%" width="106.3%" height="110.2%" filterUnits="objectBoundingBox" id="filter-3">
            <feOffset dx="0" dy="6" in="SourceAlpha" result="shadowOffsetOuter1"/>
            <feGaussianBlur stdDeviation="13.5" in="shadowOffsetOuter1" result="shadowBlurOuter1"/>
            <feColorMatrix values="0 0 0 0 0.136798469   0 0 0 0 0.136798469   0 0 0 0 0.136798469  0 0 0 0.378226902 0" type="matrix" in="shadowBlurOuter1"/>
        </filter>
        <rect id="path-2" x="157" y="1089" width="1383" height="856" rx="3"/>
    </defs>
    <g id="wallet-new" stroke="none" stroke-width="1" fill="none" fill-rule="evenodd">
        <g id="Wallet-info-Copy-13" transform="translate(-1080.000000, -1174.000000)">
            <g id="Rectangle-Copy-6" opacity="0.496163504">
                <use fill="black" fill-opacity="1" filter="url(#filter-3)" xlink:href="#path-2"/>
                <use fill="url(#linearGradient-1)" fill-rule="evenodd" xlink:href="#path-2"/>
            </g>
            <g id="internet" transform="translate(1080.000000, 1174.000000)" fill="#FFFFFF" fill-rule="nonzero">
                <path d="M18.3525517,17.4596897 C19.9977931,15.6055345 21,13.1680862 21,10.5 C21,7.72401724 19.9152414,5.19822414 18.1497931,3.31872414 C18.1497931,3.31872414 18.1497931,3.31836207 18.1497931,3.31836207 C18.1483448,3.31618966 18.1461724,3.31546552 18.1450862,3.31365517 C16.3061379,1.35884483 13.7296552,0.107534483 10.8638793,0.0094137931 L10.8635172,0.00905172414 L10.6589483,0.00362068966 C10.6060862,0.00181034483 10.5532241,0 10.5,0 C10.4467759,0 10.3939138,0.00181034483 10.3410517,0.00362068966 L10.1372069,0.00905172414 L10.1368448,0.0094137931 C7.27106897,0.107534483 4.69458621,1.35884483 2.85563793,3.31365517 C2.85418966,3.31546552 2.85201724,3.31618966 2.85093103,3.31836207 C2.85093103,3.31836207 2.85093103,3.31872414 2.85056897,3.31908621 C1.08475862,5.19822414 0,7.72401724 0,10.5 C0,13.1680862 1.0022069,15.6055345 2.64744828,17.4596897 C2.64962069,17.4629483 2.64962069,17.466569 2.65215517,17.4698276 C2.65867241,17.4788793 2.66808621,17.4832241 2.67496552,17.4915517 C4.52368966,19.5582414 7.1762069,20.889569 10.1364828,20.9909483 L10.1368448,20.9913103 L10.3406897,20.9967414 C10.3939138,20.9981897 10.4467759,21 10.5,21 C10.5532241,21 10.6060862,20.9981897 10.6589483,20.9963793 L10.8627931,20.9909483 L10.8631552,20.9905862 C13.8266897,20.8888448 16.4821034,19.5549828 18.3308276,17.4839483 C18.3355345,17.4777931 18.3431379,17.4759828 18.3474828,17.4694655 C18.3503793,17.466569 18.3503793,17.4629483 18.3525517,17.4596897 Z M0.733189655,10.862069 L5.07910345,10.862069 C5.12001724,12.3968793 5.41981034,13.8882414 5.9535,15.2854655 C4.92377586,15.6580345 3.93931034,16.1576897 3.01675862,16.7811724 C1.66008621,15.167431 0.815741379,13.1105172 0.733189655,10.862069 Z M3.21444828,3.99108621 C4.11527586,4.57691379 5.07439655,5.04615517 6.0747931,5.39663793 C5.46217241,6.88365517 5.12327586,8.48689655 5.07910345,10.137931 L0.733189655,10.137931 C0.819724138,7.78194828 1.74227586,5.63668966 3.21444828,3.99108621 Z M20.2668103,10.137931 L15.9208966,10.137931 C15.8767241,8.48689655 15.5378276,6.88365517 14.9252069,5.39663793 C15.9256034,5.04615517 16.8847241,4.57691379 17.7855517,3.99108621 C19.2577241,5.63668966 20.1802759,7.78194828 20.2668103,10.137931 Z M10.137931,5.41763793 C9.09118966,5.38794828 8.06363793,5.23189655 7.07084483,4.95310345 C7.80475862,3.44762069 8.841,2.08877586 10.137931,0.957310345 L10.137931,5.41763793 Z M10.137931,6.14177586 L10.137931,10.137931 L5.80324138,10.137931 C5.84777586,8.56365517 6.17798276,7.03681034 6.76851724,5.62112069 C7.85689655,5.93648276 8.98691379,6.111 10.137931,6.14177586 Z M10.862069,6.14177586 C12.0130862,6.111 13.1431034,5.93684483 14.2318448,5.62112069 C14.8223793,7.03681034 15.1525862,8.56365517 15.1971207,10.137931 L10.862069,10.137931 L10.862069,6.14177586 Z M10.862069,5.41763793 L10.862069,0.957310345 C12.159,2.08877586 13.1952414,3.44762069 13.9291552,4.95310345 C12.9363621,5.23189655 11.9088103,5.38794828 10.862069,5.41763793 Z M14.6308448,4.73296552 C13.9353103,3.27563793 12.9700345,1.94793103 11.7748448,0.809948276 C13.8951207,1.0872931 15.8028621,2.04605172 17.2721379,3.45956897 C16.437931,3.98891379 15.5530345,4.4147069 14.6308448,4.73296552 Z M6.36915517,4.73296552 C5.44696552,4.4147069 4.56206897,3.98891379 3.72822414,3.45956897 C5.19713793,2.04605172 7.10524138,1.0872931 9.22551724,0.809948276 C8.02996552,1.94793103 7.06468966,3.27563793 6.36915517,4.73296552 Z M5.80324138,10.862069 L10.137931,10.862069 L10.137931,14.4965172 C8.94056897,14.5283793 7.76746552,14.7152069 6.63998276,15.0544655 C6.13055172,13.7311034 5.84415517,12.3172241 5.80324138,10.862069 Z M10.137931,15.2206552 L10.137931,20.0426897 C8.74975862,18.831569 7.66137931,17.3601207 6.92131034,15.7279138 C7.95936207,15.4219655 9.03760345,15.2517931 10.137931,15.2206552 Z M10.862069,20.0426897 L10.862069,15.2206552 C11.9623966,15.251431 13.0406379,15.4219655 14.0786897,15.7275517 C13.3386207,17.3601207 12.2502414,18.831569 10.862069,20.0426897 Z M10.862069,14.4965172 L10.862069,10.862069 L15.1967586,10.862069 C15.1558448,12.3172241 14.8694483,13.7311034 14.3596552,15.0548276 C13.2325345,14.7152069 12.059431,14.5283793 10.862069,14.4965172 Z M15.9208966,10.862069 L20.2668103,10.862069 C20.1842586,13.1105172 19.3402759,15.167431 17.9832414,16.7811724 C17.0606897,16.1576897 16.0762241,15.6580345 15.0465,15.2854655 C15.5805517,13.8882414 15.8799828,12.3968793 15.9208966,10.862069 Z M3.50881034,17.3235517 C4.36546552,16.7543793 5.27751724,16.2967241 6.23048276,15.954569 C6.9347069,17.5331897 7.94560345,18.9716897 9.22515517,20.1900517 C6.99806897,19.8985862 5.00487931,18.8558276 3.50881034,17.3235517 Z M11.7748448,20.1900517 C13.0543966,18.9720517 14.0652931,17.5335517 14.7695172,15.954569 C15.7224828,16.2967241 16.6341724,16.7543793 17.4911897,17.3235517 C15.9951207,18.8558276 14.001931,19.8985862 11.7748448,20.1900517 Z" id="Shape"/>
            </g>
        </g>
    </g>
</svg>
