<?xml version="1.0" encoding="UTF-8"?>
<svg width="30px" height="30px" viewBox="0 0 30 30" version="1.1" xmlns="http://www.w3.org/2000/svg" xmlns:xlink="http://www.w3.org/1999/xlink">
    <!-- Generator: Sketch 63.1 (92452) - https://sketch.com -->
    <title>favorites</title>
    <desc>Created with Sketch.</desc>
    <g id="wallet-new" stroke="none" stroke-width="1" fill="none" fill-rule="evenodd">
        <g id="wallet-final" transform="translate(-158.000000, -746.000000)" fill-rule="nonzero">
            <g id="favorites" transform="translate(158.000000, 746.000000)">
                <path d="M27.3905789,11.8562899 C27.943332,11.3148841 28.1384739,10.5202991 27.899987,9.78262842 C27.6614404,9.04495776 27.038751,8.51745105 26.2748773,8.40595872 L19.5954539,7.43068538 C19.4643457,7.41157412 19.3510048,7.32883854 19.292337,7.20937819 L16.3052283,1.12762423 C15.9636554,0.432070232 15.2719239,0 14.5,0 C13.7280787,0 13.0363472,0.432070232 12.6947743,1.12762423 L9.70766559,7.2094381 C9.64893818,7.32883854 9.53565687,7.41157412 9.40448905,7.43074529 L2.72518495,8.40595872 C1.96131123,8.51745105 1.33868142,9.04495776 1.10007522,9.78262842 C0.861469026,10.5202991 1.0566706,11.3148841 1.60948336,11.8562899 L6.44271958,16.5903107 C6.53757776,16.6832909 6.58092276,16.8171895 6.55850499,16.9484521 L5.41752378,23.6329596 C5.28707142,24.3974699 5.59388489,25.1555099 6.21836297,25.6114243 C6.84284106,26.0674585 7.65536611,26.12635 8.33851199,25.7655126 C9.80874574,24.9888259 10.9114211,24.4063109 11.6465379,24.0179676 C12.2390117,23.704979 13.1277223,23.235496 14.3126698,22.6095187 C14.4300054,22.547512 14.5700568,22.547512 14.687452,22.6095187 L20.6616695,25.7655126 C20.9588242,25.9224765 21.2803642,26 21.6003541,26 C22.0159176,26 22.4288578,25.8691567 22.7816396,25.6113644 C23.4061177,25.1553901 23.7129908,24.3972902 23.5824788,23.6328997 L22.4414976,16.9483922 C22.4191395,16.8171296 22.4624248,16.683231 22.557283,16.5902508 L27.3905789,11.8562899 Z M20.8543073,17.2220606 L21.9952885,23.906688 C22.0334464,24.1303916 21.8960183,24.2579398 21.8351445,24.302333 C21.7742111,24.3466663 21.6109668,24.4387479 21.4111147,24.3330668 L15.4368973,21.1770729 C15.143618,21.0222058 14.8218991,20.9446824 14.5001205,20.9446824 C14.178342,20.9446824 13.8565635,21.0222058 13.5633438,21.177013 L7.58918598,24.332947 C7.38921467,24.4385681 7.22602997,24.3466064 7.16515618,24.3022132 C7.10428238,24.2578199 6.96679466,24.1302718 7.00501219,23.9065682 L8.1459934,17.2220606 C8.25802264,16.5657476 8.04165535,15.8964342 7.5670067,15.4315932 L2.73377048,10.6975725 C2.5720167,10.5390509 2.60862445,10.3547081 2.63193655,10.2828162 C2.6551294,10.2108644 2.73341274,10.0400613 2.95693464,10.0074703 L9.63617913,9.03219695 C10.2919586,8.93646093 10.8586632,8.52284294 11.1520022,7.9256011 L14.1391109,1.84378723 C14.2390966,1.64027328 14.4248779,1.61828634 14.5001802,1.61828634 C14.5753632,1.61828634 14.7611445,1.64021337 14.8611898,1.84378723 L14.8611898,1.84384714 L17.8482985,7.92566101 C18.1415778,8.52290285 18.7082228,8.93652084 19.3640023,9.03225686 L26.0433661,10.0075302 C26.266888,10.0401212 26.3451117,10.2109243 26.3683642,10.2828761 C26.3916166,10.3548279 26.428284,10.5392306 26.2664706,10.6976324 L21.4332344,15.4316531 C20.9586453,15.8964342 20.7422781,16.5657476 20.8543073,17.2220606 Z" id="Shape" fill="#FFFFFF"></path>
                <path d="M23.7306782,1.1655808 C23.4387358,0.884224668 23.0302777,0.970094767 22.8182373,1.35734452 L22.1248016,2.62370385 C21.9127613,3.0109536 21.9774278,3.55306475 22.2693218,3.83442089 C22.3853539,3.9461547 22.5196687,4 22.6527743,4 C22.8548027,4 23.0539774,3.87607238 23.1817627,3.64272135 L23.8751984,2.37636202 C24.0872387,1.98904809 24.0225722,1.44693694 23.7306782,1.1655808 Z" id="Path" fill="#6EC6D8"></path>
                <path d="M7.87517507,2.62362681 L7.18174286,1.35725566 C6.96975198,0.970130645 6.56124752,0.884259745 6.26930661,1.16549015 C5.97746243,1.44684892 5.9127479,1.98896513 6.12478715,2.3762185 L6.81821936,3.64258965 C6.94605233,3.8761354 7.14522607,4 7.3473018,4 C7.4804551,4 7.61481757,3.9461542 7.73070398,3.83435516 C8.02254816,3.55306058 8.0872627,3.01094436 7.87517507,2.62362681 Z" id="Path" fill="#6EC6D8"></path>
                <path d="M2.9602896,18.5402771 C2.82258587,18.1297861 2.36741678,17.9050664 1.94355215,18.038463 L0.557732857,18.4747073 C0.133868224,18.6081039 -0.0979878214,19.0491517 0.0397159107,19.4596427 C0.15047631,19.7900379 0.466806575,20 0.806913884,20 C0.889536123,20 0.973592154,19.9875574 1.05645336,19.9614568 L2.44227265,19.5252124 C2.86607754,19.3918159 3.09799333,18.9508838 2.9602896,18.5402771 Z" id="Path" fill="#6EC6D8"></path>
                <path d="M15,27 C14.4477269,27 14,27.3529103 14,27.7882266 L14,29.2117734 C14,29.6470897 14.4477269,30 15,30 C15.5522731,30 16,29.6470897 16,29.2117734 L16,27.7882266 C16,27.3528519 15.5523471,27 15,27 Z" id="Path" fill="#6EC6D8"></path>
                <path d="M29.4422727,18.4746913 L28.0564534,18.0384258 C27.6327679,17.9051386 27.1774196,18.1296955 27.0397159,18.5403221 C26.9020122,18.9509488 27.1338682,19.3919022 27.5577329,19.5253052 L28.9435522,19.9615707 C29.0264134,19.9876146 29.1104096,20 29.1930319,20 C29.5331989,20 29.8495292,19.7899698 29.9602896,19.4596165 C30.0979933,19.0490477 29.8660775,18.6080943 29.4422727,18.4746913 Z" id="Path" fill="#6EC6D8"></path>
            </g>
        </g>
    </g>
</svg>