<?xml version="1.0" encoding="UTF-8"?>
<svg width="29px" height="23px" viewBox="0 0 29 23" version="1.1" xmlns="http://www.w3.org/2000/svg" xmlns:xlink="http://www.w3.org/1999/xlink">
    <!-- Generator: Sketch 63.1 (92452) - https://sketch.com -->
    <title>wallet (1)</title>
    <desc>Created with Sketch.</desc>
    <g id="wallet-new" stroke="none" stroke-width="1" fill="none" fill-rule="evenodd">
        <g id="1-copy" transform="translate(-161.000000, -167.000000)" fill="#FFFFFF" fill-rule="nonzero">
            <g id="wallet-(1)" transform="translate(161.000000, 167.000000)">
                <path d="M28.5189437,10.173267 L28.0373376,10.173267 L28.0373376,4.61854515 C28.0373376,4.35195317 27.8219613,4.13583767 27.5562812,4.13583767 L26.5031802,4.13583767 L26.5031802,0.482707478 C26.5031802,0.216115499 26.2878039,0 26.0221239,0 L2.54190167,0 C1.13867617,0.00152023652 0.00151503641,1.14258448 0,2.55062631 L0,19.3044375 C0.00257414876,21.1951032 1.52937719,22.7271467 3.41357574,22.7297297 L27.556831,22.7297297 C27.8225111,22.7297297 28.0378873,22.5136142 28.0378873,22.2470223 L28.0378873,16.6931279 L28.5189437,16.6931279 C28.7846237,16.6931279 29,16.4770124 29,16.2104204 L29,10.6559745 C29,10.3893825 28.7846237,10.173267 28.5189437,10.173267 L28.5189437,10.173267 Z M2.54190167,0.966518288 L25.5418922,0.966518288 L25.5418922,4.13583767 L2.54190167,4.13583767 C1.66940829,4.13583767 0.962112667,3.42611437 0.962112667,2.55062631 C0.962112667,1.67513826 1.66940829,0.965414956 2.54190167,0.965414956 L2.54190167,0.966518288 Z M27.0752249,21.7643148 L3.41357574,21.7643148 C2.05973543,21.7627944 0.962651452,20.6618214 0.961287999,19.3033341 L0.961287999,4.54517361 C1.40991629,4.90530728 1.96737768,5.10142894 2.54190167,5.10125263 L27.0760496,5.10125263 L27.0760496,10.173267 L24.1652464,10.173267 C22.9974488,10.162488 21.9137332,10.781459 21.3267114,11.7945143 C20.7396896,12.8075697 20.7396896,14.0588252 21.3267114,15.0718806 C21.9137332,16.0849359 22.9974488,16.7039069 24.1652464,16.6931279 L27.0752249,16.6931279 L27.0752249,21.7643148 Z M28.0373376,15.7266096 L24.1652464,15.7266096 C23.3423248,15.7356634 22.5780233,15.3003222 22.1639358,14.5866758 C21.7498483,13.8730294 21.7498483,12.9911589 22.1639358,12.2775125 C22.5780233,11.5638661 23.3423248,11.1285248 24.1652464,11.1375786 L28.0378873,11.1375786 L28.0373376,15.7266096 Z" id="Shape"></path>
                <path d="M23.9054054,12.5405405 C23.2560977,12.5405405 22.7297297,13.0669085 22.7297297,13.7162162 C22.7297297,14.365524 23.2560977,14.8918919 23.9054054,14.8918919 C24.5547132,14.8918919 25.0810811,14.365524 25.0810811,13.7162162 C25.0802833,13.0672392 24.5543824,12.5413383 23.9054054,12.5405405 Z" id="Path"></path>
            </g>
        </g>
    </g>
</svg>